<mxfile host="app.diagrams.net" agent="Mozilla/5.0 (Windows NT 10.0; Win64; x64) AppleWebKit/537.36 (KHTML, like Gecko) Chrome/135.0.0.0 Safari/537.36" version="26.2.14">
  <diagram name="Page-1" id="PwSASDq-akAxYnx5ry94">
    <mxGraphModel dx="1389" dy="749" grid="1" gridSize="10" guides="1" tooltips="1" connect="1" arrows="1" fold="1" page="1" pageScale="1" pageWidth="850" pageHeight="1100" math="0" shadow="0">
      <root>
        <mxCell id="0" />
        <mxCell id="1" parent="0" />
        <mxCell id="qrhTBZqcDBaqj9OsFunk-2" value="Show" style="ellipse;shape=umlControl;whiteSpace=wrap;html=1;" parent="1" vertex="1">
          <mxGeometry x="390" y="370" width="70" height="80" as="geometry" />
        </mxCell>
        <mxCell id="qrhTBZqcDBaqj9OsFunk-4" value="Lost item Owner" style="shape=umlActor;verticalLabelPosition=bottom;verticalAlign=top;html=1;" parent="1" vertex="1">
          <mxGeometry x="35" y="240" width="30" height="60" as="geometry" />
        </mxCell>
        <mxCell id="qrhTBZqcDBaqj9OsFunk-5" value="Login screen" style="shape=umlBoundary;whiteSpace=wrap;html=1;" parent="1" vertex="1">
          <mxGeometry x="190" y="230" width="100" height="80" as="geometry" />
        </mxCell>
        <mxCell id="qrhTBZqcDBaqj9OsFunk-16" value="" style="edgeStyle=none;rounded=0;orthogonalLoop=1;jettySize=auto;html=1;" parent="1" source="qrhTBZqcDBaqj9OsFunk-7" edge="1">
          <mxGeometry relative="1" as="geometry">
            <mxPoint x="280" y="370" as="targetPoint" />
          </mxGeometry>
        </mxCell>
        <mxCell id="qrhTBZqcDBaqj9OsFunk-7" value="Credentials&lt;div&gt;check&lt;/div&gt;" style="ellipse;shape=umlControl;whiteSpace=wrap;html=1;" parent="1" vertex="1">
          <mxGeometry x="380" y="220" width="70" height="80" as="geometry" />
        </mxCell>
        <mxCell id="qrhTBZqcDBaqj9OsFunk-10" style="edgeStyle=none;rounded=0;orthogonalLoop=1;jettySize=auto;html=1;exitX=0.5;exitY=0.5;exitDx=0;exitDy=0;exitPerimeter=0;entryX=-0.04;entryY=0.525;entryDx=0;entryDy=0;entryPerimeter=0;" parent="1" source="qrhTBZqcDBaqj9OsFunk-4" target="qrhTBZqcDBaqj9OsFunk-5" edge="1">
          <mxGeometry relative="1" as="geometry" />
        </mxCell>
        <mxCell id="qrhTBZqcDBaqj9OsFunk-11" value="" style="endArrow=open;endFill=1;endSize=12;html=1;rounded=0;entryX=-0.029;entryY=0.615;entryDx=0;entryDy=0;entryPerimeter=0;" parent="1" target="qrhTBZqcDBaqj9OsFunk-7" edge="1">
          <mxGeometry width="160" relative="1" as="geometry">
            <mxPoint x="291" y="270" as="sourcePoint" />
            <mxPoint x="320" y="390" as="targetPoint" />
          </mxGeometry>
        </mxCell>
        <mxCell id="qrhTBZqcDBaqj9OsFunk-12" value="Types credentials" style="text;html=1;align=center;verticalAlign=middle;resizable=0;points=[];autosize=1;strokeColor=none;fillColor=none;" parent="1" vertex="1">
          <mxGeometry x="65" y="245" width="120" height="30" as="geometry" />
        </mxCell>
        <mxCell id="qrhTBZqcDBaqj9OsFunk-13" value="&lt;div&gt;&lt;span style=&quot;background-color: transparent; color: light-dark(rgb(0, 0, 0), rgb(255, 255, 255));&quot;&gt;Data Base&lt;/span&gt;&lt;/div&gt;" style="ellipse;shape=umlEntity;whiteSpace=wrap;html=1;" parent="1" vertex="1">
          <mxGeometry x="490" y="100" width="80" height="80" as="geometry" />
        </mxCell>
        <mxCell id="qrhTBZqcDBaqj9OsFunk-14" style="edgeStyle=none;rounded=0;orthogonalLoop=1;jettySize=auto;html=1;exitX=0;exitY=1;exitDx=0;exitDy=0;entryX=0.863;entryY=0.24;entryDx=0;entryDy=0;entryPerimeter=0;" parent="1" source="qrhTBZqcDBaqj9OsFunk-13" target="qrhTBZqcDBaqj9OsFunk-7" edge="1">
          <mxGeometry relative="1" as="geometry" />
        </mxCell>
        <mxCell id="qrhTBZqcDBaqj9OsFunk-21" value="" style="edgeStyle=none;rounded=0;orthogonalLoop=1;jettySize=auto;html=1;" parent="1" source="qrhTBZqcDBaqj9OsFunk-17" edge="1">
          <mxGeometry relative="1" as="geometry">
            <mxPoint x="390" y="410" as="targetPoint" />
          </mxGeometry>
        </mxCell>
        <mxCell id="qrhTBZqcDBaqj9OsFunk-17" value="Main menu" style="shape=umlBoundary;whiteSpace=wrap;html=1;" parent="1" vertex="1">
          <mxGeometry x="210" y="370" width="100" height="80" as="geometry" />
        </mxCell>
        <mxCell id="qrhTBZqcDBaqj9OsFunk-18" style="edgeStyle=none;rounded=0;orthogonalLoop=1;jettySize=auto;html=1;exitX=0.5;exitY=0.5;exitDx=0;exitDy=0;exitPerimeter=0;entryX=-0.036;entryY=0.52;entryDx=0;entryDy=0;entryPerimeter=0;" parent="1" source="qrhTBZqcDBaqj9OsFunk-4" target="qrhTBZqcDBaqj9OsFunk-17" edge="1">
          <mxGeometry relative="1" as="geometry" />
        </mxCell>
        <mxCell id="qrhTBZqcDBaqj9OsFunk-19" value="Submit Post ,LostItem" style="text;html=1;align=center;verticalAlign=middle;resizable=0;points=[];autosize=1;strokeColor=none;fillColor=none;rotation=45;" parent="1" vertex="1">
          <mxGeometry x="75" y="330" width="140" height="30" as="geometry" />
        </mxCell>
        <mxCell id="qrhTBZqcDBaqj9OsFunk-22" value="Create Post&lt;div&gt;screen&lt;/div&gt;" style="shape=umlBoundary;whiteSpace=wrap;html=1;" parent="1" vertex="1">
          <mxGeometry x="200" y="500" width="100" height="80" as="geometry" />
        </mxCell>
        <mxCell id="qrhTBZqcDBaqj9OsFunk-23" value="Add Post  &#xa;Pressed" style="text;whiteSpace=wrap;html=1;" parent="1" vertex="1">
          <mxGeometry x="320" y="390" width="80" height="50" as="geometry" />
        </mxCell>
        <mxCell id="qrhTBZqcDBaqj9OsFunk-24" value="" style="endArrow=open;endFill=1;endSize=12;html=1;rounded=0;entryX=0.44;entryY=0.065;entryDx=0;entryDy=0;entryPerimeter=0;exitX=0.526;exitY=0.985;exitDx=0;exitDy=0;exitPerimeter=0;" parent="1" source="qrhTBZqcDBaqj9OsFunk-2" target="qrhTBZqcDBaqj9OsFunk-22" edge="1">
          <mxGeometry width="160" relative="1" as="geometry">
            <mxPoint x="240" y="560" as="sourcePoint" />
            <mxPoint x="400" y="560" as="targetPoint" />
          </mxGeometry>
        </mxCell>
        <mxCell id="qrhTBZqcDBaqj9OsFunk-26" style="edgeStyle=none;rounded=0;orthogonalLoop=1;jettySize=auto;html=1;exitX=0.5;exitY=0.5;exitDx=0;exitDy=0;exitPerimeter=0;entryX=-0.017;entryY=0.528;entryDx=0;entryDy=0;entryPerimeter=0;" parent="1" source="qrhTBZqcDBaqj9OsFunk-4" target="qrhTBZqcDBaqj9OsFunk-22" edge="1">
          <mxGeometry relative="1" as="geometry" />
        </mxCell>
        <mxCell id="qrhTBZqcDBaqj9OsFunk-27" value="Fills Item Form" style="text;html=1;align=center;verticalAlign=middle;resizable=0;points=[];autosize=1;strokeColor=none;fillColor=none;" parent="1" vertex="1">
          <mxGeometry x="50" y="440" width="100" height="30" as="geometry" />
        </mxCell>
        <mxCell id="qrhTBZqcDBaqj9OsFunk-28" value="" style="endArrow=open;endFill=1;endSize=12;html=1;rounded=0;exitX=1.035;exitY=0.56;exitDx=0;exitDy=0;exitPerimeter=0;" parent="1" source="qrhTBZqcDBaqj9OsFunk-22" edge="1">
          <mxGeometry width="160" relative="1" as="geometry">
            <mxPoint x="320" y="530" as="sourcePoint" />
            <mxPoint x="400" y="540" as="targetPoint" />
          </mxGeometry>
        </mxCell>
        <mxCell id="qrhTBZqcDBaqj9OsFunk-29" value="Submit&amp;nbsp;&lt;div&gt;Post&lt;/div&gt;" style="ellipse;shape=umlControl;whiteSpace=wrap;html=1;" parent="1" vertex="1">
          <mxGeometry x="540" y="490" width="70" height="80" as="geometry" />
        </mxCell>
        <mxCell id="qrhTBZqcDBaqj9OsFunk-30" value="Form Check" style="ellipse;shape=umlControl;whiteSpace=wrap;html=1;" parent="1" vertex="1">
          <mxGeometry x="400" y="500" width="70" height="80" as="geometry" />
        </mxCell>
        <mxCell id="qrhTBZqcDBaqj9OsFunk-31" value="" style="endArrow=open;endFill=1;endSize=12;html=1;rounded=0;entryX=0.014;entryY=0.58;entryDx=0;entryDy=0;entryPerimeter=0;exitX=1.028;exitY=0.486;exitDx=0;exitDy=0;exitPerimeter=0;" parent="1" source="qrhTBZqcDBaqj9OsFunk-30" target="qrhTBZqcDBaqj9OsFunk-29" edge="1">
          <mxGeometry width="160" relative="1" as="geometry">
            <mxPoint x="340" y="350" as="sourcePoint" />
            <mxPoint x="500" y="350" as="targetPoint" />
          </mxGeometry>
        </mxCell>
        <mxCell id="qrhTBZqcDBaqj9OsFunk-32" value="Correct" style="text;html=1;align=center;verticalAlign=middle;resizable=0;points=[];autosize=1;strokeColor=none;fillColor=none;" parent="1" vertex="1">
          <mxGeometry x="470" y="508" width="60" height="30" as="geometry" />
        </mxCell>
        <mxCell id="qrhTBZqcDBaqj9OsFunk-36" style="edgeStyle=none;rounded=0;orthogonalLoop=1;jettySize=auto;html=1;exitX=0.5;exitY=1;exitDx=0;exitDy=0;entryX=0.483;entryY=0.106;entryDx=0;entryDy=0;entryPerimeter=0;" parent="1" source="qrhTBZqcDBaqj9OsFunk-13" target="qrhTBZqcDBaqj9OsFunk-29" edge="1">
          <mxGeometry relative="1" as="geometry" />
        </mxCell>
        <mxCell id="qrhTBZqcDBaqj9OsFunk-38" value="" style="endArrow=open;endFill=1;endSize=12;html=1;rounded=0;exitX=0.143;exitY=0.25;exitDx=0;exitDy=0;exitPerimeter=0;fillColor=#f8cecc;strokeColor=#b85450;" parent="1" source="qrhTBZqcDBaqj9OsFunk-7" edge="1">
          <mxGeometry width="160" relative="1" as="geometry">
            <mxPoint x="340" y="350" as="sourcePoint" />
            <mxPoint x="330" y="180" as="targetPoint" />
          </mxGeometry>
        </mxCell>
        <mxCell id="qrhTBZqcDBaqj9OsFunk-39" value="Error&amp;nbsp;Popup message&lt;div&gt;screen&lt;/div&gt;" style="shape=umlBoundary;whiteSpace=wrap;html=1;fillColor=#f8cecc;strokeColor=#b85450;" parent="1" vertex="1">
          <mxGeometry x="270" y="100" width="100" height="80" as="geometry" />
        </mxCell>
        <mxCell id="qrhTBZqcDBaqj9OsFunk-40" value="" style="endArrow=open;endFill=1;endSize=12;html=1;rounded=0;exitX=0.3;exitY=0.875;exitDx=0;exitDy=0;exitPerimeter=0;fillColor=#f8cecc;strokeColor=#b85450;" parent="1" source="qrhTBZqcDBaqj9OsFunk-39" edge="1">
          <mxGeometry width="160" relative="1" as="geometry">
            <mxPoint x="400" y="250" as="sourcePoint" />
            <mxPoint x="230" y="180" as="targetPoint" />
          </mxGeometry>
        </mxCell>
        <mxCell id="qrhTBZqcDBaqj9OsFunk-41" value="Wrong Credentials" style="text;html=1;align=center;verticalAlign=middle;resizable=0;points=[];autosize=1;strokeColor=none;fillColor=none;" parent="1" vertex="1">
          <mxGeometry x="290" y="180" width="120" height="30" as="geometry" />
        </mxCell>
        <mxCell id="qrhTBZqcDBaqj9OsFunk-42" value="" style="endArrow=open;endFill=1;endSize=12;html=1;rounded=0;exitX=0.426;exitY=1.013;exitDx=0;exitDy=0;exitPerimeter=0;fillColor=#f8cecc;strokeColor=#b85450;" parent="1" source="qrhTBZqcDBaqj9OsFunk-30" edge="1">
          <mxGeometry width="160" relative="1" as="geometry">
            <mxPoint x="400" y="250" as="sourcePoint" />
            <mxPoint x="370" y="620" as="targetPoint" />
          </mxGeometry>
        </mxCell>
        <mxCell id="qrhTBZqcDBaqj9OsFunk-43" value="Wrong" style="text;html=1;align=center;verticalAlign=middle;resizable=0;points=[];autosize=1;strokeColor=none;fillColor=none;" parent="1" vertex="1">
          <mxGeometry x="390" y="598" width="60" height="30" as="geometry" />
        </mxCell>
        <mxCell id="qrhTBZqcDBaqj9OsFunk-44" value="Error Popup message&lt;div&gt;screen&lt;/div&gt;" style="shape=umlBoundary;whiteSpace=wrap;html=1;fillColor=#f8cecc;strokeColor=#b85450;" parent="1" vertex="1">
          <mxGeometry x="270" y="598" width="100" height="80" as="geometry" />
        </mxCell>
        <mxCell id="qrhTBZqcDBaqj9OsFunk-45" value="" style="endArrow=open;endFill=1;endSize=12;html=1;rounded=0;exitX=-0.035;exitY=0.451;exitDx=0;exitDy=0;exitPerimeter=0;fillColor=#f8cecc;strokeColor=#b85450;entryX=1.04;entryY=0.461;entryDx=0;entryDy=0;entryPerimeter=0;" parent="1" source="qrhTBZqcDBaqj9OsFunk-44" target="qrhTBZqcDBaqj9OsFunk-48" edge="1">
          <mxGeometry width="160" relative="1" as="geometry">
            <mxPoint x="440" y="591" as="sourcePoint" />
            <mxPoint x="380" y="630" as="targetPoint" />
          </mxGeometry>
        </mxCell>
        <mxCell id="qrhTBZqcDBaqj9OsFunk-46" value="1." style="text;html=1;align=center;verticalAlign=middle;resizable=0;points=[];autosize=1;strokeColor=none;fillColor=none;" parent="1" vertex="1">
          <mxGeometry x="45" y="38" width="30" height="30" as="geometry" />
        </mxCell>
        <mxCell id="qrhTBZqcDBaqj9OsFunk-47" value="Show" style="ellipse;shape=umlControl;whiteSpace=wrap;html=1;fillColor=#f8cecc;strokeColor=#b85450;" parent="1" vertex="1">
          <mxGeometry x="160" y="140" width="70" height="80" as="geometry" />
        </mxCell>
        <mxCell id="qrhTBZqcDBaqj9OsFunk-48" value="Show" style="ellipse;shape=umlControl;whiteSpace=wrap;html=1;fillColor=#f8cecc;strokeColor=#b85450;" parent="1" vertex="1">
          <mxGeometry x="160" y="598" width="70" height="80" as="geometry" />
        </mxCell>
        <mxCell id="qrhTBZqcDBaqj9OsFunk-50" value="" style="endArrow=open;endFill=1;endSize=12;html=1;rounded=0;exitX=0.823;exitY=0.198;exitDx=0;exitDy=0;exitPerimeter=0;fillColor=#f8cecc;strokeColor=#b85450;entryX=0.564;entryY=1.002;entryDx=0;entryDy=0;entryPerimeter=0;" parent="1" source="qrhTBZqcDBaqj9OsFunk-48" target="qrhTBZqcDBaqj9OsFunk-22" edge="1">
          <mxGeometry width="160" relative="1" as="geometry">
            <mxPoint x="440" y="591" as="sourcePoint" />
            <mxPoint x="380" y="630" as="targetPoint" />
          </mxGeometry>
        </mxCell>
        <mxCell id="qrhTBZqcDBaqj9OsFunk-51" value="" style="endArrow=open;endFill=1;endSize=12;html=1;rounded=0;exitX=0.871;exitY=0.944;exitDx=0;exitDy=0;exitPerimeter=0;fillColor=#f8cecc;strokeColor=#b85450;entryX=0.512;entryY=-0.023;entryDx=0;entryDy=0;entryPerimeter=0;" parent="1" source="qrhTBZqcDBaqj9OsFunk-47" target="qrhTBZqcDBaqj9OsFunk-5" edge="1">
          <mxGeometry width="160" relative="1" as="geometry">
            <mxPoint x="310" y="180" as="sourcePoint" />
            <mxPoint x="240" y="190" as="targetPoint" />
          </mxGeometry>
        </mxCell>
        <mxCell id="qrhTBZqcDBaqj9OsFunk-166" style="edgeStyle=none;rounded=0;orthogonalLoop=1;jettySize=auto;html=1;exitX=0.5;exitY=0.5;exitDx=0;exitDy=0;exitPerimeter=0;entryX=-0.025;entryY=0.394;entryDx=0;entryDy=0;entryPerimeter=0;" parent="1" source="qrhTBZqcDBaqj9OsFunk-56" target="qrhTBZqcDBaqj9OsFunk-157" edge="1">
          <mxGeometry relative="1" as="geometry" />
        </mxCell>
        <mxCell id="qrhTBZqcDBaqj9OsFunk-56" value="Moderator" style="shape=umlActor;verticalLabelPosition=bottom;verticalAlign=top;html=1;" parent="1" vertex="1">
          <mxGeometry x="127.5" y="7730" width="30" height="60" as="geometry" />
        </mxCell>
        <mxCell id="qrhTBZqcDBaqj9OsFunk-57" value="Login screen" style="shape=umlBoundary;whiteSpace=wrap;html=1;" parent="1" vertex="1">
          <mxGeometry x="282.5" y="7720" width="100" height="80" as="geometry" />
        </mxCell>
        <mxCell id="qrhTBZqcDBaqj9OsFunk-58" value="Credentials&lt;div&gt;check&lt;/div&gt;" style="ellipse;shape=umlControl;whiteSpace=wrap;html=1;" parent="1" vertex="1">
          <mxGeometry x="472.5" y="7710" width="70" height="80" as="geometry" />
        </mxCell>
        <mxCell id="qrhTBZqcDBaqj9OsFunk-59" style="edgeStyle=none;rounded=0;orthogonalLoop=1;jettySize=auto;html=1;exitX=0.5;exitY=0.5;exitDx=0;exitDy=0;exitPerimeter=0;entryX=-0.04;entryY=0.525;entryDx=0;entryDy=0;entryPerimeter=0;" parent="1" source="qrhTBZqcDBaqj9OsFunk-56" target="qrhTBZqcDBaqj9OsFunk-57" edge="1">
          <mxGeometry relative="1" as="geometry" />
        </mxCell>
        <mxCell id="qrhTBZqcDBaqj9OsFunk-60" value="" style="endArrow=open;endFill=1;endSize=12;html=1;rounded=0;entryX=-0.029;entryY=0.615;entryDx=0;entryDy=0;entryPerimeter=0;" parent="1" target="qrhTBZqcDBaqj9OsFunk-58" edge="1">
          <mxGeometry width="160" relative="1" as="geometry">
            <mxPoint x="383.5" y="7760" as="sourcePoint" />
            <mxPoint x="412.5" y="7880" as="targetPoint" />
          </mxGeometry>
        </mxCell>
        <mxCell id="qrhTBZqcDBaqj9OsFunk-61" value="Types credentials" style="text;html=1;align=center;verticalAlign=middle;resizable=0;points=[];autosize=1;strokeColor=none;fillColor=none;" parent="1" vertex="1">
          <mxGeometry x="157.5" y="7735" width="120" height="30" as="geometry" />
        </mxCell>
        <mxCell id="qrhTBZqcDBaqj9OsFunk-62" value="&lt;div&gt;&lt;span style=&quot;background-color: transparent; color: light-dark(rgb(0, 0, 0), rgb(255, 255, 255));&quot;&gt;Data Base&lt;/span&gt;&lt;/div&gt;" style="ellipse;shape=umlEntity;whiteSpace=wrap;html=1;" parent="1" vertex="1">
          <mxGeometry x="582.5" y="7590" width="80" height="80" as="geometry" />
        </mxCell>
        <mxCell id="qrhTBZqcDBaqj9OsFunk-63" style="edgeStyle=none;rounded=0;orthogonalLoop=1;jettySize=auto;html=1;exitX=0;exitY=1;exitDx=0;exitDy=0;entryX=0.863;entryY=0.24;entryDx=0;entryDy=0;entryPerimeter=0;" parent="1" source="qrhTBZqcDBaqj9OsFunk-62" target="qrhTBZqcDBaqj9OsFunk-58" edge="1">
          <mxGeometry relative="1" as="geometry" />
        </mxCell>
        <mxCell id="qrhTBZqcDBaqj9OsFunk-64" value="" style="endArrow=open;endFill=1;endSize=12;html=1;rounded=0;exitX=0.143;exitY=0.25;exitDx=0;exitDy=0;exitPerimeter=0;fillColor=#f8cecc;strokeColor=#b85450;" parent="1" source="qrhTBZqcDBaqj9OsFunk-58" edge="1">
          <mxGeometry width="160" relative="1" as="geometry">
            <mxPoint x="432.5" y="7840" as="sourcePoint" />
            <mxPoint x="422.5" y="7670" as="targetPoint" />
          </mxGeometry>
        </mxCell>
        <mxCell id="qrhTBZqcDBaqj9OsFunk-65" value="Error&amp;nbsp;Popup message&lt;div&gt;screen&lt;/div&gt;" style="shape=umlBoundary;whiteSpace=wrap;html=1;fillColor=#f8cecc;strokeColor=#b85450;" parent="1" vertex="1">
          <mxGeometry x="362.5" y="7590" width="100" height="80" as="geometry" />
        </mxCell>
        <mxCell id="qrhTBZqcDBaqj9OsFunk-66" value="" style="endArrow=open;endFill=1;endSize=12;html=1;rounded=0;exitX=0.3;exitY=0.875;exitDx=0;exitDy=0;exitPerimeter=0;fillColor=#f8cecc;strokeColor=#b85450;" parent="1" source="qrhTBZqcDBaqj9OsFunk-65" edge="1">
          <mxGeometry width="160" relative="1" as="geometry">
            <mxPoint x="492.5" y="7740" as="sourcePoint" />
            <mxPoint x="322.5" y="7670" as="targetPoint" />
          </mxGeometry>
        </mxCell>
        <mxCell id="qrhTBZqcDBaqj9OsFunk-67" value="Wrong Credentials" style="text;html=1;align=center;verticalAlign=middle;resizable=0;points=[];autosize=1;strokeColor=none;fillColor=none;" parent="1" vertex="1">
          <mxGeometry x="382.5" y="7670" width="120" height="30" as="geometry" />
        </mxCell>
        <mxCell id="qrhTBZqcDBaqj9OsFunk-68" value="Show" style="ellipse;shape=umlControl;whiteSpace=wrap;html=1;fillColor=#f8cecc;strokeColor=#b85450;" parent="1" vertex="1">
          <mxGeometry x="252.5" y="7630" width="70" height="80" as="geometry" />
        </mxCell>
        <mxCell id="qrhTBZqcDBaqj9OsFunk-69" value="" style="endArrow=open;endFill=1;endSize=12;html=1;rounded=0;exitX=0.871;exitY=0.944;exitDx=0;exitDy=0;exitPerimeter=0;fillColor=#f8cecc;strokeColor=#b85450;entryX=0.512;entryY=-0.023;entryDx=0;entryDy=0;entryPerimeter=0;" parent="1" source="qrhTBZqcDBaqj9OsFunk-68" target="qrhTBZqcDBaqj9OsFunk-57" edge="1">
          <mxGeometry width="160" relative="1" as="geometry">
            <mxPoint x="402.5" y="7670" as="sourcePoint" />
            <mxPoint x="332.5" y="7680" as="targetPoint" />
          </mxGeometry>
        </mxCell>
        <mxCell id="qrhTBZqcDBaqj9OsFunk-80" value="" style="edgeStyle=none;rounded=0;orthogonalLoop=1;jettySize=auto;html=1;" parent="1" source="qrhTBZqcDBaqj9OsFunk-72" edge="1">
          <mxGeometry relative="1" as="geometry">
            <mxPoint x="387.3004655776747" y="7989.022040678874" as="targetPoint" />
          </mxGeometry>
        </mxCell>
        <mxCell id="qrhTBZqcDBaqj9OsFunk-72" value="Show" style="ellipse;shape=umlControl;whiteSpace=wrap;html=1;" parent="1" vertex="1">
          <mxGeometry x="482.5" y="7857" width="70" height="80" as="geometry" />
        </mxCell>
        <mxCell id="qrhTBZqcDBaqj9OsFunk-73" value="" style="edgeStyle=none;rounded=0;orthogonalLoop=1;jettySize=auto;html=1;" parent="1" edge="1">
          <mxGeometry relative="1" as="geometry">
            <mxPoint x="478.5" y="7770" as="sourcePoint" />
            <mxPoint x="372.5" y="7857" as="targetPoint" />
          </mxGeometry>
        </mxCell>
        <mxCell id="qrhTBZqcDBaqj9OsFunk-74" value="" style="edgeStyle=none;rounded=0;orthogonalLoop=1;jettySize=auto;html=1;" parent="1" source="qrhTBZqcDBaqj9OsFunk-75" edge="1">
          <mxGeometry relative="1" as="geometry">
            <mxPoint x="482.5" y="7897" as="targetPoint" />
          </mxGeometry>
        </mxCell>
        <mxCell id="qrhTBZqcDBaqj9OsFunk-75" value="Moderator menu&lt;div&gt;screen&lt;/div&gt;" style="shape=umlBoundary;whiteSpace=wrap;html=1;" parent="1" vertex="1">
          <mxGeometry x="302.5" y="7857" width="100" height="80" as="geometry" />
        </mxCell>
        <mxCell id="qrhTBZqcDBaqj9OsFunk-78" style="edgeStyle=none;rounded=0;orthogonalLoop=1;jettySize=auto;html=1;exitX=0.5;exitY=0.5;exitDx=0;exitDy=0;exitPerimeter=0;entryX=-0.025;entryY=0.532;entryDx=0;entryDy=0;entryPerimeter=0;" parent="1" source="qrhTBZqcDBaqj9OsFunk-56" target="qrhTBZqcDBaqj9OsFunk-75" edge="1">
          <mxGeometry relative="1" as="geometry" />
        </mxCell>
        <mxCell id="qrhTBZqcDBaqj9OsFunk-86" value="" style="edgeStyle=none;rounded=0;orthogonalLoop=1;jettySize=auto;html=1;" parent="1" source="qrhTBZqcDBaqj9OsFunk-81" edge="1">
          <mxGeometry relative="1" as="geometry">
            <mxPoint x="482.5" y="8020" as="targetPoint" />
          </mxGeometry>
        </mxCell>
        <mxCell id="qrhTBZqcDBaqj9OsFunk-81" value="Report menu&lt;div&gt;screen&lt;/div&gt;" style="shape=umlBoundary;whiteSpace=wrap;html=1;" parent="1" vertex="1">
          <mxGeometry x="302.5" y="7980" width="100" height="80" as="geometry" />
        </mxCell>
        <mxCell id="qrhTBZqcDBaqj9OsFunk-82" style="edgeStyle=none;rounded=0;orthogonalLoop=1;jettySize=auto;html=1;exitX=0.5;exitY=0.5;exitDx=0;exitDy=0;exitPerimeter=0;entryX=-0.025;entryY=0.52;entryDx=0;entryDy=0;entryPerimeter=0;" parent="1" source="qrhTBZqcDBaqj9OsFunk-56" target="qrhTBZqcDBaqj9OsFunk-81" edge="1">
          <mxGeometry relative="1" as="geometry" />
        </mxCell>
        <mxCell id="qrhTBZqcDBaqj9OsFunk-83" value="Report List" style="text;html=1;align=center;verticalAlign=middle;resizable=0;points=[];autosize=1;strokeColor=none;fillColor=none;" parent="1" vertex="1">
          <mxGeometry x="212.5" y="7810" width="80" height="30" as="geometry" />
        </mxCell>
        <mxCell id="qrhTBZqcDBaqj9OsFunk-100" value="" style="edgeStyle=none;rounded=0;orthogonalLoop=1;jettySize=auto;html=1;fillColor=#f8cecc;strokeColor=#b85450;exitX=0.985;exitY=0.225;exitDx=0;exitDy=0;exitPerimeter=0;" parent="1" source="qrhTBZqcDBaqj9OsFunk-157" target="qrhTBZqcDBaqj9OsFunk-99" edge="1">
          <mxGeometry relative="1" as="geometry" />
        </mxCell>
        <mxCell id="qrhTBZqcDBaqj9OsFunk-87" value="Show" style="ellipse;shape=umlControl;whiteSpace=wrap;html=1;" parent="1" vertex="1">
          <mxGeometry x="482.5" y="7980" width="70" height="80" as="geometry" />
        </mxCell>
        <mxCell id="qrhTBZqcDBaqj9OsFunk-88" value="Checks reports" style="text;html=1;align=center;verticalAlign=middle;resizable=0;points=[];autosize=1;strokeColor=none;fillColor=none;" parent="1" vertex="1">
          <mxGeometry x="232.5" y="7940" width="100" height="30" as="geometry" />
        </mxCell>
        <mxCell id="qrhTBZqcDBaqj9OsFunk-91" value="Block User" style="ellipse;shape=umlControl;whiteSpace=wrap;html=1;" parent="1" vertex="1">
          <mxGeometry x="702.5" y="8060" width="70" height="80" as="geometry" />
        </mxCell>
        <mxCell id="qrhTBZqcDBaqj9OsFunk-98" value="Approved Report" style="text;html=1;align=center;verticalAlign=middle;resizable=0;points=[];autosize=1;strokeColor=none;fillColor=none;" parent="1" vertex="1">
          <mxGeometry x="482.5" y="8135" width="110" height="30" as="geometry" />
        </mxCell>
        <mxCell id="qrhTBZqcDBaqj9OsFunk-99" value="Delete report" style="ellipse;shape=umlControl;whiteSpace=wrap;html=1;fillColor=#f8cecc;strokeColor=#b85450;" parent="1" vertex="1">
          <mxGeometry x="602.5" y="8010" width="70" height="80" as="geometry" />
        </mxCell>
        <mxCell id="qrhTBZqcDBaqj9OsFunk-101" value="Moderator" style="shape=umlActor;verticalLabelPosition=bottom;verticalAlign=top;html=1;" parent="1" vertex="1">
          <mxGeometry x="112.5" y="8530" width="30" height="60" as="geometry" />
        </mxCell>
        <mxCell id="qrhTBZqcDBaqj9OsFunk-102" value="Login screen" style="shape=umlBoundary;whiteSpace=wrap;html=1;" parent="1" vertex="1">
          <mxGeometry x="312.5" y="8470" width="100" height="80" as="geometry" />
        </mxCell>
        <mxCell id="qrhTBZqcDBaqj9OsFunk-103" value="Credentials&lt;div&gt;check&lt;/div&gt;" style="ellipse;shape=umlControl;whiteSpace=wrap;html=1;" parent="1" vertex="1">
          <mxGeometry x="502.5" y="8460" width="70" height="80" as="geometry" />
        </mxCell>
        <mxCell id="qrhTBZqcDBaqj9OsFunk-104" style="edgeStyle=none;rounded=0;orthogonalLoop=1;jettySize=auto;html=1;exitX=0.5;exitY=0.5;exitDx=0;exitDy=0;exitPerimeter=0;entryX=-0.04;entryY=0.525;entryDx=0;entryDy=0;entryPerimeter=0;" parent="1" source="qrhTBZqcDBaqj9OsFunk-101" target="qrhTBZqcDBaqj9OsFunk-102" edge="1">
          <mxGeometry relative="1" as="geometry" />
        </mxCell>
        <mxCell id="qrhTBZqcDBaqj9OsFunk-105" value="" style="endArrow=open;endFill=1;endSize=12;html=1;rounded=0;entryX=-0.029;entryY=0.615;entryDx=0;entryDy=0;entryPerimeter=0;" parent="1" target="qrhTBZqcDBaqj9OsFunk-103" edge="1">
          <mxGeometry width="160" relative="1" as="geometry">
            <mxPoint x="413.5" y="8510" as="sourcePoint" />
            <mxPoint x="442.5" y="8630" as="targetPoint" />
          </mxGeometry>
        </mxCell>
        <mxCell id="qrhTBZqcDBaqj9OsFunk-106" value="Types credentials" style="text;html=1;align=center;verticalAlign=middle;resizable=0;points=[];autosize=1;strokeColor=none;fillColor=none;" parent="1" vertex="1">
          <mxGeometry x="187.5" y="8485" width="120" height="30" as="geometry" />
        </mxCell>
        <mxCell id="qrhTBZqcDBaqj9OsFunk-107" value="&lt;div&gt;&lt;span style=&quot;background-color: transparent; color: light-dark(rgb(0, 0, 0), rgb(255, 255, 255));&quot;&gt;Data Base&lt;/span&gt;&lt;/div&gt;" style="ellipse;shape=umlEntity;whiteSpace=wrap;html=1;" parent="1" vertex="1">
          <mxGeometry x="612.5" y="8340" width="80" height="80" as="geometry" />
        </mxCell>
        <mxCell id="qrhTBZqcDBaqj9OsFunk-108" style="edgeStyle=none;rounded=0;orthogonalLoop=1;jettySize=auto;html=1;exitX=0;exitY=1;exitDx=0;exitDy=0;entryX=0.863;entryY=0.24;entryDx=0;entryDy=0;entryPerimeter=0;" parent="1" source="qrhTBZqcDBaqj9OsFunk-107" target="qrhTBZqcDBaqj9OsFunk-103" edge="1">
          <mxGeometry relative="1" as="geometry" />
        </mxCell>
        <mxCell id="qrhTBZqcDBaqj9OsFunk-109" value="" style="endArrow=open;endFill=1;endSize=12;html=1;rounded=0;exitX=0.143;exitY=0.25;exitDx=0;exitDy=0;exitPerimeter=0;fillColor=#f8cecc;strokeColor=#b85450;" parent="1" source="qrhTBZqcDBaqj9OsFunk-103" edge="1">
          <mxGeometry width="160" relative="1" as="geometry">
            <mxPoint x="462.5" y="8590" as="sourcePoint" />
            <mxPoint x="452.5" y="8420" as="targetPoint" />
          </mxGeometry>
        </mxCell>
        <mxCell id="qrhTBZqcDBaqj9OsFunk-110" value="Error&amp;nbsp;Popup message&lt;div&gt;screen&lt;/div&gt;" style="shape=umlBoundary;whiteSpace=wrap;html=1;fillColor=#f8cecc;strokeColor=#b85450;" parent="1" vertex="1">
          <mxGeometry x="392.5" y="8340" width="100" height="80" as="geometry" />
        </mxCell>
        <mxCell id="qrhTBZqcDBaqj9OsFunk-111" value="" style="endArrow=open;endFill=1;endSize=12;html=1;rounded=0;exitX=0.3;exitY=0.875;exitDx=0;exitDy=0;exitPerimeter=0;fillColor=#f8cecc;strokeColor=#b85450;" parent="1" source="qrhTBZqcDBaqj9OsFunk-110" edge="1">
          <mxGeometry width="160" relative="1" as="geometry">
            <mxPoint x="522.5" y="8490" as="sourcePoint" />
            <mxPoint x="352.5" y="8420" as="targetPoint" />
          </mxGeometry>
        </mxCell>
        <mxCell id="qrhTBZqcDBaqj9OsFunk-112" value="Wrong Credentials" style="text;html=1;align=center;verticalAlign=middle;resizable=0;points=[];autosize=1;strokeColor=none;fillColor=none;" parent="1" vertex="1">
          <mxGeometry x="412.5" y="8420" width="120" height="30" as="geometry" />
        </mxCell>
        <mxCell id="qrhTBZqcDBaqj9OsFunk-113" value="Show" style="ellipse;shape=umlControl;whiteSpace=wrap;html=1;fillColor=#f8cecc;strokeColor=#b85450;" parent="1" vertex="1">
          <mxGeometry x="282.5" y="8380" width="70" height="80" as="geometry" />
        </mxCell>
        <mxCell id="qrhTBZqcDBaqj9OsFunk-114" value="" style="endArrow=open;endFill=1;endSize=12;html=1;rounded=0;exitX=0.871;exitY=0.944;exitDx=0;exitDy=0;exitPerimeter=0;fillColor=#f8cecc;strokeColor=#b85450;entryX=0.512;entryY=-0.023;entryDx=0;entryDy=0;entryPerimeter=0;" parent="1" source="qrhTBZqcDBaqj9OsFunk-113" target="qrhTBZqcDBaqj9OsFunk-102" edge="1">
          <mxGeometry width="160" relative="1" as="geometry">
            <mxPoint x="432.5" y="8420" as="sourcePoint" />
            <mxPoint x="362.5" y="8430" as="targetPoint" />
          </mxGeometry>
        </mxCell>
        <mxCell id="qrhTBZqcDBaqj9OsFunk-123" value="" style="edgeStyle=none;rounded=0;orthogonalLoop=1;jettySize=auto;html=1;" parent="1" source="qrhTBZqcDBaqj9OsFunk-115" edge="1">
          <mxGeometry relative="1" as="geometry">
            <mxPoint x="416.5355711666791" y="8747.6649452564" as="targetPoint" />
          </mxGeometry>
        </mxCell>
        <mxCell id="qrhTBZqcDBaqj9OsFunk-115" value="Show" style="ellipse;shape=umlControl;whiteSpace=wrap;html=1;" parent="1" vertex="1">
          <mxGeometry x="512.5" y="8607" width="70" height="80" as="geometry" />
        </mxCell>
        <mxCell id="qrhTBZqcDBaqj9OsFunk-116" value="" style="edgeStyle=none;rounded=0;orthogonalLoop=1;jettySize=auto;html=1;" parent="1" edge="1">
          <mxGeometry relative="1" as="geometry">
            <mxPoint x="508.5" y="8520" as="sourcePoint" />
            <mxPoint x="402.5" y="8607" as="targetPoint" />
          </mxGeometry>
        </mxCell>
        <mxCell id="qrhTBZqcDBaqj9OsFunk-117" value="" style="edgeStyle=none;rounded=0;orthogonalLoop=1;jettySize=auto;html=1;" parent="1" source="qrhTBZqcDBaqj9OsFunk-118" edge="1">
          <mxGeometry relative="1" as="geometry">
            <mxPoint x="512.5" y="8647" as="targetPoint" />
          </mxGeometry>
        </mxCell>
        <mxCell id="qrhTBZqcDBaqj9OsFunk-118" value="Moderator menu" style="shape=umlBoundary;whiteSpace=wrap;html=1;" parent="1" vertex="1">
          <mxGeometry x="332.5" y="8607" width="100" height="80" as="geometry" />
        </mxCell>
        <mxCell id="qrhTBZqcDBaqj9OsFunk-119" style="edgeStyle=none;rounded=0;orthogonalLoop=1;jettySize=auto;html=1;exitX=0.5;exitY=0.5;exitDx=0;exitDy=0;exitPerimeter=0;entryX=-0.025;entryY=0.532;entryDx=0;entryDy=0;entryPerimeter=0;" parent="1" source="qrhTBZqcDBaqj9OsFunk-101" target="qrhTBZqcDBaqj9OsFunk-118" edge="1">
          <mxGeometry relative="1" as="geometry" />
        </mxCell>
        <mxCell id="qrhTBZqcDBaqj9OsFunk-120" value="Report List" style="text;html=1;align=center;verticalAlign=middle;resizable=0;points=[];autosize=1;strokeColor=none;fillColor=none;" parent="1" vertex="1">
          <mxGeometry x="227.5" y="8590" width="80" height="30" as="geometry" />
        </mxCell>
        <mxCell id="qrhTBZqcDBaqj9OsFunk-128" value="" style="edgeStyle=none;rounded=0;orthogonalLoop=1;jettySize=auto;html=1;" parent="1" source="qrhTBZqcDBaqj9OsFunk-124" edge="1">
          <mxGeometry relative="1" as="geometry">
            <mxPoint x="512.5" y="8780" as="targetPoint" />
          </mxGeometry>
        </mxCell>
        <mxCell id="qrhTBZqcDBaqj9OsFunk-124" value="User List&lt;div&gt;screen&lt;/div&gt;" style="shape=umlBoundary;whiteSpace=wrap;html=1;" parent="1" vertex="1">
          <mxGeometry x="332.5" y="8740" width="100" height="80" as="geometry" />
        </mxCell>
        <mxCell id="qrhTBZqcDBaqj9OsFunk-125" style="edgeStyle=none;rounded=0;orthogonalLoop=1;jettySize=auto;html=1;exitX=0.5;exitY=0.5;exitDx=0;exitDy=0;exitPerimeter=0;entryX=-0.032;entryY=0.472;entryDx=0;entryDy=0;entryPerimeter=0;" parent="1" source="qrhTBZqcDBaqj9OsFunk-101" target="qrhTBZqcDBaqj9OsFunk-124" edge="1">
          <mxGeometry relative="1" as="geometry" />
        </mxCell>
        <mxCell id="qrhTBZqcDBaqj9OsFunk-126" value="&amp;nbsp;Picks a User&amp;nbsp;" style="text;html=1;align=center;verticalAlign=middle;resizable=0;points=[];autosize=1;strokeColor=none;fillColor=none;" parent="1" vertex="1">
          <mxGeometry x="267.5" y="8710" width="100" height="30" as="geometry" />
        </mxCell>
        <mxCell id="qrhTBZqcDBaqj9OsFunk-131" value="" style="edgeStyle=none;rounded=0;orthogonalLoop=1;jettySize=auto;html=1;exitX=0.543;exitY=0.983;exitDx=0;exitDy=0;exitPerimeter=0;" parent="1" source="qrhTBZqcDBaqj9OsFunk-129" edge="1">
          <mxGeometry relative="1" as="geometry">
            <mxPoint x="582.5" y="8780" as="sourcePoint" />
            <mxPoint x="412.5" y="8860" as="targetPoint" />
          </mxGeometry>
        </mxCell>
        <mxCell id="qrhTBZqcDBaqj9OsFunk-129" value="Show&lt;div&gt;History&lt;/div&gt;" style="ellipse;shape=umlControl;whiteSpace=wrap;html=1;" parent="1" vertex="1">
          <mxGeometry x="512.5" y="8740" width="70" height="80" as="geometry" />
        </mxCell>
        <mxCell id="qrhTBZqcDBaqj9OsFunk-132" style="edgeStyle=none;rounded=0;orthogonalLoop=1;jettySize=auto;html=1;exitX=0.5;exitY=1;exitDx=0;exitDy=0;entryX=0.798;entryY=0.161;entryDx=0;entryDy=0;entryPerimeter=0;" parent="1" source="qrhTBZqcDBaqj9OsFunk-107" target="qrhTBZqcDBaqj9OsFunk-129" edge="1">
          <mxGeometry relative="1" as="geometry" />
        </mxCell>
        <mxCell id="qrhTBZqcDBaqj9OsFunk-133" value="10." style="text;html=1;align=center;verticalAlign=middle;resizable=0;points=[];autosize=1;strokeColor=none;fillColor=none;" parent="1" vertex="1">
          <mxGeometry x="122.5" y="7608" width="40" height="30" as="geometry" />
        </mxCell>
        <mxCell id="qrhTBZqcDBaqj9OsFunk-134" value="11." style="text;html=1;align=center;verticalAlign=middle;resizable=0;points=[];autosize=1;strokeColor=none;fillColor=none;" parent="1" vertex="1">
          <mxGeometry x="82.5" y="8340" width="40" height="30" as="geometry" />
        </mxCell>
        <mxCell id="qrhTBZqcDBaqj9OsFunk-143" value="" style="edgeStyle=none;rounded=0;orthogonalLoop=1;jettySize=auto;html=1;entryX=-0.043;entryY=0.619;entryDx=0;entryDy=0;entryPerimeter=0;" parent="1" edge="1">
          <mxGeometry relative="1" as="geometry">
            <mxPoint x="435.5100000000002" y="8892.479295796657" as="sourcePoint" />
            <mxPoint x="577.4999999999998" y="8899.52" as="targetPoint" />
          </mxGeometry>
        </mxCell>
        <mxCell id="qrhTBZqcDBaqj9OsFunk-135" value="Profile&amp;nbsp;&lt;div&gt;History&amp;nbsp;&lt;/div&gt;&lt;div&gt;screen&lt;/div&gt;" style="shape=umlBoundary;whiteSpace=wrap;html=1;" parent="1" vertex="1">
          <mxGeometry x="332.5" y="8860" width="100" height="80" as="geometry" />
        </mxCell>
        <mxCell id="qrhTBZqcDBaqj9OsFunk-138" style="edgeStyle=none;rounded=0;orthogonalLoop=1;jettySize=auto;html=1;exitX=0.5;exitY=0.5;exitDx=0;exitDy=0;exitPerimeter=0;entryX=-0.024;entryY=0.464;entryDx=0;entryDy=0;entryPerimeter=0;" parent="1" source="qrhTBZqcDBaqj9OsFunk-101" target="qrhTBZqcDBaqj9OsFunk-135" edge="1">
          <mxGeometry relative="1" as="geometry" />
        </mxCell>
        <mxCell id="qrhTBZqcDBaqj9OsFunk-140" value="Disapprove report" style="text;html=1;align=center;verticalAlign=middle;resizable=0;points=[];autosize=1;fontColor=#FF0000;" parent="1" vertex="1">
          <mxGeometry x="467.5" y="8085" width="120" height="30" as="geometry" />
        </mxCell>
        <mxCell id="qrhTBZqcDBaqj9OsFunk-141" value="Judges profile history" style="text;html=1;align=center;verticalAlign=middle;resizable=0;points=[];autosize=1;strokeColor=none;fillColor=none;" parent="1" vertex="1">
          <mxGeometry x="132.5" y="8720" width="140" height="30" as="geometry" />
        </mxCell>
        <mxCell id="qrhTBZqcDBaqj9OsFunk-144" value="Deletes user" style="text;html=1;align=center;verticalAlign=middle;resizable=0;points=[];autosize=1;strokeColor=none;fillColor=none;" parent="1" vertex="1">
          <mxGeometry x="462.5" y="8875" width="90" height="30" as="geometry" />
        </mxCell>
        <mxCell id="qrhTBZqcDBaqj9OsFunk-145" style="edgeStyle=none;rounded=0;orthogonalLoop=1;jettySize=auto;html=1;exitX=0.278;exitY=0.164;exitDx=0;exitDy=0;entryX=0.73;entryY=0.986;entryDx=0;entryDy=0;entryPerimeter=0;exitPerimeter=0;" parent="1" source="qrhTBZqcDBaqj9OsFunk-91" target="qrhTBZqcDBaqj9OsFunk-62" edge="1">
          <mxGeometry relative="1" as="geometry">
            <mxPoint x="688.58" y="7530" as="sourcePoint" />
            <mxPoint x="807.5000000000001" y="7932" as="targetPoint" />
          </mxGeometry>
        </mxCell>
        <mxCell id="qrhTBZqcDBaqj9OsFunk-146" value="User deleted" style="ellipse;shape=umlControl;whiteSpace=wrap;html=1;" parent="1" vertex="1">
          <mxGeometry x="577.5" y="8850" width="70" height="80" as="geometry" />
        </mxCell>
        <mxCell id="qrhTBZqcDBaqj9OsFunk-148" style="edgeStyle=none;rounded=0;orthogonalLoop=1;jettySize=auto;html=1;exitX=1;exitY=1;exitDx=0;exitDy=0;entryX=0.567;entryY=0.086;entryDx=0;entryDy=0;entryPerimeter=0;" parent="1" source="qrhTBZqcDBaqj9OsFunk-107" target="qrhTBZqcDBaqj9OsFunk-146" edge="1">
          <mxGeometry relative="1" as="geometry" />
        </mxCell>
        <mxCell id="qrhTBZqcDBaqj9OsFunk-149" value="" style="edgeStyle=none;rounded=0;orthogonalLoop=1;jettySize=auto;html=1;fillColor=#f8cecc;strokeColor=#b85450;" parent="1" target="qrhTBZqcDBaqj9OsFunk-150" edge="1">
          <mxGeometry relative="1" as="geometry">
            <mxPoint x="397.5" y="8930" as="sourcePoint" />
          </mxGeometry>
        </mxCell>
        <mxCell id="qrhTBZqcDBaqj9OsFunk-150" value="Sends user to bottom of list&amp;nbsp;" style="ellipse;shape=umlControl;whiteSpace=wrap;html=1;fillColor=#f8cecc;strokeColor=#b85450;" parent="1" vertex="1">
          <mxGeometry x="282.5" y="8930" width="70" height="80" as="geometry" />
        </mxCell>
        <mxCell id="qrhTBZqcDBaqj9OsFunk-151" value="&lt;font style=&quot;color: rgb(255, 0, 0);&quot;&gt;Does not delete user&lt;/font&gt;" style="text;html=1;align=center;verticalAlign=middle;resizable=0;points=[];autosize=1;strokeColor=none;fillColor=none;" parent="1" vertex="1">
          <mxGeometry x="382.5" y="8940" width="130" height="30" as="geometry" />
        </mxCell>
        <mxCell id="qrhTBZqcDBaqj9OsFunk-152" value="Show" style="ellipse;shape=umlControl;whiteSpace=wrap;html=1;fillColor=#f8cecc;strokeColor=#b85450;" parent="1" vertex="1">
          <mxGeometry x="157.5" y="8860" width="70" height="80" as="geometry" />
        </mxCell>
        <mxCell id="qrhTBZqcDBaqj9OsFunk-153" value="" style="edgeStyle=none;rounded=0;orthogonalLoop=1;jettySize=auto;html=1;exitX=0.054;exitY=0.283;exitDx=0;exitDy=0;exitPerimeter=0;entryX=1.032;entryY=0.617;entryDx=0;entryDy=0;entryPerimeter=0;fillColor=#f8cecc;strokeColor=#b85450;" parent="1" source="qrhTBZqcDBaqj9OsFunk-150" target="qrhTBZqcDBaqj9OsFunk-152" edge="1">
          <mxGeometry relative="1" as="geometry">
            <mxPoint x="560.5" y="8829" as="sourcePoint" />
            <mxPoint x="422.5" y="8870" as="targetPoint" />
          </mxGeometry>
        </mxCell>
        <mxCell id="qrhTBZqcDBaqj9OsFunk-154" value="" style="edgeStyle=none;rounded=0;orthogonalLoop=1;jettySize=auto;html=1;entryX=0.376;entryY=0.983;entryDx=0;entryDy=0;entryPerimeter=0;fillColor=#f8cecc;strokeColor=#b85450;" parent="1" source="qrhTBZqcDBaqj9OsFunk-152" target="qrhTBZqcDBaqj9OsFunk-124" edge="1">
          <mxGeometry relative="1" as="geometry">
            <mxPoint x="570.5" y="8839" as="sourcePoint" />
            <mxPoint x="432.5" y="8880" as="targetPoint" />
          </mxGeometry>
        </mxCell>
        <mxCell id="qrhTBZqcDBaqj9OsFunk-155" value="" style="edgeStyle=none;rounded=0;orthogonalLoop=1;jettySize=auto;html=1;exitX=0.264;exitY=0.95;exitDx=0;exitDy=0;exitPerimeter=0;entryX=0.665;entryY=0.013;entryDx=0;entryDy=0;entryPerimeter=0;" parent="1" source="qrhTBZqcDBaqj9OsFunk-87" target="qrhTBZqcDBaqj9OsFunk-157" edge="1">
          <mxGeometry relative="1" as="geometry">
            <mxPoint x="505.5" y="8044.5" as="sourcePoint" />
            <mxPoint x="367.5" y="8085.5" as="targetPoint" />
          </mxGeometry>
        </mxCell>
        <mxCell id="qrhTBZqcDBaqj9OsFunk-169" value="" style="edgeStyle=none;rounded=0;orthogonalLoop=1;jettySize=auto;html=1;entryX=0.021;entryY=0.725;entryDx=0;entryDy=0;entryPerimeter=0;" parent="1" source="qrhTBZqcDBaqj9OsFunk-157" target="qrhTBZqcDBaqj9OsFunk-91" edge="1">
          <mxGeometry relative="1" as="geometry">
            <mxPoint x="482.5" y="8125.5" as="targetPoint" />
          </mxGeometry>
        </mxCell>
        <mxCell id="qrhTBZqcDBaqj9OsFunk-157" value="&lt;div&gt;Report&amp;nbsp;&lt;/div&gt;&lt;div&gt;screen&lt;/div&gt;" style="shape=umlBoundary;whiteSpace=wrap;html=1;" parent="1" vertex="1">
          <mxGeometry x="262.5" y="8140" width="100" height="80" as="geometry" />
        </mxCell>
        <mxCell id="qrhTBZqcDBaqj9OsFunk-163" value="Show" style="ellipse;shape=umlControl;whiteSpace=wrap;html=1;fillColor=#f8cecc;strokeColor=#b85450;" parent="1" vertex="1">
          <mxGeometry x="572.5" y="7895" width="70" height="80" as="geometry" />
        </mxCell>
        <mxCell id="qrhTBZqcDBaqj9OsFunk-164" value="" style="edgeStyle=none;rounded=0;orthogonalLoop=1;jettySize=auto;html=1;exitX=0.243;exitY=0.229;exitDx=0;exitDy=0;exitPerimeter=0;entryX=0.55;entryY=1;entryDx=0;entryDy=0;entryPerimeter=0;fillColor=#f8cecc;strokeColor=#b85450;" parent="1" source="qrhTBZqcDBaqj9OsFunk-99" target="qrhTBZqcDBaqj9OsFunk-163" edge="1">
          <mxGeometry relative="1" as="geometry">
            <mxPoint x="980.5" y="8054.5" as="sourcePoint" />
            <mxPoint x="842.5" y="8095.5" as="targetPoint" />
          </mxGeometry>
        </mxCell>
        <mxCell id="qrhTBZqcDBaqj9OsFunk-165" value="" style="edgeStyle=none;rounded=0;orthogonalLoop=1;jettySize=auto;html=1;entryX=1.005;entryY=0.338;entryDx=0;entryDy=0;entryPerimeter=0;fillColor=#f8cecc;strokeColor=#b85450;" parent="1" source="qrhTBZqcDBaqj9OsFunk-163" target="qrhTBZqcDBaqj9OsFunk-81" edge="1">
          <mxGeometry relative="1" as="geometry">
            <mxPoint x="1096.5" y="8054.5" as="sourcePoint" />
            <mxPoint x="896.5" y="8034.5" as="targetPoint" />
          </mxGeometry>
        </mxCell>
        <mxCell id="qrhTBZqcDBaqj9OsFunk-167" value="Judges Report" style="text;html=1;align=center;verticalAlign=middle;resizable=0;points=[];autosize=1;strokeColor=none;fillColor=none;" parent="1" vertex="1">
          <mxGeometry x="122.5" y="7920" width="100" height="30" as="geometry" />
        </mxCell>
        <mxCell id="qrhTBZqcDBaqj9OsFunk-261" value="7." style="text;html=1;align=center;verticalAlign=middle;resizable=0;points=[];autosize=1;strokeColor=none;fillColor=none;" parent="1" vertex="1">
          <mxGeometry x="50" y="5380" width="30" height="30" as="geometry" />
        </mxCell>
        <mxCell id="qrhTBZqcDBaqj9OsFunk-263" value="Show" style="ellipse;shape=umlControl;whiteSpace=wrap;html=1;" parent="1" vertex="1">
          <mxGeometry x="445" y="5630" width="70" height="80" as="geometry" />
        </mxCell>
        <mxCell id="qrhTBZqcDBaqj9OsFunk-264" value="Lost Item Owner" style="shape=umlActor;verticalLabelPosition=bottom;verticalAlign=top;html=1;" parent="1" vertex="1">
          <mxGeometry x="80" y="5660" width="30" height="60" as="geometry" />
        </mxCell>
        <mxCell id="qrhTBZqcDBaqj9OsFunk-265" value="Login screen" style="shape=umlBoundary;whiteSpace=wrap;html=1;" parent="1" vertex="1">
          <mxGeometry x="245" y="5490" width="100" height="80" as="geometry" />
        </mxCell>
        <mxCell id="qrhTBZqcDBaqj9OsFunk-266" value="" style="edgeStyle=none;rounded=0;orthogonalLoop=1;jettySize=auto;html=1;" parent="1" source="qrhTBZqcDBaqj9OsFunk-267" edge="1">
          <mxGeometry relative="1" as="geometry">
            <mxPoint x="335" y="5630" as="targetPoint" />
          </mxGeometry>
        </mxCell>
        <mxCell id="qrhTBZqcDBaqj9OsFunk-267" value="Credentials&lt;div&gt;check&lt;/div&gt;" style="ellipse;shape=umlControl;whiteSpace=wrap;html=1;" parent="1" vertex="1">
          <mxGeometry x="435" y="5480" width="70" height="80" as="geometry" />
        </mxCell>
        <mxCell id="qrhTBZqcDBaqj9OsFunk-268" style="edgeStyle=none;rounded=0;orthogonalLoop=1;jettySize=auto;html=1;exitX=0.5;exitY=0.5;exitDx=0;exitDy=0;exitPerimeter=0;entryX=-0.04;entryY=0.525;entryDx=0;entryDy=0;entryPerimeter=0;" parent="1" source="qrhTBZqcDBaqj9OsFunk-264" target="qrhTBZqcDBaqj9OsFunk-265" edge="1">
          <mxGeometry relative="1" as="geometry" />
        </mxCell>
        <mxCell id="qrhTBZqcDBaqj9OsFunk-269" value="" style="endArrow=open;endFill=1;endSize=12;html=1;rounded=0;entryX=-0.029;entryY=0.615;entryDx=0;entryDy=0;entryPerimeter=0;" parent="1" target="qrhTBZqcDBaqj9OsFunk-267" edge="1">
          <mxGeometry width="160" relative="1" as="geometry">
            <mxPoint x="346" y="5530" as="sourcePoint" />
            <mxPoint x="375" y="5650" as="targetPoint" />
          </mxGeometry>
        </mxCell>
        <mxCell id="qrhTBZqcDBaqj9OsFunk-270" value="Types credentials" style="text;html=1;align=center;verticalAlign=middle;resizable=0;points=[];autosize=1;strokeColor=none;fillColor=none;" parent="1" vertex="1">
          <mxGeometry x="100" y="5560" width="120" height="30" as="geometry" />
        </mxCell>
        <mxCell id="qrhTBZqcDBaqj9OsFunk-307" style="edgeStyle=none;rounded=0;orthogonalLoop=1;jettySize=auto;html=1;exitX=0.5;exitY=1;exitDx=0;exitDy=0;entryX=0.436;entryY=0.058;entryDx=0;entryDy=0;entryPerimeter=0;" parent="1" source="qrhTBZqcDBaqj9OsFunk-271" target="qrhTBZqcDBaqj9OsFunk-308" edge="1">
          <mxGeometry relative="1" as="geometry" />
        </mxCell>
        <mxCell id="qrhTBZqcDBaqj9OsFunk-271" value="&lt;div&gt;&lt;span style=&quot;background-color: transparent; color: light-dark(rgb(0, 0, 0), rgb(255, 255, 255));&quot;&gt;Data Base&lt;/span&gt;&lt;/div&gt;" style="ellipse;shape=umlEntity;whiteSpace=wrap;html=1;" parent="1" vertex="1">
          <mxGeometry x="545" y="5360" width="80" height="80" as="geometry" />
        </mxCell>
        <mxCell id="qrhTBZqcDBaqj9OsFunk-272" style="edgeStyle=none;rounded=0;orthogonalLoop=1;jettySize=auto;html=1;exitX=0;exitY=1;exitDx=0;exitDy=0;entryX=0.863;entryY=0.24;entryDx=0;entryDy=0;entryPerimeter=0;" parent="1" source="qrhTBZqcDBaqj9OsFunk-271" target="qrhTBZqcDBaqj9OsFunk-267" edge="1">
          <mxGeometry relative="1" as="geometry" />
        </mxCell>
        <mxCell id="qrhTBZqcDBaqj9OsFunk-273" value="" style="edgeStyle=none;rounded=0;orthogonalLoop=1;jettySize=auto;html=1;" parent="1" source="qrhTBZqcDBaqj9OsFunk-274" edge="1">
          <mxGeometry relative="1" as="geometry">
            <mxPoint x="445" y="5670" as="targetPoint" />
          </mxGeometry>
        </mxCell>
        <mxCell id="qrhTBZqcDBaqj9OsFunk-274" value="Main menu" style="shape=umlBoundary;whiteSpace=wrap;html=1;" parent="1" vertex="1">
          <mxGeometry x="265" y="5630" width="100" height="80" as="geometry" />
        </mxCell>
        <mxCell id="qrhTBZqcDBaqj9OsFunk-275" style="edgeStyle=none;rounded=0;orthogonalLoop=1;jettySize=auto;html=1;exitX=0.5;exitY=0.5;exitDx=0;exitDy=0;exitPerimeter=0;entryX=-0.036;entryY=0.52;entryDx=0;entryDy=0;entryPerimeter=0;" parent="1" source="qrhTBZqcDBaqj9OsFunk-264" target="qrhTBZqcDBaqj9OsFunk-274" edge="1">
          <mxGeometry relative="1" as="geometry" />
        </mxCell>
        <mxCell id="qrhTBZqcDBaqj9OsFunk-276" value="My Posts" style="text;html=1;align=center;verticalAlign=middle;resizable=0;points=[];autosize=1;strokeColor=none;fillColor=none;" parent="1" vertex="1">
          <mxGeometry x="170" y="5650" width="70" height="30" as="geometry" />
        </mxCell>
        <mxCell id="qrhTBZqcDBaqj9OsFunk-277" value="My Posts&lt;div&gt;pressed&lt;/div&gt;" style="text;whiteSpace=wrap;html=1;" parent="1" vertex="1">
          <mxGeometry x="375" y="5650" width="80" height="50" as="geometry" />
        </mxCell>
        <mxCell id="qrhTBZqcDBaqj9OsFunk-278" value="" style="endArrow=open;endFill=1;endSize=12;html=1;rounded=0;exitX=0.143;exitY=0.25;exitDx=0;exitDy=0;exitPerimeter=0;fillColor=#f8cecc;strokeColor=#b85450;" parent="1" source="qrhTBZqcDBaqj9OsFunk-267" edge="1">
          <mxGeometry width="160" relative="1" as="geometry">
            <mxPoint x="395" y="5610" as="sourcePoint" />
            <mxPoint x="385" y="5440" as="targetPoint" />
          </mxGeometry>
        </mxCell>
        <mxCell id="qrhTBZqcDBaqj9OsFunk-279" value="Error&amp;nbsp;Popup message&lt;div&gt;screen&lt;/div&gt;" style="shape=umlBoundary;whiteSpace=wrap;html=1;fillColor=#f8cecc;strokeColor=#b85450;" parent="1" vertex="1">
          <mxGeometry x="325" y="5360" width="100" height="80" as="geometry" />
        </mxCell>
        <mxCell id="qrhTBZqcDBaqj9OsFunk-280" value="" style="endArrow=open;endFill=1;endSize=12;html=1;rounded=0;exitX=0.3;exitY=0.875;exitDx=0;exitDy=0;exitPerimeter=0;fillColor=#f8cecc;strokeColor=#b85450;" parent="1" source="qrhTBZqcDBaqj9OsFunk-279" edge="1">
          <mxGeometry width="160" relative="1" as="geometry">
            <mxPoint x="455" y="5510" as="sourcePoint" />
            <mxPoint x="285" y="5440" as="targetPoint" />
          </mxGeometry>
        </mxCell>
        <mxCell id="qrhTBZqcDBaqj9OsFunk-281" value="Wrong Credentials" style="text;html=1;align=center;verticalAlign=middle;resizable=0;points=[];autosize=1;strokeColor=none;fillColor=none;" parent="1" vertex="1">
          <mxGeometry x="345" y="5440" width="120" height="30" as="geometry" />
        </mxCell>
        <mxCell id="qrhTBZqcDBaqj9OsFunk-282" value="Show" style="ellipse;shape=umlControl;whiteSpace=wrap;html=1;fillColor=#f8cecc;strokeColor=#b85450;" parent="1" vertex="1">
          <mxGeometry x="215" y="5400" width="70" height="80" as="geometry" />
        </mxCell>
        <mxCell id="qrhTBZqcDBaqj9OsFunk-283" value="" style="endArrow=open;endFill=1;endSize=12;html=1;rounded=0;exitX=0.871;exitY=0.944;exitDx=0;exitDy=0;exitPerimeter=0;fillColor=#f8cecc;strokeColor=#b85450;entryX=0.512;entryY=-0.023;entryDx=0;entryDy=0;entryPerimeter=0;" parent="1" source="qrhTBZqcDBaqj9OsFunk-282" target="qrhTBZqcDBaqj9OsFunk-265" edge="1">
          <mxGeometry width="160" relative="1" as="geometry">
            <mxPoint x="365" y="5440" as="sourcePoint" />
            <mxPoint x="295" y="5450" as="targetPoint" />
          </mxGeometry>
        </mxCell>
        <mxCell id="qrhTBZqcDBaqj9OsFunk-284" value="" style="edgeStyle=none;rounded=0;orthogonalLoop=1;jettySize=auto;html=1;exitX=0.275;exitY=0.972;exitDx=0;exitDy=0;exitPerimeter=0;" parent="1" source="qrhTBZqcDBaqj9OsFunk-263" edge="1">
          <mxGeometry relative="1" as="geometry">
            <mxPoint x="365" y="5760" as="targetPoint" />
            <mxPoint x="451" y="5553" as="sourcePoint" />
          </mxGeometry>
        </mxCell>
        <mxCell id="qrhTBZqcDBaqj9OsFunk-289" value="" style="edgeStyle=none;rounded=0;orthogonalLoop=1;jettySize=auto;html=1;" parent="1" source="qrhTBZqcDBaqj9OsFunk-285" edge="1">
          <mxGeometry relative="1" as="geometry">
            <mxPoint x="450" y="5780" as="targetPoint" />
          </mxGeometry>
        </mxCell>
        <mxCell id="qrhTBZqcDBaqj9OsFunk-285" value="My Posts&amp;nbsp;&lt;div&gt;Screen&lt;/div&gt;" style="shape=umlBoundary;whiteSpace=wrap;html=1;" parent="1" vertex="1">
          <mxGeometry x="270" y="5740" width="100" height="80" as="geometry" />
        </mxCell>
        <mxCell id="qrhTBZqcDBaqj9OsFunk-286" style="edgeStyle=none;rounded=0;orthogonalLoop=1;jettySize=auto;html=1;exitX=0.5;exitY=0.5;exitDx=0;exitDy=0;exitPerimeter=0;entryX=-0.023;entryY=0.578;entryDx=0;entryDy=0;entryPerimeter=0;" parent="1" source="qrhTBZqcDBaqj9OsFunk-264" target="qrhTBZqcDBaqj9OsFunk-285" edge="1">
          <mxGeometry relative="1" as="geometry" />
        </mxCell>
        <mxCell id="qrhTBZqcDBaqj9OsFunk-287" value="Chooses completed Post" style="text;html=1;align=center;verticalAlign=middle;resizable=0;points=[];autosize=1;strokeColor=none;fillColor=none;rotation=30;" parent="1" vertex="1">
          <mxGeometry x="115" y="5720" width="160" height="30" as="geometry" />
        </mxCell>
        <mxCell id="qrhTBZqcDBaqj9OsFunk-290" value="Show" style="ellipse;shape=umlControl;whiteSpace=wrap;html=1;" parent="1" vertex="1">
          <mxGeometry x="450" y="5740" width="70" height="80" as="geometry" />
        </mxCell>
        <mxCell id="qrhTBZqcDBaqj9OsFunk-291" value="" style="edgeStyle=none;rounded=0;orthogonalLoop=1;jettySize=auto;html=1;exitX=0.17;exitY=0.903;exitDx=0;exitDy=0;exitPerimeter=0;" parent="1" source="qrhTBZqcDBaqj9OsFunk-290" edge="1">
          <mxGeometry relative="1" as="geometry">
            <mxPoint x="415" y="5860" as="sourcePoint" />
            <mxPoint x="365" y="5860" as="targetPoint" />
          </mxGeometry>
        </mxCell>
        <mxCell id="qrhTBZqcDBaqj9OsFunk-296" value="" style="edgeStyle=none;rounded=0;orthogonalLoop=1;jettySize=auto;html=1;" parent="1" source="qrhTBZqcDBaqj9OsFunk-292" edge="1">
          <mxGeometry relative="1" as="geometry">
            <mxPoint x="450" y="5880" as="targetPoint" />
          </mxGeometry>
        </mxCell>
        <mxCell id="qrhTBZqcDBaqj9OsFunk-292" value="&amp;nbsp;Post&amp;nbsp;&lt;div&gt;Screen&lt;/div&gt;" style="shape=umlBoundary;whiteSpace=wrap;html=1;" parent="1" vertex="1">
          <mxGeometry x="270" y="5840" width="100" height="80" as="geometry" />
        </mxCell>
        <mxCell id="qrhTBZqcDBaqj9OsFunk-293" style="edgeStyle=none;rounded=0;orthogonalLoop=1;jettySize=auto;html=1;exitX=0.5;exitY=0.5;exitDx=0;exitDy=0;exitPerimeter=0;entryX=-0.023;entryY=0.574;entryDx=0;entryDy=0;entryPerimeter=0;" parent="1" source="qrhTBZqcDBaqj9OsFunk-264" target="qrhTBZqcDBaqj9OsFunk-292" edge="1">
          <mxGeometry relative="1" as="geometry" />
        </mxCell>
        <mxCell id="qrhTBZqcDBaqj9OsFunk-294" value="Rate Finder" style="text;html=1;align=center;verticalAlign=middle;resizable=0;points=[];autosize=1;strokeColor=none;fillColor=none;rotation=60;" parent="1" vertex="1">
          <mxGeometry x="185" y="5810" width="90" height="30" as="geometry" />
        </mxCell>
        <mxCell id="qrhTBZqcDBaqj9OsFunk-300" value="" style="edgeStyle=none;rounded=0;orthogonalLoop=1;jettySize=auto;html=1;" parent="1" source="qrhTBZqcDBaqj9OsFunk-298" edge="1">
          <mxGeometry relative="1" as="geometry">
            <mxPoint x="361.1848073382316" y="5951.839435726559" as="targetPoint" />
          </mxGeometry>
        </mxCell>
        <mxCell id="qrhTBZqcDBaqj9OsFunk-298" value="Show&lt;div&gt;Rating&amp;nbsp;&lt;/div&gt;&lt;div&gt;Form&lt;/div&gt;" style="ellipse;shape=umlControl;whiteSpace=wrap;html=1;" parent="1" vertex="1">
          <mxGeometry x="450" y="5840" width="70" height="80" as="geometry" />
        </mxCell>
        <mxCell id="qrhTBZqcDBaqj9OsFunk-305" value="" style="edgeStyle=none;rounded=0;orthogonalLoop=1;jettySize=auto;html=1;entryX=0.017;entryY=0.503;entryDx=0;entryDy=0;entryPerimeter=0;" parent="1" source="qrhTBZqcDBaqj9OsFunk-301" target="qrhTBZqcDBaqj9OsFunk-306" edge="1">
          <mxGeometry relative="1" as="geometry">
            <mxPoint x="450" y="5970" as="targetPoint" />
          </mxGeometry>
        </mxCell>
        <mxCell id="qrhTBZqcDBaqj9OsFunk-301" value="Rating Form&amp;nbsp;&lt;div&gt;Screen&lt;/div&gt;" style="shape=umlBoundary;whiteSpace=wrap;html=1;" parent="1" vertex="1">
          <mxGeometry x="270" y="5930" width="100" height="80" as="geometry" />
        </mxCell>
        <mxCell id="qrhTBZqcDBaqj9OsFunk-302" style="edgeStyle=none;rounded=0;orthogonalLoop=1;jettySize=auto;html=1;exitX=0.5;exitY=0.5;exitDx=0;exitDy=0;exitPerimeter=0;entryX=-0.008;entryY=0.749;entryDx=0;entryDy=0;entryPerimeter=0;" parent="1" source="qrhTBZqcDBaqj9OsFunk-264" target="qrhTBZqcDBaqj9OsFunk-301" edge="1">
          <mxGeometry relative="1" as="geometry" />
        </mxCell>
        <mxCell id="qrhTBZqcDBaqj9OsFunk-303" value="Completes Form" style="text;html=1;align=center;verticalAlign=middle;resizable=0;points=[];autosize=1;strokeColor=none;fillColor=none;rotation=60;" parent="1" vertex="1">
          <mxGeometry x="130" y="5850" width="110" height="30" as="geometry" />
        </mxCell>
        <mxCell id="qrhTBZqcDBaqj9OsFunk-309" value="" style="edgeStyle=none;rounded=0;orthogonalLoop=1;jettySize=auto;html=1;" parent="1" source="qrhTBZqcDBaqj9OsFunk-306" target="qrhTBZqcDBaqj9OsFunk-308" edge="1">
          <mxGeometry relative="1" as="geometry" />
        </mxCell>
        <mxCell id="qrhTBZqcDBaqj9OsFunk-313" value="" style="edgeStyle=none;rounded=0;orthogonalLoop=1;jettySize=auto;html=1;" parent="1" source="qrhTBZqcDBaqj9OsFunk-306" target="qrhTBZqcDBaqj9OsFunk-312" edge="1">
          <mxGeometry relative="1" as="geometry" />
        </mxCell>
        <mxCell id="qrhTBZqcDBaqj9OsFunk-306" value="Checks Form" style="ellipse;shape=umlControl;whiteSpace=wrap;html=1;" parent="1" vertex="1">
          <mxGeometry x="445" y="5930" width="70" height="80" as="geometry" />
        </mxCell>
        <mxCell id="qrhTBZqcDBaqj9OsFunk-308" value="Updates Finder Profile" style="ellipse;shape=umlControl;whiteSpace=wrap;html=1;" parent="1" vertex="1">
          <mxGeometry x="545" y="5890" width="70" height="80" as="geometry" />
        </mxCell>
        <mxCell id="qrhTBZqcDBaqj9OsFunk-315" value="" style="edgeStyle=none;rounded=0;orthogonalLoop=1;jettySize=auto;html=1;" parent="1" source="qrhTBZqcDBaqj9OsFunk-312" target="qrhTBZqcDBaqj9OsFunk-314" edge="1">
          <mxGeometry relative="1" as="geometry" />
        </mxCell>
        <mxCell id="qrhTBZqcDBaqj9OsFunk-312" value="Bad Language&amp;nbsp;" style="ellipse;shape=umlControl;whiteSpace=wrap;html=1;fillColor=#f8cecc;strokeColor=#b85450;" parent="1" vertex="1">
          <mxGeometry x="300" y="6020" width="70" height="80" as="geometry" />
        </mxCell>
        <mxCell id="qrhTBZqcDBaqj9OsFunk-317" value="" style="edgeStyle=none;rounded=0;orthogonalLoop=1;jettySize=auto;html=1;" parent="1" source="qrhTBZqcDBaqj9OsFunk-314" target="qrhTBZqcDBaqj9OsFunk-316" edge="1">
          <mxGeometry relative="1" as="geometry" />
        </mxCell>
        <mxCell id="qrhTBZqcDBaqj9OsFunk-314" value="Creates Report&amp;nbsp;" style="ellipse;shape=umlControl;whiteSpace=wrap;html=1;fillColor=#f8cecc;strokeColor=#b85450;" parent="1" vertex="1">
          <mxGeometry x="450" y="6020" width="70" height="80" as="geometry" />
        </mxCell>
        <mxCell id="qrhTBZqcDBaqj9OsFunk-319" value="" style="edgeStyle=none;rounded=0;orthogonalLoop=1;jettySize=auto;html=1;entryX=0.004;entryY=0.59;entryDx=0;entryDy=0;entryPerimeter=0;" parent="1" source="qrhTBZqcDBaqj9OsFunk-316" target="qrhTBZqcDBaqj9OsFunk-320" edge="1">
          <mxGeometry relative="1" as="geometry">
            <mxPoint x="680" y="6050" as="targetPoint" />
          </mxGeometry>
        </mxCell>
        <mxCell id="qrhTBZqcDBaqj9OsFunk-316" value="Adds report to Report list" style="ellipse;shape=umlControl;whiteSpace=wrap;html=1;fillColor=#f8cecc;strokeColor=#b85450;" parent="1" vertex="1">
          <mxGeometry x="585" y="6020" width="70" height="80" as="geometry" />
        </mxCell>
        <mxCell id="qrhTBZqcDBaqj9OsFunk-320" value="Popup message &quot;Unable To post due to bad language&quot;" style="shape=umlBoundary;whiteSpace=wrap;html=1;fillColor=#f8cecc;strokeColor=#b85450;" parent="1" vertex="1">
          <mxGeometry x="710" y="6010" width="100" height="80" as="geometry" />
        </mxCell>
        <mxCell id="qrhTBZqcDBaqj9OsFunk-322" style="edgeStyle=none;rounded=0;orthogonalLoop=1;jettySize=auto;html=1;exitX=1;exitY=1;exitDx=0;exitDy=0;entryX=0.837;entryY=0.275;entryDx=0;entryDy=0;entryPerimeter=0;" parent="1" source="qrhTBZqcDBaqj9OsFunk-271" target="qrhTBZqcDBaqj9OsFunk-316" edge="1">
          <mxGeometry relative="1" as="geometry" />
        </mxCell>
        <mxCell id="qrhTBZqcDBaqj9OsFunk-324" value="8." style="text;html=1;align=center;verticalAlign=middle;resizable=0;points=[];autosize=1;strokeColor=none;fillColor=none;" parent="1" vertex="1">
          <mxGeometry x="55" y="6190" width="30" height="30" as="geometry" />
        </mxCell>
        <mxCell id="qrhTBZqcDBaqj9OsFunk-348" value="" style="edgeStyle=none;rounded=0;orthogonalLoop=1;jettySize=auto;html=1;" parent="1" source="qrhTBZqcDBaqj9OsFunk-325" edge="1">
          <mxGeometry relative="1" as="geometry">
            <mxPoint x="326.5130743128857" y="6562.595289500833" as="targetPoint" />
          </mxGeometry>
        </mxCell>
        <mxCell id="qrhTBZqcDBaqj9OsFunk-325" value="Show" style="ellipse;shape=umlControl;whiteSpace=wrap;html=1;" parent="1" vertex="1">
          <mxGeometry x="460" y="6430" width="70" height="80" as="geometry" />
        </mxCell>
        <mxCell id="qrhTBZqcDBaqj9OsFunk-326" value="&amp;nbsp;Business Owner" style="shape=umlActor;verticalLabelPosition=bottom;verticalAlign=top;html=1;" parent="1" vertex="1">
          <mxGeometry x="65" y="6308" width="30" height="60" as="geometry" />
        </mxCell>
        <mxCell id="qrhTBZqcDBaqj9OsFunk-327" value="Login screen" style="shape=umlBoundary;whiteSpace=wrap;html=1;" parent="1" vertex="1">
          <mxGeometry x="220" y="6298" width="100" height="80" as="geometry" />
        </mxCell>
        <mxCell id="qrhTBZqcDBaqj9OsFunk-328" value="" style="edgeStyle=none;rounded=0;orthogonalLoop=1;jettySize=auto;html=1;" parent="1" source="qrhTBZqcDBaqj9OsFunk-329" edge="1">
          <mxGeometry relative="1" as="geometry">
            <mxPoint x="310" y="6438" as="targetPoint" />
          </mxGeometry>
        </mxCell>
        <mxCell id="qrhTBZqcDBaqj9OsFunk-329" value="Credentials&lt;div&gt;check&lt;/div&gt;" style="ellipse;shape=umlControl;whiteSpace=wrap;html=1;" parent="1" vertex="1">
          <mxGeometry x="410" y="6288" width="70" height="80" as="geometry" />
        </mxCell>
        <mxCell id="qrhTBZqcDBaqj9OsFunk-330" style="edgeStyle=none;rounded=0;orthogonalLoop=1;jettySize=auto;html=1;exitX=0.5;exitY=0.5;exitDx=0;exitDy=0;exitPerimeter=0;entryX=-0.04;entryY=0.525;entryDx=0;entryDy=0;entryPerimeter=0;" parent="1" source="qrhTBZqcDBaqj9OsFunk-326" target="qrhTBZqcDBaqj9OsFunk-327" edge="1">
          <mxGeometry relative="1" as="geometry" />
        </mxCell>
        <mxCell id="qrhTBZqcDBaqj9OsFunk-331" value="" style="endArrow=open;endFill=1;endSize=12;html=1;rounded=0;entryX=-0.029;entryY=0.615;entryDx=0;entryDy=0;entryPerimeter=0;" parent="1" target="qrhTBZqcDBaqj9OsFunk-329" edge="1">
          <mxGeometry width="160" relative="1" as="geometry">
            <mxPoint x="321" y="6338" as="sourcePoint" />
            <mxPoint x="350" y="6458" as="targetPoint" />
          </mxGeometry>
        </mxCell>
        <mxCell id="qrhTBZqcDBaqj9OsFunk-332" value="Types credentials" style="text;html=1;align=center;verticalAlign=middle;resizable=0;points=[];autosize=1;strokeColor=none;fillColor=none;" parent="1" vertex="1">
          <mxGeometry x="95" y="6313" width="120" height="30" as="geometry" />
        </mxCell>
        <mxCell id="qrhTBZqcDBaqj9OsFunk-333" value="&lt;div&gt;&lt;span style=&quot;background-color: transparent; color: light-dark(rgb(0, 0, 0), rgb(255, 255, 255));&quot;&gt;Data Base&lt;/span&gt;&lt;/div&gt;" style="ellipse;shape=umlEntity;whiteSpace=wrap;html=1;" parent="1" vertex="1">
          <mxGeometry x="535" y="6168" width="80" height="80" as="geometry" />
        </mxCell>
        <mxCell id="qrhTBZqcDBaqj9OsFunk-334" style="edgeStyle=none;rounded=0;orthogonalLoop=1;jettySize=auto;html=1;exitX=0;exitY=1;exitDx=0;exitDy=0;entryX=0.863;entryY=0.24;entryDx=0;entryDy=0;entryPerimeter=0;" parent="1" source="qrhTBZqcDBaqj9OsFunk-333" target="qrhTBZqcDBaqj9OsFunk-329" edge="1">
          <mxGeometry relative="1" as="geometry" />
        </mxCell>
        <mxCell id="qrhTBZqcDBaqj9OsFunk-335" value="" style="edgeStyle=none;rounded=0;orthogonalLoop=1;jettySize=auto;html=1;entryX=-0.005;entryY=0.604;entryDx=0;entryDy=0;entryPerimeter=0;" parent="1" source="qrhTBZqcDBaqj9OsFunk-336" target="qrhTBZqcDBaqj9OsFunk-325" edge="1">
          <mxGeometry relative="1" as="geometry">
            <mxPoint x="420" y="6478" as="targetPoint" />
          </mxGeometry>
        </mxCell>
        <mxCell id="qrhTBZqcDBaqj9OsFunk-336" value="&lt;div&gt;Business&lt;/div&gt;Main menu" style="shape=umlBoundary;whiteSpace=wrap;html=1;" parent="1" vertex="1">
          <mxGeometry x="240" y="6438" width="100" height="80" as="geometry" />
        </mxCell>
        <mxCell id="qrhTBZqcDBaqj9OsFunk-337" style="edgeStyle=none;rounded=0;orthogonalLoop=1;jettySize=auto;html=1;exitX=0.5;exitY=0.5;exitDx=0;exitDy=0;exitPerimeter=0;entryX=-0.036;entryY=0.52;entryDx=0;entryDy=0;entryPerimeter=0;" parent="1" source="qrhTBZqcDBaqj9OsFunk-326" target="qrhTBZqcDBaqj9OsFunk-336" edge="1">
          <mxGeometry relative="1" as="geometry" />
        </mxCell>
        <mxCell id="qrhTBZqcDBaqj9OsFunk-338" value="Add Post" style="text;html=1;align=center;verticalAlign=middle;resizable=0;points=[];autosize=1;strokeColor=none;fillColor=none;" parent="1" vertex="1">
          <mxGeometry x="140" y="6378" width="70" height="30" as="geometry" />
        </mxCell>
        <mxCell id="qrhTBZqcDBaqj9OsFunk-340" value="" style="endArrow=open;endFill=1;endSize=12;html=1;rounded=0;exitX=0.143;exitY=0.25;exitDx=0;exitDy=0;exitPerimeter=0;fillColor=#f8cecc;strokeColor=#b85450;" parent="1" source="qrhTBZqcDBaqj9OsFunk-329" edge="1">
          <mxGeometry width="160" relative="1" as="geometry">
            <mxPoint x="370" y="6418" as="sourcePoint" />
            <mxPoint x="360" y="6248" as="targetPoint" />
          </mxGeometry>
        </mxCell>
        <mxCell id="qrhTBZqcDBaqj9OsFunk-341" value="Error&amp;nbsp;Popup message&lt;div&gt;screen&lt;/div&gt;" style="shape=umlBoundary;whiteSpace=wrap;html=1;fillColor=#f8cecc;strokeColor=#b85450;" parent="1" vertex="1">
          <mxGeometry x="300" y="6168" width="100" height="80" as="geometry" />
        </mxCell>
        <mxCell id="qrhTBZqcDBaqj9OsFunk-342" value="" style="endArrow=open;endFill=1;endSize=12;html=1;rounded=0;exitX=0.3;exitY=0.875;exitDx=0;exitDy=0;exitPerimeter=0;fillColor=#f8cecc;strokeColor=#b85450;" parent="1" source="qrhTBZqcDBaqj9OsFunk-341" edge="1">
          <mxGeometry width="160" relative="1" as="geometry">
            <mxPoint x="430" y="6318" as="sourcePoint" />
            <mxPoint x="260" y="6248" as="targetPoint" />
          </mxGeometry>
        </mxCell>
        <mxCell id="qrhTBZqcDBaqj9OsFunk-343" value="Wrong Credentials" style="text;html=1;align=center;verticalAlign=middle;resizable=0;points=[];autosize=1;strokeColor=none;fillColor=none;" parent="1" vertex="1">
          <mxGeometry x="320" y="6248" width="120" height="30" as="geometry" />
        </mxCell>
        <mxCell id="qrhTBZqcDBaqj9OsFunk-344" value="Show" style="ellipse;shape=umlControl;whiteSpace=wrap;html=1;fillColor=#f8cecc;strokeColor=#b85450;" parent="1" vertex="1">
          <mxGeometry x="190" y="6208" width="70" height="80" as="geometry" />
        </mxCell>
        <mxCell id="qrhTBZqcDBaqj9OsFunk-345" value="" style="endArrow=open;endFill=1;endSize=12;html=1;rounded=0;exitX=0.871;exitY=0.944;exitDx=0;exitDy=0;exitPerimeter=0;fillColor=#f8cecc;strokeColor=#b85450;entryX=0.512;entryY=-0.023;entryDx=0;entryDy=0;entryPerimeter=0;" parent="1" source="qrhTBZqcDBaqj9OsFunk-344" target="qrhTBZqcDBaqj9OsFunk-327" edge="1">
          <mxGeometry width="160" relative="1" as="geometry">
            <mxPoint x="340" y="6248" as="sourcePoint" />
            <mxPoint x="270" y="6258" as="targetPoint" />
          </mxGeometry>
        </mxCell>
        <mxCell id="qrhTBZqcDBaqj9OsFunk-346" value="&lt;font style=&quot;color: rgb(0, 0, 0);&quot;&gt;&lt;span style=&quot;font-size: 11pt; line-height: 115%; font-family: Calibri, &amp;quot;sans-serif&amp;quot;;&quot; lang=&quot;EN-US&quot;&gt;Add my business as&amp;nbsp;&lt;/span&gt;&lt;/font&gt;&lt;div&gt;&lt;font style=&quot;color: rgb(0, 0, 0);&quot;&gt;&lt;span style=&quot;font-size: 11pt; line-height: 115%; font-family: Calibri, &amp;quot;sans-serif&amp;quot;;&quot; lang=&quot;EN-US&quot;&gt;a &lt;/span&gt;&lt;span style=&quot;font-size:11.0pt;line-height:115%;font-family:&amp;quot;Calibri&amp;quot;,&amp;quot;sans-serif&amp;quot;;&lt;br/&gt;mso-ascii-theme-font:minor-latin;mso-fareast-font-family:Calibri;mso-fareast-theme-font:&lt;br/&gt;minor-latin;mso-hansi-theme-font:minor-latin;mso-bidi-font-family:&amp;quot;Times New Roman&amp;quot;;&lt;br/&gt;mso-bidi-theme-font:minor-bidi;mso-ansi-language:EN-US;mso-fareast-language:&lt;br/&gt;EN-US;mso-bidi-language:AR-SA&quot; lang=&quot;EN-US&quot;&gt;Drop-off Point&lt;/span&gt;&lt;/font&gt;&lt;/div&gt;" style="text;html=1;align=center;verticalAlign=middle;resizable=0;points=[];autosize=1;strokeColor=none;fillColor=none;" parent="1" vertex="1">
          <mxGeometry x="330" y="6453" width="140" height="50" as="geometry" />
        </mxCell>
        <mxCell id="qrhTBZqcDBaqj9OsFunk-359" value="" style="edgeStyle=none;rounded=0;orthogonalLoop=1;jettySize=auto;html=1;" parent="1" source="qrhTBZqcDBaqj9OsFunk-349" target="qrhTBZqcDBaqj9OsFunk-358" edge="1">
          <mxGeometry relative="1" as="geometry" />
        </mxCell>
        <mxCell id="qrhTBZqcDBaqj9OsFunk-362" value="" style="edgeStyle=none;rounded=0;orthogonalLoop=1;jettySize=auto;html=1;fillColor=#f8cecc;strokeColor=#b85450;exitX=0.339;exitY=0.964;exitDx=0;exitDy=0;exitPerimeter=0;" parent="1" source="qrhTBZqcDBaqj9OsFunk-358" target="qrhTBZqcDBaqj9OsFunk-355" edge="1">
          <mxGeometry relative="1" as="geometry" />
        </mxCell>
        <mxCell id="qrhTBZqcDBaqj9OsFunk-349" value="&lt;div&gt;&lt;span style=&quot;background-color: transparent; color: light-dark(rgb(0, 0, 0), rgb(255, 255, 255));&quot;&gt;Add Business&lt;/span&gt;&lt;/div&gt;&lt;div&gt;&lt;span style=&quot;background-color: transparent; color: light-dark(rgb(0, 0, 0), rgb(255, 255, 255));&quot;&gt;Form Screen&amp;nbsp;&lt;/span&gt;&lt;/div&gt;" style="shape=umlBoundary;whiteSpace=wrap;html=1;" parent="1" vertex="1">
          <mxGeometry x="235" y="6550" width="100" height="80" as="geometry" />
        </mxCell>
        <mxCell id="qrhTBZqcDBaqj9OsFunk-350" style="edgeStyle=none;rounded=0;orthogonalLoop=1;jettySize=auto;html=1;exitX=0.5;exitY=0.5;exitDx=0;exitDy=0;exitPerimeter=0;entryX=-0.033;entryY=0.496;entryDx=0;entryDy=0;entryPerimeter=0;" parent="1" source="qrhTBZqcDBaqj9OsFunk-326" target="qrhTBZqcDBaqj9OsFunk-349" edge="1">
          <mxGeometry relative="1" as="geometry" />
        </mxCell>
        <mxCell id="qrhTBZqcDBaqj9OsFunk-351" value="Fills Form" style="text;html=1;align=center;verticalAlign=middle;resizable=0;points=[];autosize=1;strokeColor=none;fillColor=none;" parent="1" vertex="1">
          <mxGeometry x="95" y="6478" width="80" height="30" as="geometry" />
        </mxCell>
        <mxCell id="qrhTBZqcDBaqj9OsFunk-354" value="" style="edgeStyle=none;rounded=0;orthogonalLoop=1;jettySize=auto;html=1;" parent="1" source="qrhTBZqcDBaqj9OsFunk-352" target="qrhTBZqcDBaqj9OsFunk-333" edge="1">
          <mxGeometry relative="1" as="geometry" />
        </mxCell>
        <mxCell id="qrhTBZqcDBaqj9OsFunk-352" value="Saves Business as&amp;nbsp; Drop-off Point" style="ellipse;shape=umlControl;whiteSpace=wrap;html=1;" parent="1" vertex="1">
          <mxGeometry x="545" y="6550" width="70" height="80" as="geometry" />
        </mxCell>
        <mxCell id="qrhTBZqcDBaqj9OsFunk-366" value="" style="edgeStyle=none;rounded=0;orthogonalLoop=1;jettySize=auto;html=1;fillColor=#f8cecc;strokeColor=#b85450;" parent="1" source="qrhTBZqcDBaqj9OsFunk-355" target="qrhTBZqcDBaqj9OsFunk-365" edge="1">
          <mxGeometry relative="1" as="geometry" />
        </mxCell>
        <mxCell id="qrhTBZqcDBaqj9OsFunk-355" value="Show" style="ellipse;shape=umlControl;whiteSpace=wrap;html=1;fillColor=#f8cecc;strokeColor=#b85450;" parent="1" vertex="1">
          <mxGeometry x="380" y="6690" width="70" height="80" as="geometry" />
        </mxCell>
        <mxCell id="qrhTBZqcDBaqj9OsFunk-357" value="Correct&amp;nbsp;&lt;div&gt;Form&lt;/div&gt;" style="text;html=1;align=center;verticalAlign=middle;resizable=0;points=[];autosize=1;strokeColor=none;fillColor=none;" parent="1" vertex="1">
          <mxGeometry x="460" y="6570" width="70" height="40" as="geometry" />
        </mxCell>
        <mxCell id="qrhTBZqcDBaqj9OsFunk-364" value="" style="edgeStyle=none;rounded=0;orthogonalLoop=1;jettySize=auto;html=1;" parent="1" source="qrhTBZqcDBaqj9OsFunk-358" target="qrhTBZqcDBaqj9OsFunk-352" edge="1">
          <mxGeometry relative="1" as="geometry" />
        </mxCell>
        <mxCell id="qrhTBZqcDBaqj9OsFunk-358" value="Check if business exists" style="ellipse;shape=umlControl;whiteSpace=wrap;html=1;" parent="1" vertex="1">
          <mxGeometry x="385" y="6550" width="75" height="80" as="geometry" />
        </mxCell>
        <mxCell id="qrhTBZqcDBaqj9OsFunk-363" value="&lt;font style=&quot;color: rgb(255, 0, 0);&quot;&gt;Wrong Form&lt;/font&gt;" style="text;html=1;align=center;verticalAlign=middle;resizable=0;points=[];autosize=1;strokeColor=none;fillColor=none;" parent="1" vertex="1">
          <mxGeometry x="325" y="6650" width="90" height="30" as="geometry" />
        </mxCell>
        <mxCell id="qrhTBZqcDBaqj9OsFunk-368" value="" style="edgeStyle=none;rounded=0;orthogonalLoop=1;jettySize=auto;html=1;fillColor=#f8cecc;strokeColor=#b85450;exitX=-0.025;exitY=0.487;exitDx=0;exitDy=0;exitPerimeter=0;" parent="1" source="qrhTBZqcDBaqj9OsFunk-365" target="qrhTBZqcDBaqj9OsFunk-367" edge="1">
          <mxGeometry relative="1" as="geometry" />
        </mxCell>
        <mxCell id="qrhTBZqcDBaqj9OsFunk-365" value="&lt;div&gt;Popup message &quot;Cannot Find Business&quot;&lt;/div&gt;" style="shape=umlBoundary;whiteSpace=wrap;html=1;fillColor=#f8cecc;strokeColor=#b85450;" parent="1" vertex="1">
          <mxGeometry x="220" y="6680" width="100" height="80" as="geometry" />
        </mxCell>
        <mxCell id="qrhTBZqcDBaqj9OsFunk-369" value="" style="edgeStyle=none;rounded=0;orthogonalLoop=1;jettySize=auto;html=1;fillColor=#f8cecc;strokeColor=#b85450;" parent="1" source="qrhTBZqcDBaqj9OsFunk-367" target="qrhTBZqcDBaqj9OsFunk-349" edge="1">
          <mxGeometry relative="1" as="geometry" />
        </mxCell>
        <mxCell id="qrhTBZqcDBaqj9OsFunk-367" value="Show" style="ellipse;shape=umlControl;whiteSpace=wrap;html=1;fillColor=#f8cecc;strokeColor=#b85450;" parent="1" vertex="1">
          <mxGeometry x="125" y="6630" width="70" height="80" as="geometry" />
        </mxCell>
        <mxCell id="qrhTBZqcDBaqj9OsFunk-374" value="2." style="text;html=1;align=center;verticalAlign=middle;resizable=0;points=[];autosize=1;strokeColor=none;fillColor=none;" parent="1" vertex="1">
          <mxGeometry x="35" y="720" width="30" height="30" as="geometry" />
        </mxCell>
        <mxCell id="qrhTBZqcDBaqj9OsFunk-375" value="Show" style="ellipse;shape=umlControl;whiteSpace=wrap;html=1;" parent="1" vertex="1">
          <mxGeometry x="440" y="1000" width="70" height="80" as="geometry" />
        </mxCell>
        <mxCell id="qrhTBZqcDBaqj9OsFunk-376" value="Finder" style="shape=umlActor;verticalLabelPosition=bottom;verticalAlign=top;html=1;" parent="1" vertex="1">
          <mxGeometry x="85" y="870" width="30" height="60" as="geometry" />
        </mxCell>
        <mxCell id="qrhTBZqcDBaqj9OsFunk-377" value="Login screen" style="shape=umlBoundary;whiteSpace=wrap;html=1;" parent="1" vertex="1">
          <mxGeometry x="240" y="860" width="100" height="80" as="geometry" />
        </mxCell>
        <mxCell id="qrhTBZqcDBaqj9OsFunk-378" value="" style="edgeStyle=none;rounded=0;orthogonalLoop=1;jettySize=auto;html=1;" parent="1" source="qrhTBZqcDBaqj9OsFunk-379" edge="1">
          <mxGeometry relative="1" as="geometry">
            <mxPoint x="330" y="1000" as="targetPoint" />
          </mxGeometry>
        </mxCell>
        <mxCell id="qrhTBZqcDBaqj9OsFunk-379" value="Credentials&lt;div&gt;check&lt;/div&gt;" style="ellipse;shape=umlControl;whiteSpace=wrap;html=1;" parent="1" vertex="1">
          <mxGeometry x="430" y="850" width="70" height="80" as="geometry" />
        </mxCell>
        <mxCell id="qrhTBZqcDBaqj9OsFunk-380" style="edgeStyle=none;rounded=0;orthogonalLoop=1;jettySize=auto;html=1;exitX=0.5;exitY=0.5;exitDx=0;exitDy=0;exitPerimeter=0;entryX=-0.04;entryY=0.525;entryDx=0;entryDy=0;entryPerimeter=0;" parent="1" source="qrhTBZqcDBaqj9OsFunk-376" target="qrhTBZqcDBaqj9OsFunk-377" edge="1">
          <mxGeometry relative="1" as="geometry" />
        </mxCell>
        <mxCell id="qrhTBZqcDBaqj9OsFunk-381" value="" style="endArrow=open;endFill=1;endSize=12;html=1;rounded=0;entryX=-0.029;entryY=0.615;entryDx=0;entryDy=0;entryPerimeter=0;" parent="1" target="qrhTBZqcDBaqj9OsFunk-379" edge="1">
          <mxGeometry width="160" relative="1" as="geometry">
            <mxPoint x="341" y="900" as="sourcePoint" />
            <mxPoint x="370" y="1020" as="targetPoint" />
          </mxGeometry>
        </mxCell>
        <mxCell id="qrhTBZqcDBaqj9OsFunk-382" value="Types credentials" style="text;html=1;align=center;verticalAlign=middle;resizable=0;points=[];autosize=1;strokeColor=none;fillColor=none;" parent="1" vertex="1">
          <mxGeometry x="115" y="875" width="120" height="30" as="geometry" />
        </mxCell>
        <mxCell id="qrhTBZqcDBaqj9OsFunk-383" value="&lt;div&gt;&lt;span style=&quot;background-color: transparent; color: light-dark(rgb(0, 0, 0), rgb(255, 255, 255));&quot;&gt;Data Base&lt;/span&gt;&lt;/div&gt;" style="ellipse;shape=umlEntity;whiteSpace=wrap;html=1;" parent="1" vertex="1">
          <mxGeometry x="540" y="730" width="80" height="80" as="geometry" />
        </mxCell>
        <mxCell id="qrhTBZqcDBaqj9OsFunk-384" style="edgeStyle=none;rounded=0;orthogonalLoop=1;jettySize=auto;html=1;exitX=0;exitY=1;exitDx=0;exitDy=0;entryX=0.863;entryY=0.24;entryDx=0;entryDy=0;entryPerimeter=0;endArrow=none;startFill=0;" parent="1" source="qrhTBZqcDBaqj9OsFunk-383" target="qrhTBZqcDBaqj9OsFunk-379" edge="1">
          <mxGeometry relative="1" as="geometry" />
        </mxCell>
        <mxCell id="qrhTBZqcDBaqj9OsFunk-385" value="" style="edgeStyle=none;rounded=0;orthogonalLoop=1;jettySize=auto;html=1;" parent="1" source="qrhTBZqcDBaqj9OsFunk-386" edge="1">
          <mxGeometry relative="1" as="geometry">
            <mxPoint x="440" y="1040" as="targetPoint" />
          </mxGeometry>
        </mxCell>
        <mxCell id="qrhTBZqcDBaqj9OsFunk-386" value="Main menu" style="shape=umlBoundary;whiteSpace=wrap;html=1;" parent="1" vertex="1">
          <mxGeometry x="260" y="1000" width="100" height="80" as="geometry" />
        </mxCell>
        <mxCell id="qrhTBZqcDBaqj9OsFunk-387" style="edgeStyle=none;rounded=0;orthogonalLoop=1;jettySize=auto;html=1;exitX=0.5;exitY=0.5;exitDx=0;exitDy=0;exitPerimeter=0;entryX=-0.036;entryY=0.52;entryDx=0;entryDy=0;entryPerimeter=0;" parent="1" source="qrhTBZqcDBaqj9OsFunk-376" target="qrhTBZqcDBaqj9OsFunk-386" edge="1">
          <mxGeometry relative="1" as="geometry" />
        </mxCell>
        <mxCell id="qrhTBZqcDBaqj9OsFunk-388" value="Submit Post ,Found Item" style="text;html=1;align=center;verticalAlign=middle;resizable=0;points=[];autosize=1;strokeColor=none;fillColor=none;rotation=40;" parent="1" vertex="1">
          <mxGeometry x="110" y="950" width="160" height="30" as="geometry" />
        </mxCell>
        <mxCell id="qrhTBZqcDBaqj9OsFunk-389" value="Create Post&lt;div&gt;screen&lt;/div&gt;" style="shape=umlBoundary;whiteSpace=wrap;html=1;" parent="1" vertex="1">
          <mxGeometry x="250" y="1130" width="100" height="80" as="geometry" />
        </mxCell>
        <mxCell id="qrhTBZqcDBaqj9OsFunk-390" value="Add Post  &#xa;Pressed" style="text;whiteSpace=wrap;html=1;" parent="1" vertex="1">
          <mxGeometry x="370" y="1020" width="80" height="50" as="geometry" />
        </mxCell>
        <mxCell id="qrhTBZqcDBaqj9OsFunk-391" value="" style="endArrow=open;endFill=1;endSize=12;html=1;rounded=0;entryX=0.44;entryY=0.065;entryDx=0;entryDy=0;entryPerimeter=0;exitX=0.526;exitY=0.985;exitDx=0;exitDy=0;exitPerimeter=0;" parent="1" source="qrhTBZqcDBaqj9OsFunk-375" target="qrhTBZqcDBaqj9OsFunk-389" edge="1">
          <mxGeometry width="160" relative="1" as="geometry">
            <mxPoint x="290" y="1190" as="sourcePoint" />
            <mxPoint x="450" y="1190" as="targetPoint" />
          </mxGeometry>
        </mxCell>
        <mxCell id="qrhTBZqcDBaqj9OsFunk-392" style="edgeStyle=none;rounded=0;orthogonalLoop=1;jettySize=auto;html=1;exitX=0.5;exitY=0.5;exitDx=0;exitDy=0;exitPerimeter=0;entryX=-0.017;entryY=0.528;entryDx=0;entryDy=0;entryPerimeter=0;" parent="1" source="qrhTBZqcDBaqj9OsFunk-376" target="qrhTBZqcDBaqj9OsFunk-389" edge="1">
          <mxGeometry relative="1" as="geometry" />
        </mxCell>
        <mxCell id="qrhTBZqcDBaqj9OsFunk-393" value="Fills Item Form" style="text;html=1;align=center;verticalAlign=middle;resizable=0;points=[];autosize=1;strokeColor=none;fillColor=none;" parent="1" vertex="1">
          <mxGeometry x="100" y="1070" width="100" height="30" as="geometry" />
        </mxCell>
        <mxCell id="qrhTBZqcDBaqj9OsFunk-394" value="" style="endArrow=open;endFill=1;endSize=12;html=1;rounded=0;exitX=1.035;exitY=0.56;exitDx=0;exitDy=0;exitPerimeter=0;" parent="1" source="qrhTBZqcDBaqj9OsFunk-389" edge="1">
          <mxGeometry width="160" relative="1" as="geometry">
            <mxPoint x="370" y="1160" as="sourcePoint" />
            <mxPoint x="450" y="1170" as="targetPoint" />
          </mxGeometry>
        </mxCell>
        <mxCell id="qrhTBZqcDBaqj9OsFunk-395" value="Submit&amp;nbsp;&lt;div&gt;Post&lt;/div&gt;" style="ellipse;shape=umlControl;whiteSpace=wrap;html=1;" parent="1" vertex="1">
          <mxGeometry x="590" y="1120" width="70" height="80" as="geometry" />
        </mxCell>
        <mxCell id="qrhTBZqcDBaqj9OsFunk-396" value="Form Check" style="ellipse;shape=umlControl;whiteSpace=wrap;html=1;" parent="1" vertex="1">
          <mxGeometry x="450" y="1130" width="70" height="80" as="geometry" />
        </mxCell>
        <mxCell id="qrhTBZqcDBaqj9OsFunk-397" value="" style="endArrow=open;endFill=1;endSize=12;html=1;rounded=0;entryX=0.014;entryY=0.58;entryDx=0;entryDy=0;entryPerimeter=0;exitX=1.028;exitY=0.486;exitDx=0;exitDy=0;exitPerimeter=0;" parent="1" source="qrhTBZqcDBaqj9OsFunk-396" target="qrhTBZqcDBaqj9OsFunk-395" edge="1">
          <mxGeometry width="160" relative="1" as="geometry">
            <mxPoint x="390" y="980" as="sourcePoint" />
            <mxPoint x="550" y="980" as="targetPoint" />
          </mxGeometry>
        </mxCell>
        <mxCell id="qrhTBZqcDBaqj9OsFunk-398" value="Correct" style="text;html=1;align=center;verticalAlign=middle;resizable=0;points=[];autosize=1;strokeColor=none;fillColor=none;" parent="1" vertex="1">
          <mxGeometry x="520" y="1138" width="60" height="30" as="geometry" />
        </mxCell>
        <mxCell id="qrhTBZqcDBaqj9OsFunk-399" style="edgeStyle=none;rounded=0;orthogonalLoop=1;jettySize=auto;html=1;exitX=0.5;exitY=1;exitDx=0;exitDy=0;entryX=0.483;entryY=0.106;entryDx=0;entryDy=0;entryPerimeter=0;" parent="1" source="qrhTBZqcDBaqj9OsFunk-383" target="qrhTBZqcDBaqj9OsFunk-395" edge="1">
          <mxGeometry relative="1" as="geometry" />
        </mxCell>
        <mxCell id="qrhTBZqcDBaqj9OsFunk-400" value="" style="endArrow=open;endFill=1;endSize=12;html=1;rounded=0;exitX=0.143;exitY=0.25;exitDx=0;exitDy=0;exitPerimeter=0;fillColor=#f8cecc;strokeColor=#b85450;" parent="1" source="qrhTBZqcDBaqj9OsFunk-379" edge="1">
          <mxGeometry width="160" relative="1" as="geometry">
            <mxPoint x="390" y="980" as="sourcePoint" />
            <mxPoint x="380" y="810" as="targetPoint" />
          </mxGeometry>
        </mxCell>
        <mxCell id="qrhTBZqcDBaqj9OsFunk-401" value="Error&amp;nbsp;Popup message&lt;div&gt;screen&lt;/div&gt;" style="shape=umlBoundary;whiteSpace=wrap;html=1;fillColor=#f8cecc;strokeColor=#b85450;" parent="1" vertex="1">
          <mxGeometry x="320" y="730" width="100" height="80" as="geometry" />
        </mxCell>
        <mxCell id="qrhTBZqcDBaqj9OsFunk-402" value="" style="endArrow=open;endFill=1;endSize=12;html=1;rounded=0;exitX=0.3;exitY=0.875;exitDx=0;exitDy=0;exitPerimeter=0;fillColor=#f8cecc;strokeColor=#b85450;" parent="1" source="qrhTBZqcDBaqj9OsFunk-401" edge="1">
          <mxGeometry width="160" relative="1" as="geometry">
            <mxPoint x="450" y="880" as="sourcePoint" />
            <mxPoint x="280" y="810" as="targetPoint" />
          </mxGeometry>
        </mxCell>
        <mxCell id="qrhTBZqcDBaqj9OsFunk-403" value="Wrong Credentials" style="text;html=1;align=center;verticalAlign=middle;resizable=0;points=[];autosize=1;strokeColor=none;fillColor=none;" parent="1" vertex="1">
          <mxGeometry x="340" y="810" width="120" height="30" as="geometry" />
        </mxCell>
        <mxCell id="qrhTBZqcDBaqj9OsFunk-404" value="" style="endArrow=open;endFill=1;endSize=12;html=1;rounded=0;exitX=0.426;exitY=1.013;exitDx=0;exitDy=0;exitPerimeter=0;fillColor=#f8cecc;strokeColor=#b85450;" parent="1" source="qrhTBZqcDBaqj9OsFunk-396" edge="1">
          <mxGeometry width="160" relative="1" as="geometry">
            <mxPoint x="450" y="880" as="sourcePoint" />
            <mxPoint x="420" y="1250" as="targetPoint" />
          </mxGeometry>
        </mxCell>
        <mxCell id="qrhTBZqcDBaqj9OsFunk-405" value="Wrong" style="text;html=1;align=center;verticalAlign=middle;resizable=0;points=[];autosize=1;strokeColor=none;fillColor=none;" parent="1" vertex="1">
          <mxGeometry x="440" y="1228" width="60" height="30" as="geometry" />
        </mxCell>
        <mxCell id="qrhTBZqcDBaqj9OsFunk-406" value="Error Popup message&lt;div&gt;screen&lt;/div&gt;" style="shape=umlBoundary;whiteSpace=wrap;html=1;fillColor=#f8cecc;strokeColor=#b85450;" parent="1" vertex="1">
          <mxGeometry x="320" y="1228" width="100" height="80" as="geometry" />
        </mxCell>
        <mxCell id="qrhTBZqcDBaqj9OsFunk-407" value="" style="endArrow=open;endFill=1;endSize=12;html=1;rounded=0;exitX=-0.035;exitY=0.451;exitDx=0;exitDy=0;exitPerimeter=0;fillColor=#f8cecc;strokeColor=#b85450;entryX=1.04;entryY=0.461;entryDx=0;entryDy=0;entryPerimeter=0;" parent="1" source="qrhTBZqcDBaqj9OsFunk-406" target="qrhTBZqcDBaqj9OsFunk-409" edge="1">
          <mxGeometry width="160" relative="1" as="geometry">
            <mxPoint x="490" y="1221" as="sourcePoint" />
            <mxPoint x="430" y="1260" as="targetPoint" />
          </mxGeometry>
        </mxCell>
        <mxCell id="qrhTBZqcDBaqj9OsFunk-408" value="Show" style="ellipse;shape=umlControl;whiteSpace=wrap;html=1;fillColor=#f8cecc;strokeColor=#b85450;" parent="1" vertex="1">
          <mxGeometry x="210" y="770" width="70" height="80" as="geometry" />
        </mxCell>
        <mxCell id="qrhTBZqcDBaqj9OsFunk-409" value="Show" style="ellipse;shape=umlControl;whiteSpace=wrap;html=1;fillColor=#f8cecc;strokeColor=#b85450;" parent="1" vertex="1">
          <mxGeometry x="210" y="1228" width="70" height="80" as="geometry" />
        </mxCell>
        <mxCell id="qrhTBZqcDBaqj9OsFunk-410" value="" style="endArrow=open;endFill=1;endSize=12;html=1;rounded=0;exitX=0.823;exitY=0.198;exitDx=0;exitDy=0;exitPerimeter=0;fillColor=#f8cecc;strokeColor=#b85450;entryX=0.564;entryY=1.002;entryDx=0;entryDy=0;entryPerimeter=0;" parent="1" source="qrhTBZqcDBaqj9OsFunk-409" target="qrhTBZqcDBaqj9OsFunk-389" edge="1">
          <mxGeometry width="160" relative="1" as="geometry">
            <mxPoint x="490" y="1221" as="sourcePoint" />
            <mxPoint x="430" y="1260" as="targetPoint" />
          </mxGeometry>
        </mxCell>
        <mxCell id="qrhTBZqcDBaqj9OsFunk-411" value="" style="endArrow=open;endFill=1;endSize=12;html=1;rounded=0;exitX=0.871;exitY=0.944;exitDx=0;exitDy=0;exitPerimeter=0;fillColor=#f8cecc;strokeColor=#b85450;entryX=0.512;entryY=-0.023;entryDx=0;entryDy=0;entryPerimeter=0;" parent="1" source="qrhTBZqcDBaqj9OsFunk-408" target="qrhTBZqcDBaqj9OsFunk-377" edge="1">
          <mxGeometry width="160" relative="1" as="geometry">
            <mxPoint x="360" y="810" as="sourcePoint" />
            <mxPoint x="290" y="820" as="targetPoint" />
          </mxGeometry>
        </mxCell>
        <mxCell id="6GdseGKgYa6HGf_YkE8o-1" value="Show" style="ellipse;shape=umlControl;whiteSpace=wrap;html=1;" parent="1" vertex="1">
          <mxGeometry x="425" y="1670" width="70" height="80" as="geometry" />
        </mxCell>
        <mxCell id="6GdseGKgYa6HGf_YkE8o-30" style="rounded=0;orthogonalLoop=1;jettySize=auto;html=1;exitX=0.5;exitY=0.5;exitDx=0;exitDy=0;exitPerimeter=0;entryX=-0.034;entryY=0.486;entryDx=0;entryDy=0;entryPerimeter=0;" parent="1" source="6GdseGKgYa6HGf_YkE8o-2" target="6GdseGKgYa6HGf_YkE8o-29" edge="1">
          <mxGeometry relative="1" as="geometry">
            <mxPoint x="130" y="1840" as="targetPoint" />
          </mxGeometry>
        </mxCell>
        <mxCell id="6GdseGKgYa6HGf_YkE8o-2" value="Finder" style="shape=umlActor;verticalLabelPosition=bottom;verticalAlign=top;html=1;" parent="1" vertex="1">
          <mxGeometry x="70" y="1540" width="30" height="60" as="geometry" />
        </mxCell>
        <mxCell id="6GdseGKgYa6HGf_YkE8o-3" value="Login screen" style="shape=umlBoundary;whiteSpace=wrap;html=1;" parent="1" vertex="1">
          <mxGeometry x="225" y="1530" width="100" height="80" as="geometry" />
        </mxCell>
        <mxCell id="6GdseGKgYa6HGf_YkE8o-4" value="" style="edgeStyle=none;rounded=0;orthogonalLoop=1;jettySize=auto;html=1;" parent="1" source="6GdseGKgYa6HGf_YkE8o-5" edge="1">
          <mxGeometry relative="1" as="geometry">
            <mxPoint x="315" y="1670" as="targetPoint" />
          </mxGeometry>
        </mxCell>
        <mxCell id="6GdseGKgYa6HGf_YkE8o-5" value="Credentials&lt;div&gt;check&lt;/div&gt;" style="ellipse;shape=umlControl;whiteSpace=wrap;html=1;" parent="1" vertex="1">
          <mxGeometry x="415" y="1520" width="70" height="80" as="geometry" />
        </mxCell>
        <mxCell id="6GdseGKgYa6HGf_YkE8o-6" style="edgeStyle=none;rounded=0;orthogonalLoop=1;jettySize=auto;html=1;exitX=0.5;exitY=0.5;exitDx=0;exitDy=0;exitPerimeter=0;entryX=-0.04;entryY=0.525;entryDx=0;entryDy=0;entryPerimeter=0;" parent="1" source="6GdseGKgYa6HGf_YkE8o-2" target="6GdseGKgYa6HGf_YkE8o-3" edge="1">
          <mxGeometry relative="1" as="geometry" />
        </mxCell>
        <mxCell id="6GdseGKgYa6HGf_YkE8o-7" value="" style="endArrow=open;endFill=1;endSize=12;html=1;rounded=0;entryX=-0.029;entryY=0.615;entryDx=0;entryDy=0;entryPerimeter=0;" parent="1" target="6GdseGKgYa6HGf_YkE8o-5" edge="1">
          <mxGeometry width="160" relative="1" as="geometry">
            <mxPoint x="326" y="1570" as="sourcePoint" />
            <mxPoint x="355" y="1690" as="targetPoint" />
          </mxGeometry>
        </mxCell>
        <mxCell id="6GdseGKgYa6HGf_YkE8o-8" value="Types credentials" style="text;html=1;align=center;verticalAlign=middle;resizable=0;points=[];autosize=1;strokeColor=none;fillColor=none;" parent="1" vertex="1">
          <mxGeometry x="100" y="1545" width="120" height="30" as="geometry" />
        </mxCell>
        <mxCell id="6GdseGKgYa6HGf_YkE8o-9" value="&lt;div&gt;&lt;span style=&quot;background-color: transparent; color: light-dark(rgb(0, 0, 0), rgb(255, 255, 255));&quot;&gt;Data Base&lt;/span&gt;&lt;/div&gt;" style="ellipse;shape=umlEntity;whiteSpace=wrap;html=1;" parent="1" vertex="1">
          <mxGeometry x="525" y="1400" width="80" height="80" as="geometry" />
        </mxCell>
        <mxCell id="6GdseGKgYa6HGf_YkE8o-10" style="edgeStyle=none;rounded=0;orthogonalLoop=1;jettySize=auto;html=1;exitX=0;exitY=1;exitDx=0;exitDy=0;entryX=0.863;entryY=0.24;entryDx=0;entryDy=0;entryPerimeter=0;" parent="1" source="6GdseGKgYa6HGf_YkE8o-9" target="6GdseGKgYa6HGf_YkE8o-5" edge="1">
          <mxGeometry relative="1" as="geometry" />
        </mxCell>
        <mxCell id="6GdseGKgYa6HGf_YkE8o-11" value="" style="edgeStyle=none;rounded=0;orthogonalLoop=1;jettySize=auto;html=1;" parent="1" source="6GdseGKgYa6HGf_YkE8o-12" edge="1">
          <mxGeometry relative="1" as="geometry">
            <mxPoint x="425" y="1710" as="targetPoint" />
          </mxGeometry>
        </mxCell>
        <mxCell id="6GdseGKgYa6HGf_YkE8o-12" value="Main menu" style="shape=umlBoundary;whiteSpace=wrap;html=1;" parent="1" vertex="1">
          <mxGeometry x="245" y="1670" width="100" height="80" as="geometry" />
        </mxCell>
        <mxCell id="6GdseGKgYa6HGf_YkE8o-13" style="edgeStyle=none;rounded=0;orthogonalLoop=1;jettySize=auto;html=1;exitX=0.5;exitY=0.5;exitDx=0;exitDy=0;exitPerimeter=0;entryX=-0.036;entryY=0.52;entryDx=0;entryDy=0;entryPerimeter=0;" parent="1" source="6GdseGKgYa6HGf_YkE8o-2" target="6GdseGKgYa6HGf_YkE8o-12" edge="1">
          <mxGeometry relative="1" as="geometry" />
        </mxCell>
        <mxCell id="6GdseGKgYa6HGf_YkE8o-14" value="Lost Items Filter" style="text;html=1;align=center;verticalAlign=middle;resizable=0;points=[];autosize=1;strokeColor=none;fillColor=none;rotation=45;" parent="1" vertex="1">
          <mxGeometry x="125" y="1630" width="110" height="30" as="geometry" />
        </mxCell>
        <mxCell id="6GdseGKgYa6HGf_YkE8o-16" value="" style="endArrow=open;endFill=1;endSize=12;html=1;rounded=0;exitX=0.143;exitY=0.25;exitDx=0;exitDy=0;exitPerimeter=0;fillColor=#f8cecc;strokeColor=#b85450;" parent="1" source="6GdseGKgYa6HGf_YkE8o-5" edge="1">
          <mxGeometry width="160" relative="1" as="geometry">
            <mxPoint x="375" y="1650" as="sourcePoint" />
            <mxPoint x="365" y="1480" as="targetPoint" />
          </mxGeometry>
        </mxCell>
        <mxCell id="6GdseGKgYa6HGf_YkE8o-17" value="Error&amp;nbsp;Popup message&lt;div&gt;screen&lt;/div&gt;" style="shape=umlBoundary;whiteSpace=wrap;html=1;fillColor=#f8cecc;strokeColor=#b85450;" parent="1" vertex="1">
          <mxGeometry x="305" y="1400" width="100" height="80" as="geometry" />
        </mxCell>
        <mxCell id="6GdseGKgYa6HGf_YkE8o-18" value="" style="endArrow=open;endFill=1;endSize=12;html=1;rounded=0;exitX=0.3;exitY=0.875;exitDx=0;exitDy=0;exitPerimeter=0;fillColor=#f8cecc;strokeColor=#b85450;" parent="1" source="6GdseGKgYa6HGf_YkE8o-17" edge="1">
          <mxGeometry width="160" relative="1" as="geometry">
            <mxPoint x="435" y="1550" as="sourcePoint" />
            <mxPoint x="265" y="1480" as="targetPoint" />
          </mxGeometry>
        </mxCell>
        <mxCell id="6GdseGKgYa6HGf_YkE8o-19" value="Wrong Credentials" style="text;html=1;align=center;verticalAlign=middle;resizable=0;points=[];autosize=1;strokeColor=none;fillColor=none;" parent="1" vertex="1">
          <mxGeometry x="325" y="1480" width="120" height="30" as="geometry" />
        </mxCell>
        <mxCell id="6GdseGKgYa6HGf_YkE8o-20" value="Show" style="ellipse;shape=umlControl;whiteSpace=wrap;html=1;fillColor=#f8cecc;strokeColor=#b85450;" parent="1" vertex="1">
          <mxGeometry x="195" y="1440" width="70" height="80" as="geometry" />
        </mxCell>
        <mxCell id="6GdseGKgYa6HGf_YkE8o-21" value="" style="endArrow=open;endFill=1;endSize=12;html=1;rounded=0;exitX=0.871;exitY=0.944;exitDx=0;exitDy=0;exitPerimeter=0;fillColor=#f8cecc;strokeColor=#b85450;entryX=0.512;entryY=-0.023;entryDx=0;entryDy=0;entryPerimeter=0;" parent="1" source="6GdseGKgYa6HGf_YkE8o-20" target="6GdseGKgYa6HGf_YkE8o-3" edge="1">
          <mxGeometry width="160" relative="1" as="geometry">
            <mxPoint x="345" y="1480" as="sourcePoint" />
            <mxPoint x="275" y="1490" as="targetPoint" />
          </mxGeometry>
        </mxCell>
        <mxCell id="6GdseGKgYa6HGf_YkE8o-22" value="3." style="text;html=1;align=center;verticalAlign=middle;resizable=0;points=[];autosize=1;strokeColor=none;fillColor=none;" parent="1" vertex="1">
          <mxGeometry x="65" y="1348" width="30" height="30" as="geometry" />
        </mxCell>
        <mxCell id="6GdseGKgYa6HGf_YkE8o-28" value="" style="edgeStyle=none;rounded=0;orthogonalLoop=1;jettySize=auto;html=1;entryX=0.859;entryY=0.117;entryDx=0;entryDy=0;entryPerimeter=0;" parent="1" target="6GdseGKgYa6HGf_YkE8o-29" edge="1">
          <mxGeometry relative="1" as="geometry">
            <mxPoint x="330" y="1827" as="targetPoint" />
            <mxPoint x="436" y="1740" as="sourcePoint" />
          </mxGeometry>
        </mxCell>
        <mxCell id="6GdseGKgYa6HGf_YkE8o-33" value="" style="edgeStyle=orthogonalEdgeStyle;rounded=0;orthogonalLoop=1;jettySize=auto;html=1;" parent="1" source="6GdseGKgYa6HGf_YkE8o-29" target="6GdseGKgYa6HGf_YkE8o-32" edge="1">
          <mxGeometry relative="1" as="geometry" />
        </mxCell>
        <mxCell id="6GdseGKgYa6HGf_YkE8o-46" value="" style="edgeStyle=orthogonalEdgeStyle;rounded=0;orthogonalLoop=1;jettySize=auto;html=1;" parent="1" source="6GdseGKgYa6HGf_YkE8o-29" target="6GdseGKgYa6HGf_YkE8o-32" edge="1">
          <mxGeometry relative="1" as="geometry" />
        </mxCell>
        <mxCell id="6GdseGKgYa6HGf_YkE8o-29" value="Lost Items&amp;nbsp;&lt;div&gt;Posts screen&lt;/div&gt;" style="shape=umlBoundary;whiteSpace=wrap;html=1;" parent="1" vertex="1">
          <mxGeometry x="250" y="1780" width="100" height="80" as="geometry" />
        </mxCell>
        <mxCell id="6GdseGKgYa6HGf_YkE8o-31" value="Selects Post" style="text;html=1;align=center;verticalAlign=middle;resizable=0;points=[];autosize=1;strokeColor=none;fillColor=none;rotation=60;" parent="1" vertex="1">
          <mxGeometry x="150" y="1710" width="90" height="30" as="geometry" />
        </mxCell>
        <mxCell id="6GdseGKgYa6HGf_YkE8o-35" value="" style="rounded=0;orthogonalLoop=1;jettySize=auto;html=1;exitX=0.292;exitY=0.986;exitDx=0;exitDy=0;exitPerimeter=0;" parent="1" source="6GdseGKgYa6HGf_YkE8o-32" target="6GdseGKgYa6HGf_YkE8o-34" edge="1">
          <mxGeometry relative="1" as="geometry">
            <mxPoint x="450" y="1900" as="sourcePoint" />
          </mxGeometry>
        </mxCell>
        <mxCell id="6GdseGKgYa6HGf_YkE8o-32" value="Show" style="ellipse;shape=umlControl;whiteSpace=wrap;html=1;" parent="1" vertex="1">
          <mxGeometry x="425" y="1780" width="70" height="80" as="geometry" />
        </mxCell>
        <mxCell id="6GdseGKgYa6HGf_YkE8o-40" value="" style="edgeStyle=orthogonalEdgeStyle;rounded=0;orthogonalLoop=1;jettySize=auto;html=1;" parent="1" source="6GdseGKgYa6HGf_YkE8o-34" target="6GdseGKgYa6HGf_YkE8o-39" edge="1">
          <mxGeometry relative="1" as="geometry" />
        </mxCell>
        <mxCell id="6GdseGKgYa6HGf_YkE8o-34" value="Item Post" style="shape=umlBoundary;whiteSpace=wrap;html=1;" parent="1" vertex="1">
          <mxGeometry x="250" y="1900" width="100" height="80" as="geometry" />
        </mxCell>
        <mxCell id="6GdseGKgYa6HGf_YkE8o-37" style="rounded=0;orthogonalLoop=1;jettySize=auto;html=1;exitX=0.5;exitY=0.5;exitDx=0;exitDy=0;exitPerimeter=0;entryX=-0.016;entryY=0.489;entryDx=0;entryDy=0;entryPerimeter=0;" parent="1" source="6GdseGKgYa6HGf_YkE8o-2" target="6GdseGKgYa6HGf_YkE8o-34" edge="1">
          <mxGeometry relative="1" as="geometry" />
        </mxCell>
        <mxCell id="6GdseGKgYa6HGf_YkE8o-38" value="I found this Item" style="text;html=1;align=center;verticalAlign=middle;resizable=0;points=[];autosize=1;strokeColor=none;fillColor=none;rotation=60;" parent="1" vertex="1">
          <mxGeometry x="120" y="1790" width="110" height="30" as="geometry" />
        </mxCell>
        <mxCell id="6GdseGKgYa6HGf_YkE8o-45" value="" style="edgeStyle=orthogonalEdgeStyle;rounded=0;orthogonalLoop=1;jettySize=auto;html=1;" parent="1" source="6GdseGKgYa6HGf_YkE8o-39" target="6GdseGKgYa6HGf_YkE8o-44" edge="1">
          <mxGeometry relative="1" as="geometry" />
        </mxCell>
        <mxCell id="6GdseGKgYa6HGf_YkE8o-39" value="Notifies Item Owner" style="ellipse;shape=umlControl;whiteSpace=wrap;html=1;" parent="1" vertex="1">
          <mxGeometry x="530" y="1900" width="70" height="80" as="geometry" />
        </mxCell>
        <mxCell id="6GdseGKgYa6HGf_YkE8o-41" style="rounded=0;orthogonalLoop=1;jettySize=auto;html=1;exitX=0.5;exitY=1;exitDx=0;exitDy=0;entryX=0.512;entryY=0.107;entryDx=0;entryDy=0;entryPerimeter=0;" parent="1" source="6GdseGKgYa6HGf_YkE8o-9" target="6GdseGKgYa6HGf_YkE8o-39" edge="1">
          <mxGeometry relative="1" as="geometry" />
        </mxCell>
        <mxCell id="6GdseGKgYa6HGf_YkE8o-44" value="Popup message&lt;div&gt;&quot;Waiting For Reply&quot;&lt;/div&gt;" style="shape=umlBoundary;whiteSpace=wrap;html=1;" parent="1" vertex="1">
          <mxGeometry x="660" y="1900" width="100" height="80" as="geometry" />
        </mxCell>
        <mxCell id="6GdseGKgYa6HGf_YkE8o-51" value="" style="edgeStyle=orthogonalEdgeStyle;rounded=0;orthogonalLoop=1;jettySize=auto;html=1;fillColor=#f8cecc;strokeColor=#b85450;" parent="1" source="6GdseGKgYa6HGf_YkE8o-48" target="6GdseGKgYa6HGf_YkE8o-50" edge="1">
          <mxGeometry relative="1" as="geometry" />
        </mxCell>
        <mxCell id="6GdseGKgYa6HGf_YkE8o-53" value="" style="rounded=0;orthogonalLoop=1;jettySize=auto;html=1;entryX=0.566;entryY=0.01;entryDx=0;entryDy=0;entryPerimeter=0;fillColor=#f8cecc;strokeColor=#b85450;" parent="1" source="6GdseGKgYa6HGf_YkE8o-48" target="6GdseGKgYa6HGf_YkE8o-54" edge="1">
          <mxGeometry relative="1" as="geometry">
            <mxPoint x="615" y="1800" as="targetPoint" />
          </mxGeometry>
        </mxCell>
        <mxCell id="6GdseGKgYa6HGf_YkE8o-48" value="No Post selected" style="ellipse;shape=umlControl;whiteSpace=wrap;html=1;fillColor=#f8cecc;strokeColor=#b85450;" parent="1" vertex="1">
          <mxGeometry x="580" y="1670" width="70" height="80" as="geometry" />
        </mxCell>
        <mxCell id="6GdseGKgYa6HGf_YkE8o-49" value="" style="endArrow=open;endFill=1;endSize=12;html=1;rounded=0;exitX=0.972;exitY=0.281;exitDx=0;exitDy=0;exitPerimeter=0;entryX=0.037;entryY=0.787;entryDx=0;entryDy=0;entryPerimeter=0;fillColor=#f8cecc;strokeColor=#b85450;" parent="1" source="6GdseGKgYa6HGf_YkE8o-29" target="6GdseGKgYa6HGf_YkE8o-48" edge="1">
          <mxGeometry width="160" relative="1" as="geometry">
            <mxPoint x="336" y="1580" as="sourcePoint" />
            <mxPoint x="600" y="1670" as="targetPoint" />
          </mxGeometry>
        </mxCell>
        <mxCell id="6GdseGKgYa6HGf_YkE8o-50" value="Use Case 2" style="whiteSpace=wrap;html=1;fillColor=#f8cecc;strokeColor=#b85450;" parent="1" vertex="1">
          <mxGeometry x="680" y="1680" width="120" height="60" as="geometry" />
        </mxCell>
        <mxCell id="6GdseGKgYa6HGf_YkE8o-54" value="Log out screen" style="shape=umlBoundary;whiteSpace=wrap;html=1;fillColor=#f8cecc;strokeColor=#b85450;" parent="1" vertex="1">
          <mxGeometry x="610" y="1780" width="100" height="80" as="geometry" />
        </mxCell>
        <mxCell id="6GdseGKgYa6HGf_YkE8o-55" value="4." style="text;html=1;align=center;verticalAlign=middle;resizable=0;points=[];autosize=1;strokeColor=none;fillColor=none;" parent="1" vertex="1">
          <mxGeometry x="15" y="2088" width="30" height="30" as="geometry" />
        </mxCell>
        <mxCell id="6GdseGKgYa6HGf_YkE8o-78" value="" style="rounded=0;orthogonalLoop=1;jettySize=auto;html=1;entryX=0.797;entryY=0.105;entryDx=0;entryDy=0;entryPerimeter=0;" parent="1" source="6GdseGKgYa6HGf_YkE8o-56" target="6GdseGKgYa6HGf_YkE8o-67" edge="1">
          <mxGeometry relative="1" as="geometry">
            <mxPoint x="380" y="2510" as="targetPoint" />
          </mxGeometry>
        </mxCell>
        <mxCell id="6GdseGKgYa6HGf_YkE8o-56" value="Updates Notifications" style="ellipse;shape=umlControl;whiteSpace=wrap;html=1;" parent="1" vertex="1">
          <mxGeometry x="345" y="2320" width="70" height="80" as="geometry" />
        </mxCell>
        <mxCell id="6GdseGKgYa6HGf_YkE8o-81" style="rounded=0;orthogonalLoop=1;jettySize=auto;html=1;exitX=0.5;exitY=0.5;exitDx=0;exitDy=0;exitPerimeter=0;entryX=0.02;entryY=0.695;entryDx=0;entryDy=0;entryPerimeter=0;" parent="1" source="6GdseGKgYa6HGf_YkE8o-57" edge="1">
          <mxGeometry relative="1" as="geometry">
            <mxPoint x="252" y="2545.6" as="targetPoint" />
          </mxGeometry>
        </mxCell>
        <mxCell id="6GdseGKgYa6HGf_YkE8o-57" value="Lost item Owner" style="shape=umlActor;verticalLabelPosition=bottom;verticalAlign=top;html=1;" parent="1" vertex="1">
          <mxGeometry x="35" y="2380" width="30" height="60" as="geometry" />
        </mxCell>
        <mxCell id="6GdseGKgYa6HGf_YkE8o-58" value="Login screen" style="shape=umlBoundary;whiteSpace=wrap;html=1;" parent="1" vertex="1">
          <mxGeometry x="230" y="2260" width="100" height="80" as="geometry" />
        </mxCell>
        <mxCell id="6GdseGKgYa6HGf_YkE8o-84" value="" style="rounded=0;orthogonalLoop=1;jettySize=auto;html=1;" parent="1" source="6GdseGKgYa6HGf_YkE8o-60" target="6GdseGKgYa6HGf_YkE8o-56" edge="1">
          <mxGeometry relative="1" as="geometry" />
        </mxCell>
        <mxCell id="6GdseGKgYa6HGf_YkE8o-60" value="Credentials&lt;div&gt;check&lt;/div&gt;" style="ellipse;shape=umlControl;whiteSpace=wrap;html=1;" parent="1" vertex="1">
          <mxGeometry x="420" y="2250" width="70" height="80" as="geometry" />
        </mxCell>
        <mxCell id="6GdseGKgYa6HGf_YkE8o-61" style="edgeStyle=none;rounded=0;orthogonalLoop=1;jettySize=auto;html=1;exitX=0.5;exitY=0.5;exitDx=0;exitDy=0;exitPerimeter=0;entryX=-0.04;entryY=0.525;entryDx=0;entryDy=0;entryPerimeter=0;" parent="1" source="6GdseGKgYa6HGf_YkE8o-57" target="6GdseGKgYa6HGf_YkE8o-58" edge="1">
          <mxGeometry relative="1" as="geometry" />
        </mxCell>
        <mxCell id="6GdseGKgYa6HGf_YkE8o-62" value="" style="endArrow=open;endFill=1;endSize=12;html=1;rounded=0;entryX=-0.029;entryY=0.615;entryDx=0;entryDy=0;entryPerimeter=0;" parent="1" target="6GdseGKgYa6HGf_YkE8o-60" edge="1">
          <mxGeometry width="160" relative="1" as="geometry">
            <mxPoint x="331" y="2300" as="sourcePoint" />
            <mxPoint x="360" y="2420" as="targetPoint" />
          </mxGeometry>
        </mxCell>
        <mxCell id="6GdseGKgYa6HGf_YkE8o-63" value="Types credentials" style="text;html=1;align=center;verticalAlign=middle;resizable=0;points=[];autosize=1;strokeColor=none;fillColor=none;rotation=-15;" parent="1" vertex="1">
          <mxGeometry x="95" y="2310" width="120" height="30" as="geometry" />
        </mxCell>
        <mxCell id="6GdseGKgYa6HGf_YkE8o-115" style="edgeStyle=orthogonalEdgeStyle;rounded=0;orthogonalLoop=1;jettySize=auto;html=1;exitX=0.5;exitY=1;exitDx=0;exitDy=0;" parent="1" source="6GdseGKgYa6HGf_YkE8o-64" target="6GdseGKgYa6HGf_YkE8o-113" edge="1">
          <mxGeometry relative="1" as="geometry" />
        </mxCell>
        <mxCell id="6GdseGKgYa6HGf_YkE8o-64" value="&lt;div&gt;&lt;span style=&quot;background-color: transparent; color: light-dark(rgb(0, 0, 0), rgb(255, 255, 255));&quot;&gt;Data Base&lt;/span&gt;&lt;/div&gt;" style="ellipse;shape=umlEntity;whiteSpace=wrap;html=1;" parent="1" vertex="1">
          <mxGeometry x="530" y="2130" width="80" height="80" as="geometry" />
        </mxCell>
        <mxCell id="6GdseGKgYa6HGf_YkE8o-65" style="edgeStyle=none;rounded=0;orthogonalLoop=1;jettySize=auto;html=1;exitX=0;exitY=1;exitDx=0;exitDy=0;entryX=0.863;entryY=0.24;entryDx=0;entryDy=0;entryPerimeter=0;" parent="1" source="6GdseGKgYa6HGf_YkE8o-64" target="6GdseGKgYa6HGf_YkE8o-60" edge="1">
          <mxGeometry relative="1" as="geometry" />
        </mxCell>
        <mxCell id="6GdseGKgYa6HGf_YkE8o-87" value="" style="edgeStyle=orthogonalEdgeStyle;rounded=0;orthogonalLoop=1;jettySize=auto;html=1;" parent="1" source="6GdseGKgYa6HGf_YkE8o-67" edge="1">
          <mxGeometry relative="1" as="geometry">
            <mxPoint x="430" y="2440" as="targetPoint" />
          </mxGeometry>
        </mxCell>
        <mxCell id="6GdseGKgYa6HGf_YkE8o-67" value="Main menu" style="shape=umlBoundary;whiteSpace=wrap;html=1;" parent="1" vertex="1">
          <mxGeometry x="250" y="2400" width="100" height="80" as="geometry" />
        </mxCell>
        <mxCell id="6GdseGKgYa6HGf_YkE8o-68" style="edgeStyle=none;rounded=0;orthogonalLoop=1;jettySize=auto;html=1;exitX=0.5;exitY=0.5;exitDx=0;exitDy=0;exitPerimeter=0;entryX=-0.036;entryY=0.52;entryDx=0;entryDy=0;entryPerimeter=0;" parent="1" source="6GdseGKgYa6HGf_YkE8o-57" target="6GdseGKgYa6HGf_YkE8o-67" edge="1">
          <mxGeometry relative="1" as="geometry" />
        </mxCell>
        <mxCell id="6GdseGKgYa6HGf_YkE8o-71" value="" style="endArrow=open;endFill=1;endSize=12;html=1;rounded=0;exitX=0.143;exitY=0.25;exitDx=0;exitDy=0;exitPerimeter=0;fillColor=#f8cecc;strokeColor=#b85450;" parent="1" source="6GdseGKgYa6HGf_YkE8o-60" edge="1">
          <mxGeometry width="160" relative="1" as="geometry">
            <mxPoint x="380" y="2380" as="sourcePoint" />
            <mxPoint x="370" y="2210" as="targetPoint" />
          </mxGeometry>
        </mxCell>
        <mxCell id="6GdseGKgYa6HGf_YkE8o-72" value="Error&amp;nbsp;Popup message&lt;div&gt;screen&lt;/div&gt;" style="shape=umlBoundary;whiteSpace=wrap;html=1;fillColor=#f8cecc;strokeColor=#b85450;" parent="1" vertex="1">
          <mxGeometry x="310" y="2130" width="100" height="80" as="geometry" />
        </mxCell>
        <mxCell id="6GdseGKgYa6HGf_YkE8o-73" value="" style="endArrow=open;endFill=1;endSize=12;html=1;rounded=0;exitX=0.3;exitY=0.875;exitDx=0;exitDy=0;exitPerimeter=0;fillColor=#f8cecc;strokeColor=#b85450;" parent="1" source="6GdseGKgYa6HGf_YkE8o-72" edge="1">
          <mxGeometry width="160" relative="1" as="geometry">
            <mxPoint x="440" y="2280" as="sourcePoint" />
            <mxPoint x="270" y="2210" as="targetPoint" />
          </mxGeometry>
        </mxCell>
        <mxCell id="6GdseGKgYa6HGf_YkE8o-74" value="Wrong Credentials" style="text;html=1;align=center;verticalAlign=middle;resizable=0;points=[];autosize=1;strokeColor=none;fillColor=none;" parent="1" vertex="1">
          <mxGeometry x="330" y="2210" width="120" height="30" as="geometry" />
        </mxCell>
        <mxCell id="6GdseGKgYa6HGf_YkE8o-75" value="Show" style="ellipse;shape=umlControl;whiteSpace=wrap;html=1;fillColor=#f8cecc;strokeColor=#b85450;" parent="1" vertex="1">
          <mxGeometry x="200" y="2170" width="70" height="80" as="geometry" />
        </mxCell>
        <mxCell id="6GdseGKgYa6HGf_YkE8o-76" value="" style="endArrow=open;endFill=1;endSize=12;html=1;rounded=0;exitX=0.871;exitY=0.944;exitDx=0;exitDy=0;exitPerimeter=0;fillColor=#f8cecc;strokeColor=#b85450;entryX=0.512;entryY=-0.023;entryDx=0;entryDy=0;entryPerimeter=0;" parent="1" source="6GdseGKgYa6HGf_YkE8o-75" target="6GdseGKgYa6HGf_YkE8o-58" edge="1">
          <mxGeometry width="160" relative="1" as="geometry">
            <mxPoint x="350" y="2210" as="sourcePoint" />
            <mxPoint x="280" y="2220" as="targetPoint" />
          </mxGeometry>
        </mxCell>
        <mxCell id="6GdseGKgYa6HGf_YkE8o-85" value="Checks Notifications" style="text;html=1;align=center;verticalAlign=middle;resizable=0;points=[];autosize=1;strokeColor=none;fillColor=none;rotation=15;" parent="1" vertex="1">
          <mxGeometry x="100" y="2400" width="130" height="30" as="geometry" />
        </mxCell>
        <mxCell id="6GdseGKgYa6HGf_YkE8o-91" value="" style="rounded=0;orthogonalLoop=1;jettySize=auto;html=1;entryX=0.84;entryY=0.155;entryDx=0;entryDy=0;entryPerimeter=0;" parent="1" source="6GdseGKgYa6HGf_YkE8o-88" target="6GdseGKgYa6HGf_YkE8o-89" edge="1">
          <mxGeometry relative="1" as="geometry">
            <mxPoint x="465" y="2560" as="targetPoint" />
          </mxGeometry>
        </mxCell>
        <mxCell id="6GdseGKgYa6HGf_YkE8o-88" value="Show" style="ellipse;shape=umlControl;whiteSpace=wrap;html=1;" parent="1" vertex="1">
          <mxGeometry x="430" y="2400" width="70" height="80" as="geometry" />
        </mxCell>
        <mxCell id="6GdseGKgYa6HGf_YkE8o-93" value="" style="rounded=0;orthogonalLoop=1;jettySize=auto;html=1;" parent="1" source="6GdseGKgYa6HGf_YkE8o-89" target="6GdseGKgYa6HGf_YkE8o-92" edge="1">
          <mxGeometry relative="1" as="geometry" />
        </mxCell>
        <mxCell id="6GdseGKgYa6HGf_YkE8o-89" value="Active Chat&lt;div&gt;Menu&lt;/div&gt;" style="shape=umlBoundary;whiteSpace=wrap;html=1;" parent="1" vertex="1">
          <mxGeometry x="250" y="2510" width="100" height="80" as="geometry" />
        </mxCell>
        <mxCell id="6GdseGKgYa6HGf_YkE8o-97" value="" style="rounded=0;orthogonalLoop=1;jettySize=auto;html=1;" parent="1" source="6GdseGKgYa6HGf_YkE8o-92" target="6GdseGKgYa6HGf_YkE8o-96" edge="1">
          <mxGeometry relative="1" as="geometry" />
        </mxCell>
        <mxCell id="6GdseGKgYa6HGf_YkE8o-92" value="Show Drop-off Points&amp;nbsp;" style="ellipse;shape=umlControl;whiteSpace=wrap;html=1;" parent="1" vertex="1">
          <mxGeometry x="445" y="2535" width="70" height="80" as="geometry" />
        </mxCell>
        <mxCell id="6GdseGKgYa6HGf_YkE8o-95" value="Selects to use a Drop-off Point" style="text;html=1;align=center;verticalAlign=middle;resizable=0;points=[];autosize=1;strokeColor=none;fillColor=none;rotation=30;" parent="1" vertex="1">
          <mxGeometry x="70" y="2460" width="190" height="30" as="geometry" />
        </mxCell>
        <mxCell id="6GdseGKgYa6HGf_YkE8o-104" value="" style="edgeStyle=orthogonalEdgeStyle;rounded=0;orthogonalLoop=1;jettySize=auto;html=1;" parent="1" source="6GdseGKgYa6HGf_YkE8o-96" target="6GdseGKgYa6HGf_YkE8o-103" edge="1">
          <mxGeometry relative="1" as="geometry" />
        </mxCell>
        <mxCell id="6GdseGKgYa6HGf_YkE8o-96" value="Drop-off points List" style="shape=umlBoundary;whiteSpace=wrap;html=1;" parent="1" vertex="1">
          <mxGeometry x="235" y="2620" width="100" height="80" as="geometry" />
        </mxCell>
        <mxCell id="6GdseGKgYa6HGf_YkE8o-98" style="rounded=0;orthogonalLoop=1;jettySize=auto;html=1;exitX=0.5;exitY=0.5;exitDx=0;exitDy=0;exitPerimeter=0;entryX=-0.006;entryY=0.52;entryDx=0;entryDy=0;entryPerimeter=0;" parent="1" source="6GdseGKgYa6HGf_YkE8o-57" target="6GdseGKgYa6HGf_YkE8o-96" edge="1">
          <mxGeometry relative="1" as="geometry" />
        </mxCell>
        <mxCell id="6GdseGKgYa6HGf_YkE8o-99" value="Chooses Drop-off point" style="text;html=1;align=center;verticalAlign=middle;resizable=0;points=[];autosize=1;strokeColor=none;fillColor=none;rotation=60;" parent="1" vertex="1">
          <mxGeometry x="105" y="2560" width="150" height="30" as="geometry" />
        </mxCell>
        <mxCell id="6GdseGKgYa6HGf_YkE8o-107" value="" style="rounded=0;orthogonalLoop=1;jettySize=auto;html=1;" parent="1" source="6GdseGKgYa6HGf_YkE8o-103" target="6GdseGKgYa6HGf_YkE8o-106" edge="1">
          <mxGeometry relative="1" as="geometry" />
        </mxCell>
        <mxCell id="6GdseGKgYa6HGf_YkE8o-103" value="Show" style="ellipse;shape=umlControl;whiteSpace=wrap;html=1;" parent="1" vertex="1">
          <mxGeometry x="420" y="2620" width="70" height="80" as="geometry" />
        </mxCell>
        <mxCell id="6GdseGKgYa6HGf_YkE8o-105" style="rounded=0;orthogonalLoop=1;jettySize=auto;html=1;exitX=0.5;exitY=1;exitDx=0;exitDy=0;entryX=0.974;entryY=0.315;entryDx=0;entryDy=0;entryPerimeter=0;" parent="1" source="6GdseGKgYa6HGf_YkE8o-64" target="6GdseGKgYa6HGf_YkE8o-92" edge="1">
          <mxGeometry relative="1" as="geometry" />
        </mxCell>
        <mxCell id="6GdseGKgYa6HGf_YkE8o-114" value="" style="edgeStyle=orthogonalEdgeStyle;rounded=0;orthogonalLoop=1;jettySize=auto;html=1;" parent="1" source="6GdseGKgYa6HGf_YkE8o-106" target="6GdseGKgYa6HGf_YkE8o-113" edge="1">
          <mxGeometry relative="1" as="geometry" />
        </mxCell>
        <mxCell id="6GdseGKgYa6HGf_YkE8o-106" value="Meeting Form Screen" style="shape=umlBoundary;whiteSpace=wrap;html=1;" parent="1" vertex="1">
          <mxGeometry x="235" y="2710" width="100" height="80" as="geometry" />
        </mxCell>
        <mxCell id="6GdseGKgYa6HGf_YkE8o-108" style="rounded=0;orthogonalLoop=1;jettySize=auto;html=1;exitX=0.5;exitY=0.5;exitDx=0;exitDy=0;exitPerimeter=0;entryX=-0.05;entryY=0.5;entryDx=0;entryDy=0;entryPerimeter=0;" parent="1" source="6GdseGKgYa6HGf_YkE8o-57" target="6GdseGKgYa6HGf_YkE8o-106" edge="1">
          <mxGeometry relative="1" as="geometry" />
        </mxCell>
        <mxCell id="6GdseGKgYa6HGf_YkE8o-109" value="Completes Form" style="text;html=1;align=center;verticalAlign=middle;resizable=0;points=[];autosize=1;strokeColor=none;fillColor=none;rotation=60;" parent="1" vertex="1">
          <mxGeometry x="115" y="2600" width="110" height="30" as="geometry" />
        </mxCell>
        <mxCell id="6GdseGKgYa6HGf_YkE8o-113" value="Updates Database and notifies other user" style="ellipse;shape=umlControl;whiteSpace=wrap;html=1;" parent="1" vertex="1">
          <mxGeometry x="535" y="2710" width="70" height="80" as="geometry" />
        </mxCell>
        <mxCell id="6GdseGKgYa6HGf_YkE8o-118" value="Popup&amp;nbsp;&lt;div&gt;&quot;Item ready for Pick-Up&quot;&lt;/div&gt;" style="shape=umlBoundary;whiteSpace=wrap;html=1;" parent="1" vertex="1">
          <mxGeometry x="230" y="2810" width="100" height="80" as="geometry" />
        </mxCell>
        <mxCell id="6GdseGKgYa6HGf_YkE8o-122" value="" style="rounded=0;orthogonalLoop=1;jettySize=auto;html=1;fillColor=#fff2cc;strokeColor=#d6b656;exitX=1.071;exitY=0.5;exitDx=0;exitDy=0;exitPerimeter=0;" parent="1" source="6GdseGKgYa6HGf_YkE8o-113" target="6GdseGKgYa6HGf_YkE8o-123" edge="1">
          <mxGeometry relative="1" as="geometry">
            <mxPoint x="610" y="2688" as="sourcePoint" />
            <mxPoint x="685" y="2679" as="targetPoint" />
          </mxGeometry>
        </mxCell>
        <mxCell id="6GdseGKgYa6HGf_YkE8o-123" value="ΠΑΡΑΔΟΧΗ" style="whiteSpace=wrap;html=1;fillColor=#fff2cc;strokeColor=#d6b656;" parent="1" vertex="1">
          <mxGeometry x="630" y="2760" width="120" height="60" as="geometry" />
        </mxCell>
        <mxCell id="6GdseGKgYa6HGf_YkE8o-124" style="rounded=0;orthogonalLoop=1;jettySize=auto;html=1;exitX=0;exitY=1;exitDx=0;exitDy=0;fillColor=#fff2cc;strokeColor=#d6b656;" parent="1" source="6GdseGKgYa6HGf_YkE8o-123" target="6GdseGKgYa6HGf_YkE8o-128" edge="1">
          <mxGeometry relative="1" as="geometry" />
        </mxCell>
        <mxCell id="6GdseGKgYa6HGf_YkE8o-125" style="rounded=0;orthogonalLoop=1;jettySize=auto;html=1;exitX=0.5;exitY=0.5;exitDx=0;exitDy=0;exitPerimeter=0;entryX=-0.032;entryY=0.485;entryDx=0;entryDy=0;entryPerimeter=0;" parent="1" source="6GdseGKgYa6HGf_YkE8o-57" target="6GdseGKgYa6HGf_YkE8o-118" edge="1">
          <mxGeometry relative="1" as="geometry" />
        </mxCell>
        <mxCell id="6GdseGKgYa6HGf_YkE8o-127" value="&lt;span style=&quot;color: rgb(0, 0, 0); font-family: Helvetica; font-size: 12px; font-style: normal; font-variant-ligatures: normal; font-variant-caps: normal; font-weight: 400; letter-spacing: normal; orphans: 2; text-align: center; text-indent: 0px; text-transform: none; widows: 2; word-spacing: 0px; -webkit-text-stroke-width: 0px; white-space: nowrap; text-decoration-thickness: initial; text-decoration-style: initial; text-decoration-color: initial; float: none; display: inline !important;&quot;&gt;Checks Notifications&lt;/span&gt;" style="text;whiteSpace=wrap;html=1;rotation=60;" parent="1" vertex="1">
          <mxGeometry x="70" y="2650" width="140" height="40" as="geometry" />
        </mxCell>
        <mxCell id="6GdseGKgYa6HGf_YkE8o-130" value="" style="rounded=0;orthogonalLoop=1;jettySize=auto;html=1;" parent="1" source="6GdseGKgYa6HGf_YkE8o-128" target="6GdseGKgYa6HGf_YkE8o-118" edge="1">
          <mxGeometry relative="1" as="geometry" />
        </mxCell>
        <mxCell id="6GdseGKgYa6HGf_YkE8o-128" value="Show" style="ellipse;shape=umlControl;whiteSpace=wrap;html=1;" parent="1" vertex="1">
          <mxGeometry x="440" y="2760" width="70" height="80" as="geometry" />
        </mxCell>
        <mxCell id="6GdseGKgYa6HGf_YkE8o-132" value="" style="rounded=0;orthogonalLoop=1;jettySize=auto;html=1;exitX=1.028;exitY=0.593;exitDx=0;exitDy=0;exitPerimeter=0;" parent="1" source="6GdseGKgYa6HGf_YkE8o-118" edge="1">
          <mxGeometry relative="1" as="geometry">
            <mxPoint x="337.5" y="2890" as="sourcePoint" />
            <mxPoint x="417.5" y="2890" as="targetPoint" />
          </mxGeometry>
        </mxCell>
        <mxCell id="6GdseGKgYa6HGf_YkE8o-135" value="" style="rounded=0;orthogonalLoop=1;jettySize=auto;html=1;" parent="1" source="6GdseGKgYa6HGf_YkE8o-133" target="6GdseGKgYa6HGf_YkE8o-134" edge="1">
          <mxGeometry relative="1" as="geometry" />
        </mxCell>
        <mxCell id="6GdseGKgYa6HGf_YkE8o-133" value="Show" style="ellipse;shape=umlControl;whiteSpace=wrap;html=1;" parent="1" vertex="1">
          <mxGeometry x="417.5" y="2850" width="70" height="80" as="geometry" />
        </mxCell>
        <mxCell id="6GdseGKgYa6HGf_YkE8o-138" value="" style="rounded=0;orthogonalLoop=1;jettySize=auto;html=1;" parent="1" source="6GdseGKgYa6HGf_YkE8o-134" target="6GdseGKgYa6HGf_YkE8o-137" edge="1">
          <mxGeometry relative="1" as="geometry" />
        </mxCell>
        <mxCell id="6GdseGKgYa6HGf_YkE8o-156" value="" style="rounded=0;orthogonalLoop=1;jettySize=auto;html=1;fillColor=#f8cecc;strokeColor=#b85450;" parent="1" source="6GdseGKgYa6HGf_YkE8o-134" target="6GdseGKgYa6HGf_YkE8o-155" edge="1">
          <mxGeometry relative="1" as="geometry" />
        </mxCell>
        <mxCell id="6GdseGKgYa6HGf_YkE8o-134" value="Verify pickup screen" style="shape=umlBoundary;whiteSpace=wrap;html=1;" parent="1" vertex="1">
          <mxGeometry x="105" y="2910" width="100" height="80" as="geometry" />
        </mxCell>
        <mxCell id="6GdseGKgYa6HGf_YkE8o-136" style="rounded=0;orthogonalLoop=1;jettySize=auto;html=1;exitX=0.5;exitY=0.5;exitDx=0;exitDy=0;exitPerimeter=0;entryX=0.647;entryY=-0.013;entryDx=0;entryDy=0;entryPerimeter=0;" parent="1" source="6GdseGKgYa6HGf_YkE8o-57" target="6GdseGKgYa6HGf_YkE8o-134" edge="1">
          <mxGeometry relative="1" as="geometry" />
        </mxCell>
        <mxCell id="6GdseGKgYa6HGf_YkE8o-140" value="" style="edgeStyle=orthogonalEdgeStyle;rounded=0;orthogonalLoop=1;jettySize=auto;html=1;" parent="1" source="6GdseGKgYa6HGf_YkE8o-137" target="6GdseGKgYa6HGf_YkE8o-139" edge="1">
          <mxGeometry relative="1" as="geometry" />
        </mxCell>
        <mxCell id="6GdseGKgYa6HGf_YkE8o-137" value="Transfer Reward" style="ellipse;shape=umlControl;whiteSpace=wrap;html=1;" parent="1" vertex="1">
          <mxGeometry x="245" y="2940" width="70" height="80" as="geometry" />
        </mxCell>
        <mxCell id="6GdseGKgYa6HGf_YkE8o-142" value="" style="edgeStyle=orthogonalEdgeStyle;rounded=0;orthogonalLoop=1;jettySize=auto;html=1;entryX=0.004;entryY=0.496;entryDx=0;entryDy=0;entryPerimeter=0;" parent="1" source="6GdseGKgYa6HGf_YkE8o-139" target="6GdseGKgYa6HGf_YkE8o-144" edge="1">
          <mxGeometry relative="1" as="geometry">
            <mxPoint x="520" y="2980" as="targetPoint" />
          </mxGeometry>
        </mxCell>
        <mxCell id="6GdseGKgYa6HGf_YkE8o-139" value="Updates Database" style="ellipse;shape=umlControl;whiteSpace=wrap;html=1;" parent="1" vertex="1">
          <mxGeometry x="555" y="2940" width="70" height="80" as="geometry" />
        </mxCell>
        <mxCell id="6GdseGKgYa6HGf_YkE8o-144" value="Popup&lt;div&gt;&quot;Succesfull transaction&quot;&lt;/div&gt;" style="shape=umlBoundary;whiteSpace=wrap;html=1;" parent="1" vertex="1">
          <mxGeometry x="650" y="2940" width="100" height="80" as="geometry" />
        </mxCell>
        <mxCell id="6GdseGKgYa6HGf_YkE8o-145" style="rounded=0;orthogonalLoop=1;jettySize=auto;html=1;exitX=0.552;exitY=0.079;exitDx=0;exitDy=0;exitPerimeter=0;" parent="1" source="6GdseGKgYa6HGf_YkE8o-139" edge="1">
          <mxGeometry relative="1" as="geometry">
            <mxPoint x="600" y="2560.9143415178573" as="sourcePoint" />
            <mxPoint x="613" y="2190" as="targetPoint" />
            <Array as="points">
              <mxPoint x="770" y="2830" />
            </Array>
          </mxGeometry>
        </mxCell>
        <mxCell id="6GdseGKgYa6HGf_YkE8o-146" value="Verifies pick-up" style="text;html=1;align=center;verticalAlign=middle;resizable=0;points=[];autosize=1;strokeColor=none;fillColor=none;rotation=60;" parent="1" vertex="1">
          <mxGeometry x="70" y="2735" width="100" height="30" as="geometry" />
        </mxCell>
        <mxCell id="6GdseGKgYa6HGf_YkE8o-147" value="" style="rounded=0;orthogonalLoop=1;jettySize=auto;html=1;exitX=0.952;exitY=0.441;exitDx=0;exitDy=0;exitPerimeter=0;fillColor=#f8cecc;strokeColor=#b85450;" parent="1" source="6GdseGKgYa6HGf_YkE8o-89" edge="1">
          <mxGeometry relative="1" as="geometry">
            <mxPoint x="360" y="2567" as="sourcePoint" />
            <mxPoint x="590" y="2440" as="targetPoint" />
          </mxGeometry>
        </mxCell>
        <mxCell id="6GdseGKgYa6HGf_YkE8o-148" value="&lt;font style=&quot;color: rgb(255, 0, 0);&quot;&gt;Selects Live chat&lt;/font&gt;" style="text;html=1;align=center;verticalAlign=middle;resizable=0;points=[];autosize=1;strokeColor=none;fillColor=none;" parent="1" vertex="1">
          <mxGeometry x="405" y="2488" width="110" height="30" as="geometry" />
        </mxCell>
        <mxCell id="6GdseGKgYa6HGf_YkE8o-151" value="" style="rounded=0;orthogonalLoop=1;jettySize=auto;html=1;fillColor=#f8cecc;strokeColor=#b85450;" parent="1" source="6GdseGKgYa6HGf_YkE8o-149" target="6GdseGKgYa6HGf_YkE8o-150" edge="1">
          <mxGeometry relative="1" as="geometry" />
        </mxCell>
        <mxCell id="6GdseGKgYa6HGf_YkE8o-149" value="Show" style="ellipse;shape=umlControl;whiteSpace=wrap;html=1;fillColor=#f8cecc;strokeColor=#b85450;" parent="1" vertex="1">
          <mxGeometry x="590" y="2400" width="70" height="80" as="geometry" />
        </mxCell>
        <mxCell id="6GdseGKgYa6HGf_YkE8o-150" value="Live Chat&lt;div&gt;Screen&lt;/div&gt;" style="shape=umlBoundary;whiteSpace=wrap;html=1;fillColor=#f8cecc;strokeColor=#b85450;" parent="1" vertex="1">
          <mxGeometry x="595" y="2600" width="100" height="80" as="geometry" />
        </mxCell>
        <mxCell id="6GdseGKgYa6HGf_YkE8o-152" style="rounded=0;orthogonalLoop=1;jettySize=auto;html=1;entryX=0.808;entryY=0.062;entryDx=0;entryDy=0;entryPerimeter=0;fillColor=#f8cecc;strokeColor=#b85450;" parent="1" source="6GdseGKgYa6HGf_YkE8o-150" target="6GdseGKgYa6HGf_YkE8o-134" edge="1">
          <mxGeometry relative="1" as="geometry">
            <Array as="points">
              <mxPoint x="370" y="2760" />
            </Array>
          </mxGeometry>
        </mxCell>
        <mxCell id="6GdseGKgYa6HGf_YkE8o-157" style="rounded=0;orthogonalLoop=1;jettySize=auto;html=1;entryX=1;entryY=1;entryDx=0;entryDy=0;fillColor=#f8cecc;strokeColor=#b85450;edgeStyle=orthogonalEdgeStyle;curved=1;" parent="1" source="6GdseGKgYa6HGf_YkE8o-155" target="6GdseGKgYa6HGf_YkE8o-64" edge="1">
          <mxGeometry relative="1" as="geometry">
            <Array as="points">
              <mxPoint x="330" y="3170" />
              <mxPoint x="830" y="3170" />
              <mxPoint x="830" y="2198" />
            </Array>
          </mxGeometry>
        </mxCell>
        <mxCell id="6GdseGKgYa6HGf_YkE8o-155" value="Create Report, add to Report List" style="ellipse;shape=umlControl;whiteSpace=wrap;html=1;fillColor=#f8cecc;strokeColor=#b85450;" parent="1" vertex="1">
          <mxGeometry x="270" y="3070" width="70" height="80" as="geometry" />
        </mxCell>
        <mxCell id="6GdseGKgYa6HGf_YkE8o-158" value="&lt;span style=&quot;font-size:11.0pt;line-height:&lt;br/&gt;115%;font-family:&amp;quot;Calibri&amp;quot;,&amp;quot;sans-serif&amp;quot;;mso-ascii-theme-font:minor-latin;&lt;br/&gt;mso-fareast-font-family:Calibri;mso-fareast-theme-font:minor-latin;mso-hansi-theme-font:&lt;br/&gt;minor-latin;mso-bidi-font-family:&amp;quot;Times New Roman&amp;quot;;mso-bidi-theme-font:minor-bidi;&lt;br/&gt;mso-ansi-language:EN-US;mso-fareast-language:EN-US;mso-bidi-language:AR-SA&quot; lang=&quot;EN-US&quot;&gt;Popup“Failed&lt;br&gt;transaction, Check account information again”&lt;/span&gt;" style="shape=umlBoundary;whiteSpace=wrap;html=1;fillColor=#f8cecc;strokeColor=#b85450;" parent="1" vertex="1">
          <mxGeometry x="395" y="3010" width="115" height="140" as="geometry" />
        </mxCell>
        <mxCell id="6GdseGKgYa6HGf_YkE8o-159" value="" style="rounded=0;orthogonalLoop=1;jettySize=auto;html=1;fillColor=#f8cecc;strokeColor=#b85450;exitX=0.619;exitY=1.013;exitDx=0;exitDy=0;exitPerimeter=0;entryX=0.022;entryY=0.683;entryDx=0;entryDy=0;entryPerimeter=0;" parent="1" source="6GdseGKgYa6HGf_YkE8o-137" target="6GdseGKgYa6HGf_YkE8o-158" edge="1">
          <mxGeometry relative="1" as="geometry">
            <mxPoint x="150" y="3160" as="sourcePoint" />
            <mxPoint x="295" y="3295" as="targetPoint" />
          </mxGeometry>
        </mxCell>
        <mxCell id="6GdseGKgYa6HGf_YkE8o-160" value="" style="rounded=0;orthogonalLoop=1;jettySize=auto;html=1;fillColor=#f8cecc;strokeColor=#b85450;exitX=1;exitY=0.714;exitDx=0;exitDy=0;exitPerimeter=0;" parent="1" source="6GdseGKgYa6HGf_YkE8o-158" edge="1">
          <mxGeometry relative="1" as="geometry">
            <mxPoint x="550" y="3080" as="sourcePoint" />
            <mxPoint x="550" y="3110" as="targetPoint" />
          </mxGeometry>
        </mxCell>
        <mxCell id="6GdseGKgYa6HGf_YkE8o-163" value="" style="rounded=0;orthogonalLoop=1;jettySize=auto;html=1;entryX=0.537;entryY=-0.012;entryDx=0;entryDy=0;entryPerimeter=0;exitX=0.512;exitY=0.994;exitDx=0;exitDy=0;exitPerimeter=0;fillColor=#f8cecc;strokeColor=#b85450;" parent="1" source="6GdseGKgYa6HGf_YkE8o-161" target="6GdseGKgYa6HGf_YkE8o-164" edge="1">
          <mxGeometry relative="1" as="geometry">
            <mxPoint x="580" y="3230" as="targetPoint" />
          </mxGeometry>
        </mxCell>
        <mxCell id="6GdseGKgYa6HGf_YkE8o-161" value="Show" style="ellipse;shape=umlControl;whiteSpace=wrap;html=1;fillColor=#f8cecc;strokeColor=#b85450;" parent="1" vertex="1">
          <mxGeometry x="545" y="3070" width="70" height="80" as="geometry" />
        </mxCell>
        <mxCell id="6GdseGKgYa6HGf_YkE8o-164" value="Card Data screen" style="shape=umlBoundary;whiteSpace=wrap;html=1;fillColor=#f8cecc;strokeColor=#b85450;" parent="1" vertex="1">
          <mxGeometry x="75" y="3190" width="100" height="80" as="geometry" />
        </mxCell>
        <mxCell id="6GdseGKgYa6HGf_YkE8o-165" style="rounded=0;orthogonalLoop=1;jettySize=auto;html=1;exitX=0;exitY=0.3333333333333333;exitDx=0;exitDy=0;exitPerimeter=0;entryX=0.7;entryY=0;entryDx=0;entryDy=0;entryPerimeter=0;fillColor=#f8cecc;strokeColor=#b85450;" parent="1" source="6GdseGKgYa6HGf_YkE8o-57" target="6GdseGKgYa6HGf_YkE8o-164" edge="1">
          <mxGeometry relative="1" as="geometry">
            <Array as="points">
              <mxPoint x="50" y="2920" />
            </Array>
          </mxGeometry>
        </mxCell>
        <mxCell id="6GdseGKgYa6HGf_YkE8o-166" value="Fill data" style="text;html=1;align=center;verticalAlign=middle;resizable=0;points=[];autosize=1;strokeColor=none;fillColor=none;fontColor=#FF0000;" parent="1" vertex="1">
          <mxGeometry x="5" y="2878" width="70" height="30" as="geometry" />
        </mxCell>
        <mxCell id="6GdseGKgYa6HGf_YkE8o-167" style="rounded=0;orthogonalLoop=1;jettySize=auto;html=1;entryX=0.143;entryY=0.874;entryDx=0;entryDy=0;entryPerimeter=0;fillColor=#f8cecc;strokeColor=#b85450;" parent="1" source="6GdseGKgYa6HGf_YkE8o-164" target="6GdseGKgYa6HGf_YkE8o-137" edge="1">
          <mxGeometry relative="1" as="geometry" />
        </mxCell>
        <mxCell id="6GdseGKgYa6HGf_YkE8o-189" value="5." style="text;html=1;align=center;verticalAlign=middle;resizable=0;points=[];autosize=1;strokeColor=none;fillColor=none;" parent="1" vertex="1">
          <mxGeometry x="45" y="3468" width="30" height="30" as="geometry" />
        </mxCell>
        <mxCell id="6GdseGKgYa6HGf_YkE8o-221" value="" style="rounded=0;orthogonalLoop=1;jettySize=auto;html=1;entryX=0.797;entryY=0.105;entryDx=0;entryDy=0;entryPerimeter=0;" parent="1" source="6GdseGKgYa6HGf_YkE8o-222" target="6GdseGKgYa6HGf_YkE8o-233" edge="1">
          <mxGeometry relative="1" as="geometry">
            <mxPoint x="415" y="3720" as="targetPoint" />
          </mxGeometry>
        </mxCell>
        <mxCell id="6GdseGKgYa6HGf_YkE8o-222" value="Updates Notifications" style="ellipse;shape=umlControl;whiteSpace=wrap;html=1;" parent="1" vertex="1">
          <mxGeometry x="380" y="3530" width="70" height="80" as="geometry" />
        </mxCell>
        <mxCell id="6GdseGKgYa6HGf_YkE8o-223" style="rounded=0;orthogonalLoop=1;jettySize=auto;html=1;exitX=0.5;exitY=0.5;exitDx=0;exitDy=0;exitPerimeter=0;entryX=0.02;entryY=0.695;entryDx=0;entryDy=0;entryPerimeter=0;" parent="1" source="6GdseGKgYa6HGf_YkE8o-224" edge="1">
          <mxGeometry relative="1" as="geometry">
            <mxPoint x="287" y="3755.6000000000004" as="targetPoint" />
          </mxGeometry>
        </mxCell>
        <mxCell id="6GdseGKgYa6HGf_YkE8o-224" value="Finder" style="shape=umlActor;verticalLabelPosition=bottom;verticalAlign=top;html=1;" parent="1" vertex="1">
          <mxGeometry x="70" y="3590" width="30" height="60" as="geometry" />
        </mxCell>
        <mxCell id="6GdseGKgYa6HGf_YkE8o-225" value="Login screen" style="shape=umlBoundary;whiteSpace=wrap;html=1;" parent="1" vertex="1">
          <mxGeometry x="265" y="3470" width="100" height="80" as="geometry" />
        </mxCell>
        <mxCell id="6GdseGKgYa6HGf_YkE8o-226" value="" style="rounded=0;orthogonalLoop=1;jettySize=auto;html=1;" parent="1" source="6GdseGKgYa6HGf_YkE8o-227" target="6GdseGKgYa6HGf_YkE8o-222" edge="1">
          <mxGeometry relative="1" as="geometry" />
        </mxCell>
        <mxCell id="6GdseGKgYa6HGf_YkE8o-227" value="Credentials&lt;div&gt;check&lt;/div&gt;" style="ellipse;shape=umlControl;whiteSpace=wrap;html=1;" parent="1" vertex="1">
          <mxGeometry x="455" y="3460" width="70" height="80" as="geometry" />
        </mxCell>
        <mxCell id="6GdseGKgYa6HGf_YkE8o-228" style="edgeStyle=none;rounded=0;orthogonalLoop=1;jettySize=auto;html=1;exitX=0.5;exitY=0.5;exitDx=0;exitDy=0;exitPerimeter=0;entryX=-0.04;entryY=0.525;entryDx=0;entryDy=0;entryPerimeter=0;" parent="1" source="6GdseGKgYa6HGf_YkE8o-224" target="6GdseGKgYa6HGf_YkE8o-225" edge="1">
          <mxGeometry relative="1" as="geometry" />
        </mxCell>
        <mxCell id="6GdseGKgYa6HGf_YkE8o-229" value="" style="endArrow=open;endFill=1;endSize=12;html=1;rounded=0;entryX=-0.029;entryY=0.615;entryDx=0;entryDy=0;entryPerimeter=0;" parent="1" target="6GdseGKgYa6HGf_YkE8o-227" edge="1">
          <mxGeometry width="160" relative="1" as="geometry">
            <mxPoint x="366" y="3510" as="sourcePoint" />
            <mxPoint x="395" y="3630" as="targetPoint" />
          </mxGeometry>
        </mxCell>
        <mxCell id="6GdseGKgYa6HGf_YkE8o-230" value="Types credentials" style="text;html=1;align=center;verticalAlign=middle;resizable=0;points=[];autosize=1;strokeColor=none;fillColor=none;rotation=-15;" parent="1" vertex="1">
          <mxGeometry x="130" y="3520" width="120" height="30" as="geometry" />
        </mxCell>
        <mxCell id="6GdseGKgYa6HGf_YkE8o-231" style="edgeStyle=none;rounded=0;orthogonalLoop=1;jettySize=auto;html=1;exitX=0;exitY=1;exitDx=0;exitDy=0;entryX=0.863;entryY=0.24;entryDx=0;entryDy=0;entryPerimeter=0;" parent="1" source="6GdseGKgYa6HGf_YkE8o-252" target="6GdseGKgYa6HGf_YkE8o-227" edge="1">
          <mxGeometry relative="1" as="geometry">
            <mxPoint x="577" y="3408" as="sourcePoint" />
          </mxGeometry>
        </mxCell>
        <mxCell id="6GdseGKgYa6HGf_YkE8o-232" value="" style="edgeStyle=orthogonalEdgeStyle;rounded=0;orthogonalLoop=1;jettySize=auto;html=1;" parent="1" source="6GdseGKgYa6HGf_YkE8o-233" edge="1">
          <mxGeometry relative="1" as="geometry">
            <mxPoint x="465" y="3650" as="targetPoint" />
          </mxGeometry>
        </mxCell>
        <mxCell id="6GdseGKgYa6HGf_YkE8o-233" value="Main menu" style="shape=umlBoundary;whiteSpace=wrap;html=1;" parent="1" vertex="1">
          <mxGeometry x="285" y="3610" width="100" height="80" as="geometry" />
        </mxCell>
        <mxCell id="6GdseGKgYa6HGf_YkE8o-234" style="edgeStyle=none;rounded=0;orthogonalLoop=1;jettySize=auto;html=1;exitX=0.5;exitY=0.5;exitDx=0;exitDy=0;exitPerimeter=0;entryX=-0.036;entryY=0.52;entryDx=0;entryDy=0;entryPerimeter=0;" parent="1" source="6GdseGKgYa6HGf_YkE8o-224" target="6GdseGKgYa6HGf_YkE8o-233" edge="1">
          <mxGeometry relative="1" as="geometry" />
        </mxCell>
        <mxCell id="6GdseGKgYa6HGf_YkE8o-235" value="" style="endArrow=open;endFill=1;endSize=12;html=1;rounded=0;exitX=0.143;exitY=0.25;exitDx=0;exitDy=0;exitPerimeter=0;fillColor=#f8cecc;strokeColor=#b85450;" parent="1" source="6GdseGKgYa6HGf_YkE8o-227" edge="1">
          <mxGeometry width="160" relative="1" as="geometry">
            <mxPoint x="415" y="3590" as="sourcePoint" />
            <mxPoint x="405" y="3420" as="targetPoint" />
          </mxGeometry>
        </mxCell>
        <mxCell id="6GdseGKgYa6HGf_YkE8o-236" value="Error&amp;nbsp;Popup message&lt;div&gt;screen&lt;/div&gt;" style="shape=umlBoundary;whiteSpace=wrap;html=1;fillColor=#f8cecc;strokeColor=#b85450;" parent="1" vertex="1">
          <mxGeometry x="345" y="3340" width="100" height="80" as="geometry" />
        </mxCell>
        <mxCell id="6GdseGKgYa6HGf_YkE8o-237" value="" style="endArrow=open;endFill=1;endSize=12;html=1;rounded=0;exitX=0.3;exitY=0.875;exitDx=0;exitDy=0;exitPerimeter=0;fillColor=#f8cecc;strokeColor=#b85450;" parent="1" source="6GdseGKgYa6HGf_YkE8o-236" edge="1">
          <mxGeometry width="160" relative="1" as="geometry">
            <mxPoint x="475" y="3490" as="sourcePoint" />
            <mxPoint x="305" y="3420" as="targetPoint" />
          </mxGeometry>
        </mxCell>
        <mxCell id="6GdseGKgYa6HGf_YkE8o-238" value="Wrong Credentials" style="text;html=1;align=center;verticalAlign=middle;resizable=0;points=[];autosize=1;strokeColor=none;fillColor=none;" parent="1" vertex="1">
          <mxGeometry x="365" y="3420" width="120" height="30" as="geometry" />
        </mxCell>
        <mxCell id="6GdseGKgYa6HGf_YkE8o-239" value="Show" style="ellipse;shape=umlControl;whiteSpace=wrap;html=1;fillColor=#f8cecc;strokeColor=#b85450;" parent="1" vertex="1">
          <mxGeometry x="235" y="3380" width="70" height="80" as="geometry" />
        </mxCell>
        <mxCell id="6GdseGKgYa6HGf_YkE8o-240" value="" style="endArrow=open;endFill=1;endSize=12;html=1;rounded=0;exitX=0.871;exitY=0.944;exitDx=0;exitDy=0;exitPerimeter=0;fillColor=#f8cecc;strokeColor=#b85450;entryX=0.512;entryY=-0.023;entryDx=0;entryDy=0;entryPerimeter=0;" parent="1" source="6GdseGKgYa6HGf_YkE8o-239" target="6GdseGKgYa6HGf_YkE8o-225" edge="1">
          <mxGeometry width="160" relative="1" as="geometry">
            <mxPoint x="385" y="3420" as="sourcePoint" />
            <mxPoint x="315" y="3430" as="targetPoint" />
          </mxGeometry>
        </mxCell>
        <mxCell id="6GdseGKgYa6HGf_YkE8o-241" value="Checks Notifications" style="text;html=1;align=center;verticalAlign=middle;resizable=0;points=[];autosize=1;strokeColor=none;fillColor=none;rotation=15;" parent="1" vertex="1">
          <mxGeometry x="135" y="3610" width="130" height="30" as="geometry" />
        </mxCell>
        <mxCell id="6GdseGKgYa6HGf_YkE8o-242" value="" style="rounded=0;orthogonalLoop=1;jettySize=auto;html=1;entryX=0.84;entryY=0.155;entryDx=0;entryDy=0;entryPerimeter=0;" parent="1" source="6GdseGKgYa6HGf_YkE8o-243" target="6GdseGKgYa6HGf_YkE8o-245" edge="1">
          <mxGeometry relative="1" as="geometry">
            <mxPoint x="500" y="3770" as="targetPoint" />
          </mxGeometry>
        </mxCell>
        <mxCell id="6GdseGKgYa6HGf_YkE8o-243" value="Show" style="ellipse;shape=umlControl;whiteSpace=wrap;html=1;" parent="1" vertex="1">
          <mxGeometry x="465" y="3610" width="70" height="80" as="geometry" />
        </mxCell>
        <mxCell id="6GdseGKgYa6HGf_YkE8o-254" value="" style="edgeStyle=orthogonalEdgeStyle;rounded=0;orthogonalLoop=1;jettySize=auto;html=1;" parent="1" source="6GdseGKgYa6HGf_YkE8o-245" target="6GdseGKgYa6HGf_YkE8o-253" edge="1">
          <mxGeometry relative="1" as="geometry" />
        </mxCell>
        <mxCell id="6GdseGKgYa6HGf_YkE8o-245" value="Form screen" style="shape=umlBoundary;whiteSpace=wrap;html=1;" parent="1" vertex="1">
          <mxGeometry x="285" y="3720" width="100" height="80" as="geometry" />
        </mxCell>
        <mxCell id="6GdseGKgYa6HGf_YkE8o-248" value="Accepts Form" style="text;html=1;align=center;verticalAlign=middle;resizable=0;points=[];autosize=1;strokeColor=none;fillColor=none;rotation=30;" parent="1" vertex="1">
          <mxGeometry x="150" y="3670" width="100" height="30" as="geometry" />
        </mxCell>
        <mxCell id="6GdseGKgYa6HGf_YkE8o-252" value="&lt;div&gt;&lt;span style=&quot;background-color: transparent; color: light-dark(rgb(0, 0, 0), rgb(255, 255, 255));&quot;&gt;Data Base&lt;/span&gt;&lt;/div&gt;" style="ellipse;shape=umlEntity;whiteSpace=wrap;html=1;" parent="1" vertex="1">
          <mxGeometry x="570" y="3320" width="80" height="80" as="geometry" />
        </mxCell>
        <mxCell id="6GdseGKgYa6HGf_YkE8o-256" value="" style="edgeStyle=orthogonalEdgeStyle;rounded=0;orthogonalLoop=1;jettySize=auto;html=1;" parent="1" source="6GdseGKgYa6HGf_YkE8o-253" target="6GdseGKgYa6HGf_YkE8o-255" edge="1">
          <mxGeometry relative="1" as="geometry" />
        </mxCell>
        <mxCell id="6GdseGKgYa6HGf_YkE8o-253" value="Ultimatum set" style="ellipse;shape=umlControl;whiteSpace=wrap;html=1;" parent="1" vertex="1">
          <mxGeometry x="465" y="3720" width="70" height="80" as="geometry" />
        </mxCell>
        <mxCell id="6GdseGKgYa6HGf_YkE8o-255" value="ΠΑΡΑΔΟΧΗ" style="whiteSpace=wrap;html=1;fillColor=#fff2cc;strokeColor=#d6b656;" parent="1" vertex="1">
          <mxGeometry x="440" y="3840" width="120" height="60" as="geometry" />
        </mxCell>
        <mxCell id="6GdseGKgYa6HGf_YkE8o-257" value="" style="rounded=0;orthogonalLoop=1;jettySize=auto;html=1;exitX=0;exitY=0.5;exitDx=0;exitDy=0;fillColor=#fff2cc;strokeColor=#d6b656;" parent="1" source="6GdseGKgYa6HGf_YkE8o-255" target="6GdseGKgYa6HGf_YkE8o-260" edge="1">
          <mxGeometry relative="1" as="geometry">
            <mxPoint x="545" y="3820" as="sourcePoint" />
          </mxGeometry>
        </mxCell>
        <mxCell id="6GdseGKgYa6HGf_YkE8o-258" value="" style="rounded=0;orthogonalLoop=1;jettySize=auto;html=1;" parent="1" source="6GdseGKgYa6HGf_YkE8o-260" target="6GdseGKgYa6HGf_YkE8o-262" edge="1">
          <mxGeometry relative="1" as="geometry" />
        </mxCell>
        <mxCell id="6GdseGKgYa6HGf_YkE8o-259" value="" style="rounded=0;orthogonalLoop=1;jettySize=auto;html=1;fillColor=#f8cecc;strokeColor=#b85450;exitX=0.877;exitY=0.925;exitDx=0;exitDy=0;exitPerimeter=0;" parent="1" source="6GdseGKgYa6HGf_YkE8o-260" target="6GdseGKgYa6HGf_YkE8o-266" edge="1">
          <mxGeometry relative="1" as="geometry" />
        </mxCell>
        <mxCell id="6GdseGKgYa6HGf_YkE8o-282" style="rounded=0;orthogonalLoop=1;jettySize=auto;html=1;fillColor=#f8cecc;strokeColor=#b85450;" parent="1" source="6GdseGKgYa6HGf_YkE8o-260" target="6GdseGKgYa6HGf_YkE8o-283" edge="1">
          <mxGeometry relative="1" as="geometry">
            <mxPoint x="200" y="3990" as="targetPoint" />
            <Array as="points">
              <mxPoint x="440" y="3820" />
            </Array>
          </mxGeometry>
        </mxCell>
        <mxCell id="6GdseGKgYa6HGf_YkE8o-260" value="Verify pickup screen" style="shape=umlBoundary;whiteSpace=wrap;html=1;" parent="1" vertex="1">
          <mxGeometry x="162.5" y="3863" width="100" height="80" as="geometry" />
        </mxCell>
        <mxCell id="6GdseGKgYa6HGf_YkE8o-261" value="" style="edgeStyle=orthogonalEdgeStyle;rounded=0;orthogonalLoop=1;jettySize=auto;html=1;" parent="1" source="6GdseGKgYa6HGf_YkE8o-262" target="6GdseGKgYa6HGf_YkE8o-264" edge="1">
          <mxGeometry relative="1" as="geometry" />
        </mxCell>
        <mxCell id="6GdseGKgYa6HGf_YkE8o-262" value="Transfer Reward" style="ellipse;shape=umlControl;whiteSpace=wrap;html=1;" parent="1" vertex="1">
          <mxGeometry x="302.5" y="3893" width="70" height="80" as="geometry" />
        </mxCell>
        <mxCell id="6GdseGKgYa6HGf_YkE8o-263" value="" style="edgeStyle=orthogonalEdgeStyle;rounded=0;orthogonalLoop=1;jettySize=auto;html=1;entryX=0.004;entryY=0.496;entryDx=0;entryDy=0;entryPerimeter=0;" parent="1" source="6GdseGKgYa6HGf_YkE8o-264" target="6GdseGKgYa6HGf_YkE8o-265" edge="1">
          <mxGeometry relative="1" as="geometry">
            <mxPoint x="577.5" y="3933" as="targetPoint" />
          </mxGeometry>
        </mxCell>
        <mxCell id="6GdseGKgYa6HGf_YkE8o-264" value="Updates Database" style="ellipse;shape=umlControl;whiteSpace=wrap;html=1;" parent="1" vertex="1">
          <mxGeometry x="612.5" y="3893" width="70" height="80" as="geometry" />
        </mxCell>
        <mxCell id="6GdseGKgYa6HGf_YkE8o-265" value="Popup&lt;div&gt;&quot;Succesfull transaction&quot;&lt;/div&gt;" style="shape=umlBoundary;whiteSpace=wrap;html=1;" parent="1" vertex="1">
          <mxGeometry x="707.5" y="3893" width="100" height="80" as="geometry" />
        </mxCell>
        <mxCell id="6GdseGKgYa6HGf_YkE8o-280" style="rounded=0;orthogonalLoop=1;jettySize=auto;html=1;entryX=1;entryY=1;entryDx=0;entryDy=0;fillColor=#f8cecc;strokeColor=#b85450;" parent="1" source="6GdseGKgYa6HGf_YkE8o-266" target="6GdseGKgYa6HGf_YkE8o-252" edge="1">
          <mxGeometry relative="1" as="geometry">
            <Array as="points">
              <mxPoint x="840" y="3950" />
            </Array>
          </mxGeometry>
        </mxCell>
        <mxCell id="6GdseGKgYa6HGf_YkE8o-266" value="Create Report, add to Report List" style="ellipse;shape=umlControl;whiteSpace=wrap;html=1;fillColor=#f8cecc;strokeColor=#b85450;" parent="1" vertex="1">
          <mxGeometry x="565" y="4190" width="70" height="80" as="geometry" />
        </mxCell>
        <mxCell id="6GdseGKgYa6HGf_YkE8o-267" value="&lt;span style=&quot;font-size:11.0pt;line-height:&lt;br/&gt;115%;font-family:&amp;quot;Calibri&amp;quot;,&amp;quot;sans-serif&amp;quot;;mso-ascii-theme-font:minor-latin;&lt;br/&gt;mso-fareast-font-family:Calibri;mso-fareast-theme-font:minor-latin;mso-hansi-theme-font:&lt;br/&gt;minor-latin;mso-bidi-font-family:&amp;quot;Times New Roman&amp;quot;;mso-bidi-theme-font:minor-bidi;&lt;br/&gt;mso-ansi-language:EN-US;mso-fareast-language:EN-US;mso-bidi-language:AR-SA&quot; lang=&quot;EN-US&quot;&gt;Popup“Failed&lt;br&gt;transaction, Check account information again”&lt;/span&gt;" style="shape=umlBoundary;whiteSpace=wrap;html=1;fillColor=#f8cecc;strokeColor=#b85450;" parent="1" vertex="1">
          <mxGeometry x="452.5" y="3963" width="115" height="140" as="geometry" />
        </mxCell>
        <mxCell id="6GdseGKgYa6HGf_YkE8o-268" value="" style="rounded=0;orthogonalLoop=1;jettySize=auto;html=1;fillColor=#f8cecc;strokeColor=#b85450;exitX=0.619;exitY=1.013;exitDx=0;exitDy=0;exitPerimeter=0;entryX=0.022;entryY=0.683;entryDx=0;entryDy=0;entryPerimeter=0;" parent="1" source="6GdseGKgYa6HGf_YkE8o-262" target="6GdseGKgYa6HGf_YkE8o-267" edge="1">
          <mxGeometry relative="1" as="geometry">
            <mxPoint x="207.5" y="4113" as="sourcePoint" />
            <mxPoint x="352.5" y="4248" as="targetPoint" />
          </mxGeometry>
        </mxCell>
        <mxCell id="6GdseGKgYa6HGf_YkE8o-269" value="" style="rounded=0;orthogonalLoop=1;jettySize=auto;html=1;fillColor=#f8cecc;strokeColor=#b85450;exitX=1;exitY=0.714;exitDx=0;exitDy=0;exitPerimeter=0;" parent="1" source="6GdseGKgYa6HGf_YkE8o-267" target="6GdseGKgYa6HGf_YkE8o-271" edge="1">
          <mxGeometry relative="1" as="geometry">
            <mxPoint x="607.5" y="4033" as="sourcePoint" />
            <mxPoint x="607.5" y="4063" as="targetPoint" />
          </mxGeometry>
        </mxCell>
        <mxCell id="6GdseGKgYa6HGf_YkE8o-270" value="" style="rounded=0;orthogonalLoop=1;jettySize=auto;html=1;entryX=1.05;entryY=0.5;entryDx=0;entryDy=0;entryPerimeter=0;exitX=0.512;exitY=0.994;exitDx=0;exitDy=0;exitPerimeter=0;fillColor=#f8cecc;strokeColor=#b85450;" parent="1" source="6GdseGKgYa6HGf_YkE8o-271" target="6GdseGKgYa6HGf_YkE8o-274" edge="1">
          <mxGeometry relative="1" as="geometry">
            <mxPoint x="186.5" y="4142" as="targetPoint" />
          </mxGeometry>
        </mxCell>
        <mxCell id="6GdseGKgYa6HGf_YkE8o-271" value="Show" style="ellipse;shape=umlControl;whiteSpace=wrap;html=1;fillColor=#f8cecc;strokeColor=#b85450;" parent="1" vertex="1">
          <mxGeometry x="320" y="4160" width="70" height="80" as="geometry" />
        </mxCell>
        <mxCell id="6GdseGKgYa6HGf_YkE8o-272" style="rounded=0;orthogonalLoop=1;jettySize=auto;html=1;entryX=0.143;entryY=0.874;entryDx=0;entryDy=0;entryPerimeter=0;fillColor=#f8cecc;strokeColor=#b85450;exitX=0.682;exitY=-0.011;exitDx=0;exitDy=0;exitPerimeter=0;" parent="1" source="6GdseGKgYa6HGf_YkE8o-274" target="6GdseGKgYa6HGf_YkE8o-262" edge="1">
          <mxGeometry relative="1" as="geometry">
            <mxPoint x="200" y="4060" as="sourcePoint" />
          </mxGeometry>
        </mxCell>
        <mxCell id="6GdseGKgYa6HGf_YkE8o-273" style="rounded=0;orthogonalLoop=1;jettySize=auto;html=1;exitX=0.5;exitY=1;exitDx=0;exitDy=0;entryX=0.414;entryY=0.115;entryDx=0;entryDy=0;entryPerimeter=0;" parent="1" source="6GdseGKgYa6HGf_YkE8o-252" target="6GdseGKgYa6HGf_YkE8o-264" edge="1">
          <mxGeometry relative="1" as="geometry" />
        </mxCell>
        <mxCell id="6GdseGKgYa6HGf_YkE8o-274" value="Card Data screen" style="shape=umlBoundary;whiteSpace=wrap;html=1;fillColor=#f8cecc;strokeColor=#b85450;" parent="1" vertex="1">
          <mxGeometry x="195" y="4100" width="100" height="80" as="geometry" />
        </mxCell>
        <mxCell id="6GdseGKgYa6HGf_YkE8o-275" style="rounded=0;orthogonalLoop=1;jettySize=auto;html=1;exitX=0.5;exitY=0.5;exitDx=0;exitDy=0;exitPerimeter=0;entryX=-0.048;entryY=0.542;entryDx=0;entryDy=0;entryPerimeter=0;" parent="1" source="6GdseGKgYa6HGf_YkE8o-224" target="6GdseGKgYa6HGf_YkE8o-260" edge="1">
          <mxGeometry relative="1" as="geometry" />
        </mxCell>
        <mxCell id="6GdseGKgYa6HGf_YkE8o-276" value="&lt;span style=&quot;color: rgb(0, 0, 0); font-family: Helvetica; font-size: 12px; font-style: normal; font-variant-ligatures: normal; font-variant-caps: normal; font-weight: 400; letter-spacing: normal; orphans: 2; text-align: center; text-indent: 0px; text-transform: none; widows: 2; word-spacing: 0px; -webkit-text-stroke-width: 0px; white-space: nowrap; text-decoration-thickness: initial; text-decoration-style: initial; text-decoration-color: initial; float: none; display: inline !important;&quot;&gt;Verifies pick-up&lt;/span&gt;" style="text;whiteSpace=wrap;html=1;rotation=75;" parent="1" vertex="1">
          <mxGeometry x="80" y="3760" width="110" height="40" as="geometry" />
        </mxCell>
        <mxCell id="6GdseGKgYa6HGf_YkE8o-277" value="&lt;font style=&quot;color: rgb(255, 0, 0);&quot;&gt;Doesnt verify Pick-up&lt;/font&gt;" style="text;html=1;align=center;verticalAlign=middle;resizable=0;points=[];autosize=1;strokeColor=none;fillColor=none;rotation=45;" parent="1" vertex="1">
          <mxGeometry x="130" y="3008" width="140" height="30" as="geometry" />
        </mxCell>
        <mxCell id="6GdseGKgYa6HGf_YkE8o-279" value="&lt;span style=&quot;color: rgb(255, 0, 0); font-family: Helvetica; font-size: 12px; font-style: normal; font-variant-ligatures: normal; font-variant-caps: normal; font-weight: 400; letter-spacing: normal; orphans: 2; text-align: center; text-indent: 0px; text-transform: none; widows: 2; word-spacing: 0px; -webkit-text-stroke-width: 0px; white-space: nowrap; text-decoration-thickness: initial; text-decoration-style: initial; text-decoration-color: initial; float: none; display: inline !important;&quot;&gt;Doesnt verify Pick-up&lt;/span&gt;" style="text;whiteSpace=wrap;html=1;rotation=45;" parent="1" vertex="1">
          <mxGeometry x="295" y="4040" width="150" height="30" as="geometry" />
        </mxCell>
        <mxCell id="6GdseGKgYa6HGf_YkE8o-284" style="rounded=0;orthogonalLoop=1;jettySize=auto;html=1;entryX=1;entryY=0.5;entryDx=0;entryDy=0;fillColor=#f8cecc;strokeColor=#b85450;" parent="1" source="6GdseGKgYa6HGf_YkE8o-283" target="6GdseGKgYa6HGf_YkE8o-252" edge="1">
          <mxGeometry relative="1" as="geometry" />
        </mxCell>
        <mxCell id="6GdseGKgYa6HGf_YkE8o-283" value="&lt;div&gt;Transaction finished&lt;/div&gt;" style="ellipse;shape=umlControl;whiteSpace=wrap;html=1;fillColor=#f8cecc;strokeColor=#b85450;" parent="1" vertex="1">
          <mxGeometry x="665" y="3770" width="70" height="80" as="geometry" />
        </mxCell>
        <mxCell id="6GdseGKgYa6HGf_YkE8o-306" value="Show" style="ellipse;shape=umlControl;whiteSpace=wrap;html=1;" parent="1" vertex="1">
          <mxGeometry x="450" y="4822" width="70" height="80" as="geometry" />
        </mxCell>
        <mxCell id="6GdseGKgYa6HGf_YkE8o-307" value="Lost Item Owner" style="shape=umlActor;verticalLabelPosition=bottom;verticalAlign=top;html=1;" parent="1" vertex="1">
          <mxGeometry x="95" y="4692" width="30" height="60" as="geometry" />
        </mxCell>
        <mxCell id="6GdseGKgYa6HGf_YkE8o-308" value="Login screen" style="shape=umlBoundary;whiteSpace=wrap;html=1;" parent="1" vertex="1">
          <mxGeometry x="250" y="4682" width="100" height="80" as="geometry" />
        </mxCell>
        <mxCell id="6GdseGKgYa6HGf_YkE8o-309" value="" style="edgeStyle=none;rounded=0;orthogonalLoop=1;jettySize=auto;html=1;" parent="1" source="6GdseGKgYa6HGf_YkE8o-310" edge="1">
          <mxGeometry relative="1" as="geometry">
            <mxPoint x="340" y="4822" as="targetPoint" />
          </mxGeometry>
        </mxCell>
        <mxCell id="6GdseGKgYa6HGf_YkE8o-310" value="Credentials&lt;div&gt;check&lt;/div&gt;" style="ellipse;shape=umlControl;whiteSpace=wrap;html=1;" parent="1" vertex="1">
          <mxGeometry x="440" y="4672" width="70" height="80" as="geometry" />
        </mxCell>
        <mxCell id="6GdseGKgYa6HGf_YkE8o-311" style="edgeStyle=none;rounded=0;orthogonalLoop=1;jettySize=auto;html=1;exitX=0.5;exitY=0.5;exitDx=0;exitDy=0;exitPerimeter=0;entryX=-0.04;entryY=0.525;entryDx=0;entryDy=0;entryPerimeter=0;" parent="1" source="6GdseGKgYa6HGf_YkE8o-307" target="6GdseGKgYa6HGf_YkE8o-308" edge="1">
          <mxGeometry relative="1" as="geometry" />
        </mxCell>
        <mxCell id="6GdseGKgYa6HGf_YkE8o-312" value="" style="endArrow=open;endFill=1;endSize=12;html=1;rounded=0;entryX=-0.029;entryY=0.615;entryDx=0;entryDy=0;entryPerimeter=0;" parent="1" target="6GdseGKgYa6HGf_YkE8o-310" edge="1">
          <mxGeometry width="160" relative="1" as="geometry">
            <mxPoint x="351" y="4722" as="sourcePoint" />
            <mxPoint x="380" y="4842" as="targetPoint" />
          </mxGeometry>
        </mxCell>
        <mxCell id="6GdseGKgYa6HGf_YkE8o-313" value="Types credentials" style="text;html=1;align=center;verticalAlign=middle;resizable=0;points=[];autosize=1;strokeColor=none;fillColor=none;" parent="1" vertex="1">
          <mxGeometry x="125" y="4697" width="120" height="30" as="geometry" />
        </mxCell>
        <mxCell id="6GdseGKgYa6HGf_YkE8o-314" value="&lt;div&gt;&lt;span style=&quot;background-color: transparent; color: light-dark(rgb(0, 0, 0), rgb(255, 255, 255));&quot;&gt;Data Base&lt;/span&gt;&lt;/div&gt;" style="ellipse;shape=umlEntity;whiteSpace=wrap;html=1;" parent="1" vertex="1">
          <mxGeometry x="550" y="4552" width="80" height="80" as="geometry" />
        </mxCell>
        <mxCell id="6GdseGKgYa6HGf_YkE8o-315" style="edgeStyle=none;rounded=0;orthogonalLoop=1;jettySize=auto;html=1;exitX=0;exitY=1;exitDx=0;exitDy=0;entryX=0.863;entryY=0.24;entryDx=0;entryDy=0;entryPerimeter=0;" parent="1" source="6GdseGKgYa6HGf_YkE8o-314" target="6GdseGKgYa6HGf_YkE8o-310" edge="1">
          <mxGeometry relative="1" as="geometry" />
        </mxCell>
        <mxCell id="6GdseGKgYa6HGf_YkE8o-316" value="" style="edgeStyle=none;rounded=0;orthogonalLoop=1;jettySize=auto;html=1;" parent="1" source="6GdseGKgYa6HGf_YkE8o-317" edge="1">
          <mxGeometry relative="1" as="geometry">
            <mxPoint x="450" y="4862" as="targetPoint" />
          </mxGeometry>
        </mxCell>
        <mxCell id="6GdseGKgYa6HGf_YkE8o-317" value="Main menu" style="shape=umlBoundary;whiteSpace=wrap;html=1;" parent="1" vertex="1">
          <mxGeometry x="270" y="4822" width="100" height="80" as="geometry" />
        </mxCell>
        <mxCell id="6GdseGKgYa6HGf_YkE8o-318" style="edgeStyle=none;rounded=0;orthogonalLoop=1;jettySize=auto;html=1;exitX=0.5;exitY=0.5;exitDx=0;exitDy=0;exitPerimeter=0;entryX=-0.036;entryY=0.52;entryDx=0;entryDy=0;entryPerimeter=0;" parent="1" source="6GdseGKgYa6HGf_YkE8o-307" target="6GdseGKgYa6HGf_YkE8o-317" edge="1">
          <mxGeometry relative="1" as="geometry" />
        </mxCell>
        <mxCell id="6GdseGKgYa6HGf_YkE8o-319" value="Found Items Filter" style="text;html=1;align=center;verticalAlign=middle;resizable=0;points=[];autosize=1;strokeColor=none;fillColor=none;rotation=45;" parent="1" vertex="1">
          <mxGeometry x="145" y="4782" width="120" height="30" as="geometry" />
        </mxCell>
        <mxCell id="6GdseGKgYa6HGf_YkE8o-320" value="" style="endArrow=open;endFill=1;endSize=12;html=1;rounded=0;exitX=0.143;exitY=0.25;exitDx=0;exitDy=0;exitPerimeter=0;fillColor=#f8cecc;strokeColor=#b85450;" parent="1" source="6GdseGKgYa6HGf_YkE8o-310" edge="1">
          <mxGeometry width="160" relative="1" as="geometry">
            <mxPoint x="400" y="4802" as="sourcePoint" />
            <mxPoint x="390" y="4632" as="targetPoint" />
          </mxGeometry>
        </mxCell>
        <mxCell id="6GdseGKgYa6HGf_YkE8o-321" value="Error&amp;nbsp;Popup message&lt;div&gt;screen&lt;/div&gt;" style="shape=umlBoundary;whiteSpace=wrap;html=1;fillColor=#f8cecc;strokeColor=#b85450;" parent="1" vertex="1">
          <mxGeometry x="330" y="4552" width="100" height="80" as="geometry" />
        </mxCell>
        <mxCell id="6GdseGKgYa6HGf_YkE8o-322" value="" style="endArrow=open;endFill=1;endSize=12;html=1;rounded=0;exitX=0.3;exitY=0.875;exitDx=0;exitDy=0;exitPerimeter=0;fillColor=#f8cecc;strokeColor=#b85450;" parent="1" source="6GdseGKgYa6HGf_YkE8o-321" edge="1">
          <mxGeometry width="160" relative="1" as="geometry">
            <mxPoint x="460" y="4702" as="sourcePoint" />
            <mxPoint x="290" y="4632" as="targetPoint" />
          </mxGeometry>
        </mxCell>
        <mxCell id="6GdseGKgYa6HGf_YkE8o-323" value="Wrong Credentials" style="text;html=1;align=center;verticalAlign=middle;resizable=0;points=[];autosize=1;strokeColor=none;fillColor=none;" parent="1" vertex="1">
          <mxGeometry x="350" y="4632" width="120" height="30" as="geometry" />
        </mxCell>
        <mxCell id="6GdseGKgYa6HGf_YkE8o-324" value="Show" style="ellipse;shape=umlControl;whiteSpace=wrap;html=1;fillColor=#f8cecc;strokeColor=#b85450;" parent="1" vertex="1">
          <mxGeometry x="220" y="4592" width="70" height="80" as="geometry" />
        </mxCell>
        <mxCell id="6GdseGKgYa6HGf_YkE8o-325" value="" style="endArrow=open;endFill=1;endSize=12;html=1;rounded=0;exitX=0.871;exitY=0.944;exitDx=0;exitDy=0;exitPerimeter=0;fillColor=#f8cecc;strokeColor=#b85450;entryX=0.512;entryY=-0.023;entryDx=0;entryDy=0;entryPerimeter=0;" parent="1" source="6GdseGKgYa6HGf_YkE8o-324" target="6GdseGKgYa6HGf_YkE8o-308" edge="1">
          <mxGeometry width="160" relative="1" as="geometry">
            <mxPoint x="370" y="4632" as="sourcePoint" />
            <mxPoint x="300" y="4642" as="targetPoint" />
          </mxGeometry>
        </mxCell>
        <mxCell id="6GdseGKgYa6HGf_YkE8o-326" value="6." style="text;html=1;align=center;verticalAlign=middle;resizable=0;points=[];autosize=1;strokeColor=none;fillColor=none;" parent="1" vertex="1">
          <mxGeometry x="90" y="4500" width="30" height="30" as="geometry" />
        </mxCell>
        <mxCell id="6GdseGKgYa6HGf_YkE8o-339" value="" style="edgeStyle=none;rounded=0;orthogonalLoop=1;jettySize=auto;html=1;entryX=0.859;entryY=0.117;entryDx=0;entryDy=0;entryPerimeter=0;" parent="1" target="6GdseGKgYa6HGf_YkE8o-342" edge="1">
          <mxGeometry relative="1" as="geometry">
            <mxPoint x="350.00038105676657" y="4977" as="targetPoint" />
            <mxPoint x="456.0003810567666" y="4890" as="sourcePoint" />
          </mxGeometry>
        </mxCell>
        <mxCell id="6GdseGKgYa6HGf_YkE8o-340" value="" style="edgeStyle=orthogonalEdgeStyle;rounded=0;orthogonalLoop=1;jettySize=auto;html=1;" parent="1" source="6GdseGKgYa6HGf_YkE8o-342" target="6GdseGKgYa6HGf_YkE8o-345" edge="1">
          <mxGeometry relative="1" as="geometry" />
        </mxCell>
        <mxCell id="6GdseGKgYa6HGf_YkE8o-341" value="" style="edgeStyle=orthogonalEdgeStyle;rounded=0;orthogonalLoop=1;jettySize=auto;html=1;" parent="1" source="6GdseGKgYa6HGf_YkE8o-342" target="6GdseGKgYa6HGf_YkE8o-345" edge="1">
          <mxGeometry relative="1" as="geometry" />
        </mxCell>
        <mxCell id="6GdseGKgYa6HGf_YkE8o-342" value="Found Items&amp;nbsp;&lt;div&gt;Posts screen&lt;/div&gt;" style="shape=umlBoundary;whiteSpace=wrap;html=1;" parent="1" vertex="1">
          <mxGeometry x="255.00038105676657" y="4930" width="100" height="80" as="geometry" />
        </mxCell>
        <mxCell id="6GdseGKgYa6HGf_YkE8o-343" value="Selects Post" style="text;html=1;align=center;verticalAlign=middle;resizable=0;points=[];autosize=1;strokeColor=none;fillColor=none;rotation=60;" parent="1" vertex="1">
          <mxGeometry x="160.00038105676657" y="4845" width="90" height="30" as="geometry" />
        </mxCell>
        <mxCell id="6GdseGKgYa6HGf_YkE8o-344" value="" style="rounded=0;orthogonalLoop=1;jettySize=auto;html=1;exitX=0.292;exitY=0.986;exitDx=0;exitDy=0;exitPerimeter=0;" parent="1" source="6GdseGKgYa6HGf_YkE8o-345" target="6GdseGKgYa6HGf_YkE8o-347" edge="1">
          <mxGeometry relative="1" as="geometry">
            <mxPoint x="470.0003810567666" y="5050" as="sourcePoint" />
          </mxGeometry>
        </mxCell>
        <mxCell id="6GdseGKgYa6HGf_YkE8o-345" value="Show" style="ellipse;shape=umlControl;whiteSpace=wrap;html=1;" parent="1" vertex="1">
          <mxGeometry x="445.0003810567666" y="4930" width="70" height="80" as="geometry" />
        </mxCell>
        <mxCell id="6GdseGKgYa6HGf_YkE8o-346" value="" style="edgeStyle=orthogonalEdgeStyle;rounded=0;orthogonalLoop=1;jettySize=auto;html=1;" parent="1" source="6GdseGKgYa6HGf_YkE8o-347" target="6GdseGKgYa6HGf_YkE8o-350" edge="1">
          <mxGeometry relative="1" as="geometry" />
        </mxCell>
        <mxCell id="6GdseGKgYa6HGf_YkE8o-347" value="Item Post" style="shape=umlBoundary;whiteSpace=wrap;html=1;" parent="1" vertex="1">
          <mxGeometry x="270.00038105676657" y="5050" width="100" height="80" as="geometry" />
        </mxCell>
        <mxCell id="6GdseGKgYa6HGf_YkE8o-348" value="This is mine" style="text;html=1;align=center;verticalAlign=middle;resizable=0;points=[];autosize=1;strokeColor=none;fillColor=none;rotation=60;" parent="1" vertex="1">
          <mxGeometry x="155.00038105676657" y="4955" width="90" height="30" as="geometry" />
        </mxCell>
        <mxCell id="6GdseGKgYa6HGf_YkE8o-349" value="" style="edgeStyle=orthogonalEdgeStyle;rounded=0;orthogonalLoop=1;jettySize=auto;html=1;" parent="1" source="6GdseGKgYa6HGf_YkE8o-350" target="6GdseGKgYa6HGf_YkE8o-351" edge="1">
          <mxGeometry relative="1" as="geometry" />
        </mxCell>
        <mxCell id="6GdseGKgYa6HGf_YkE8o-360" style="rounded=0;orthogonalLoop=1;jettySize=auto;html=1;" parent="1" source="6GdseGKgYa6HGf_YkE8o-350" target="6GdseGKgYa6HGf_YkE8o-314" edge="1">
          <mxGeometry relative="1" as="geometry" />
        </mxCell>
        <mxCell id="6GdseGKgYa6HGf_YkE8o-350" value="Notifies Finder&amp;nbsp;" style="ellipse;shape=umlControl;whiteSpace=wrap;html=1;" parent="1" vertex="1">
          <mxGeometry x="550.0003810567666" y="5050" width="70" height="80" as="geometry" />
        </mxCell>
        <mxCell id="6GdseGKgYa6HGf_YkE8o-351" value="Popup message&lt;div&gt;&quot;Waiting For Reply&quot;&lt;/div&gt;" style="shape=umlBoundary;whiteSpace=wrap;html=1;" parent="1" vertex="1">
          <mxGeometry x="680.0003810567666" y="5050" width="100" height="80" as="geometry" />
        </mxCell>
        <mxCell id="6GdseGKgYa6HGf_YkE8o-352" value="" style="edgeStyle=orthogonalEdgeStyle;rounded=0;orthogonalLoop=1;jettySize=auto;html=1;fillColor=#f8cecc;strokeColor=#b85450;" parent="1" target="6GdseGKgYa6HGf_YkE8o-356" edge="1">
          <mxGeometry relative="1" as="geometry">
            <mxPoint x="670.0003810567669" y="4860" as="sourcePoint" />
          </mxGeometry>
        </mxCell>
        <mxCell id="6GdseGKgYa6HGf_YkE8o-353" value="" style="rounded=0;orthogonalLoop=1;jettySize=auto;html=1;entryX=0.566;entryY=0.01;entryDx=0;entryDy=0;entryPerimeter=0;fillColor=#f8cecc;strokeColor=#b85450;" parent="1" target="6GdseGKgYa6HGf_YkE8o-357" edge="1">
          <mxGeometry relative="1" as="geometry">
            <mxPoint x="635.0003810567666" y="4950" as="targetPoint" />
            <mxPoint x="657.1335582036959" y="4890.9864480057" as="sourcePoint" />
          </mxGeometry>
        </mxCell>
        <mxCell id="6GdseGKgYa6HGf_YkE8o-354" value="No Post selected" style="ellipse;shape=umlControl;whiteSpace=wrap;html=1;fillColor=#f8cecc;strokeColor=#b85450;" parent="1" vertex="1">
          <mxGeometry x="595.0003810567666" y="4820" width="70" height="80" as="geometry" />
        </mxCell>
        <mxCell id="6GdseGKgYa6HGf_YkE8o-355" value="" style="endArrow=open;endFill=1;endSize=12;html=1;rounded=0;exitX=0.972;exitY=0.281;exitDx=0;exitDy=0;exitPerimeter=0;entryX=0.037;entryY=0.787;entryDx=0;entryDy=0;entryPerimeter=0;fillColor=#f8cecc;strokeColor=#b85450;" parent="1" source="6GdseGKgYa6HGf_YkE8o-342" edge="1">
          <mxGeometry width="160" relative="1" as="geometry">
            <mxPoint x="356.00038105676657" y="4730" as="sourcePoint" />
            <mxPoint x="602.590381056767" y="4882.96" as="targetPoint" />
          </mxGeometry>
        </mxCell>
        <mxCell id="6GdseGKgYa6HGf_YkE8o-356" value="Use Case 1" style="whiteSpace=wrap;html=1;fillColor=#f8cecc;strokeColor=#b85450;" parent="1" vertex="1">
          <mxGeometry x="700.0003810567666" y="4830" width="120" height="60" as="geometry" />
        </mxCell>
        <mxCell id="6GdseGKgYa6HGf_YkE8o-357" value="Log out screen" style="shape=umlBoundary;whiteSpace=wrap;html=1;fillColor=#f8cecc;strokeColor=#b85450;" parent="1" vertex="1">
          <mxGeometry x="630.0003810567666" y="4930" width="100" height="80" as="geometry" />
        </mxCell>
        <mxCell id="6GdseGKgYa6HGf_YkE8o-358" style="rounded=0;orthogonalLoop=1;jettySize=auto;html=1;exitX=0.5;exitY=0.5;exitDx=0;exitDy=0;exitPerimeter=0;entryX=0.01;entryY=0.488;entryDx=0;entryDy=0;entryPerimeter=0;" parent="1" source="6GdseGKgYa6HGf_YkE8o-307" target="6GdseGKgYa6HGf_YkE8o-342" edge="1">
          <mxGeometry relative="1" as="geometry" />
        </mxCell>
        <mxCell id="6GdseGKgYa6HGf_YkE8o-359" style="rounded=0;orthogonalLoop=1;jettySize=auto;html=1;exitX=0.5;exitY=0.5;exitDx=0;exitDy=0;exitPerimeter=0;entryX=-0.01;entryY=0.6;entryDx=0;entryDy=0;entryPerimeter=0;" parent="1" source="6GdseGKgYa6HGf_YkE8o-307" target="6GdseGKgYa6HGf_YkE8o-347" edge="1">
          <mxGeometry relative="1" as="geometry" />
        </mxCell>
        <mxCell id="6GdseGKgYa6HGf_YkE8o-361" value="9." style="text;html=1;align=center;verticalAlign=middle;resizable=0;points=[];autosize=1;strokeColor=none;fillColor=none;" parent="1" vertex="1">
          <mxGeometry x="10" y="6798" width="30" height="30" as="geometry" />
        </mxCell>
        <mxCell id="6GdseGKgYa6HGf_YkE8o-386" value="" style="rounded=0;orthogonalLoop=1;jettySize=auto;html=1;" parent="1" source="6GdseGKgYa6HGf_YkE8o-363" target="6GdseGKgYa6HGf_YkE8o-385" edge="1">
          <mxGeometry relative="1" as="geometry" />
        </mxCell>
        <mxCell id="6GdseGKgYa6HGf_YkE8o-363" value="Show" style="ellipse;shape=umlControl;whiteSpace=wrap;html=1;" parent="1" vertex="1">
          <mxGeometry x="435" y="7082" width="70" height="80" as="geometry" />
        </mxCell>
        <mxCell id="6GdseGKgYa6HGf_YkE8o-364" value="&amp;nbsp;Business Owner" style="shape=umlActor;verticalLabelPosition=bottom;verticalAlign=top;html=1;" parent="1" vertex="1">
          <mxGeometry x="40" y="6960" width="30" height="60" as="geometry" />
        </mxCell>
        <mxCell id="6GdseGKgYa6HGf_YkE8o-365" value="Login screen" style="shape=umlBoundary;whiteSpace=wrap;html=1;" parent="1" vertex="1">
          <mxGeometry x="195" y="6950" width="100" height="80" as="geometry" />
        </mxCell>
        <mxCell id="6GdseGKgYa6HGf_YkE8o-366" value="" style="edgeStyle=none;rounded=0;orthogonalLoop=1;jettySize=auto;html=1;" parent="1" source="6GdseGKgYa6HGf_YkE8o-367" edge="1">
          <mxGeometry relative="1" as="geometry">
            <mxPoint x="285" y="7090" as="targetPoint" />
          </mxGeometry>
        </mxCell>
        <mxCell id="6GdseGKgYa6HGf_YkE8o-367" value="Credentials&lt;div&gt;check&lt;/div&gt;" style="ellipse;shape=umlControl;whiteSpace=wrap;html=1;" parent="1" vertex="1">
          <mxGeometry x="385" y="6940" width="70" height="80" as="geometry" />
        </mxCell>
        <mxCell id="6GdseGKgYa6HGf_YkE8o-368" style="edgeStyle=none;rounded=0;orthogonalLoop=1;jettySize=auto;html=1;exitX=0.5;exitY=0.5;exitDx=0;exitDy=0;exitPerimeter=0;entryX=-0.04;entryY=0.525;entryDx=0;entryDy=0;entryPerimeter=0;" parent="1" source="6GdseGKgYa6HGf_YkE8o-364" target="6GdseGKgYa6HGf_YkE8o-365" edge="1">
          <mxGeometry relative="1" as="geometry" />
        </mxCell>
        <mxCell id="6GdseGKgYa6HGf_YkE8o-369" value="" style="endArrow=open;endFill=1;endSize=12;html=1;rounded=0;entryX=-0.029;entryY=0.615;entryDx=0;entryDy=0;entryPerimeter=0;" parent="1" target="6GdseGKgYa6HGf_YkE8o-367" edge="1">
          <mxGeometry width="160" relative="1" as="geometry">
            <mxPoint x="296" y="6990" as="sourcePoint" />
            <mxPoint x="325" y="7110" as="targetPoint" />
          </mxGeometry>
        </mxCell>
        <mxCell id="6GdseGKgYa6HGf_YkE8o-370" value="Types credentials" style="text;html=1;align=center;verticalAlign=middle;resizable=0;points=[];autosize=1;strokeColor=none;fillColor=none;" parent="1" vertex="1">
          <mxGeometry x="70" y="6965" width="120" height="30" as="geometry" />
        </mxCell>
        <mxCell id="6GdseGKgYa6HGf_YkE8o-371" value="&lt;div&gt;&lt;span style=&quot;background-color: transparent; color: light-dark(rgb(0, 0, 0), rgb(255, 255, 255));&quot;&gt;Data Base&lt;/span&gt;&lt;/div&gt;" style="ellipse;shape=umlEntity;whiteSpace=wrap;html=1;" parent="1" vertex="1">
          <mxGeometry x="510" y="6820" width="80" height="80" as="geometry" />
        </mxCell>
        <mxCell id="6GdseGKgYa6HGf_YkE8o-372" style="edgeStyle=none;rounded=0;orthogonalLoop=1;jettySize=auto;html=1;exitX=0;exitY=1;exitDx=0;exitDy=0;entryX=0.863;entryY=0.24;entryDx=0;entryDy=0;entryPerimeter=0;" parent="1" source="6GdseGKgYa6HGf_YkE8o-371" target="6GdseGKgYa6HGf_YkE8o-367" edge="1">
          <mxGeometry relative="1" as="geometry" />
        </mxCell>
        <mxCell id="6GdseGKgYa6HGf_YkE8o-373" value="" style="edgeStyle=none;rounded=0;orthogonalLoop=1;jettySize=auto;html=1;entryX=-0.005;entryY=0.604;entryDx=0;entryDy=0;entryPerimeter=0;" parent="1" source="6GdseGKgYa6HGf_YkE8o-374" target="6GdseGKgYa6HGf_YkE8o-363" edge="1">
          <mxGeometry relative="1" as="geometry">
            <mxPoint x="395" y="7130" as="targetPoint" />
          </mxGeometry>
        </mxCell>
        <mxCell id="6GdseGKgYa6HGf_YkE8o-374" value="&lt;div&gt;Business&lt;/div&gt;Main menu" style="shape=umlBoundary;whiteSpace=wrap;html=1;" parent="1" vertex="1">
          <mxGeometry x="215" y="7090" width="100" height="80" as="geometry" />
        </mxCell>
        <mxCell id="6GdseGKgYa6HGf_YkE8o-375" style="edgeStyle=none;rounded=0;orthogonalLoop=1;jettySize=auto;html=1;exitX=0.5;exitY=0.5;exitDx=0;exitDy=0;exitPerimeter=0;entryX=-0.036;entryY=0.52;entryDx=0;entryDy=0;entryPerimeter=0;" parent="1" source="6GdseGKgYa6HGf_YkE8o-364" target="6GdseGKgYa6HGf_YkE8o-374" edge="1">
          <mxGeometry relative="1" as="geometry" />
        </mxCell>
        <mxCell id="6GdseGKgYa6HGf_YkE8o-376" value="Inventory" style="text;html=1;align=center;verticalAlign=middle;resizable=0;points=[];autosize=1;strokeColor=none;fillColor=none;" parent="1" vertex="1">
          <mxGeometry x="140" y="7060" width="70" height="30" as="geometry" />
        </mxCell>
        <mxCell id="6GdseGKgYa6HGf_YkE8o-377" value="" style="endArrow=open;endFill=1;endSize=12;html=1;rounded=0;exitX=0.143;exitY=0.25;exitDx=0;exitDy=0;exitPerimeter=0;fillColor=#f8cecc;strokeColor=#b85450;" parent="1" source="6GdseGKgYa6HGf_YkE8o-367" edge="1">
          <mxGeometry width="160" relative="1" as="geometry">
            <mxPoint x="345" y="7070" as="sourcePoint" />
            <mxPoint x="335" y="6900" as="targetPoint" />
          </mxGeometry>
        </mxCell>
        <mxCell id="6GdseGKgYa6HGf_YkE8o-378" value="Error&amp;nbsp;Popup message&lt;div&gt;screen&lt;/div&gt;" style="shape=umlBoundary;whiteSpace=wrap;html=1;fillColor=#f8cecc;strokeColor=#b85450;" parent="1" vertex="1">
          <mxGeometry x="275" y="6820" width="100" height="80" as="geometry" />
        </mxCell>
        <mxCell id="6GdseGKgYa6HGf_YkE8o-379" value="" style="endArrow=open;endFill=1;endSize=12;html=1;rounded=0;exitX=0.3;exitY=0.875;exitDx=0;exitDy=0;exitPerimeter=0;fillColor=#f8cecc;strokeColor=#b85450;" parent="1" source="6GdseGKgYa6HGf_YkE8o-378" edge="1">
          <mxGeometry width="160" relative="1" as="geometry">
            <mxPoint x="405" y="6970" as="sourcePoint" />
            <mxPoint x="235" y="6900" as="targetPoint" />
          </mxGeometry>
        </mxCell>
        <mxCell id="6GdseGKgYa6HGf_YkE8o-380" value="Wrong Credentials" style="text;html=1;align=center;verticalAlign=middle;resizable=0;points=[];autosize=1;strokeColor=none;fillColor=none;" parent="1" vertex="1">
          <mxGeometry x="295" y="6900" width="120" height="30" as="geometry" />
        </mxCell>
        <mxCell id="6GdseGKgYa6HGf_YkE8o-381" value="Show" style="ellipse;shape=umlControl;whiteSpace=wrap;html=1;fillColor=#f8cecc;strokeColor=#b85450;" parent="1" vertex="1">
          <mxGeometry x="165" y="6860" width="70" height="80" as="geometry" />
        </mxCell>
        <mxCell id="6GdseGKgYa6HGf_YkE8o-382" value="" style="endArrow=open;endFill=1;endSize=12;html=1;rounded=0;exitX=0.871;exitY=0.944;exitDx=0;exitDy=0;exitPerimeter=0;fillColor=#f8cecc;strokeColor=#b85450;entryX=0.512;entryY=-0.023;entryDx=0;entryDy=0;entryPerimeter=0;" parent="1" source="6GdseGKgYa6HGf_YkE8o-381" target="6GdseGKgYa6HGf_YkE8o-365" edge="1">
          <mxGeometry width="160" relative="1" as="geometry">
            <mxPoint x="315" y="6900" as="sourcePoint" />
            <mxPoint x="245" y="6910" as="targetPoint" />
          </mxGeometry>
        </mxCell>
        <mxCell id="6GdseGKgYa6HGf_YkE8o-390" value="" style="rounded=0;orthogonalLoop=1;jettySize=auto;html=1;" parent="1" source="6GdseGKgYa6HGf_YkE8o-385" target="6GdseGKgYa6HGf_YkE8o-389" edge="1">
          <mxGeometry relative="1" as="geometry" />
        </mxCell>
        <mxCell id="6GdseGKgYa6HGf_YkE8o-385" value="&lt;div&gt;Inventory Screen&lt;/div&gt;" style="shape=umlBoundary;whiteSpace=wrap;html=1;" parent="1" vertex="1">
          <mxGeometry x="215" y="7200" width="100" height="80" as="geometry" />
        </mxCell>
        <mxCell id="6GdseGKgYa6HGf_YkE8o-387" style="rounded=0;orthogonalLoop=1;jettySize=auto;html=1;exitX=0.5;exitY=0.5;exitDx=0;exitDy=0;exitPerimeter=0;entryX=-0.017;entryY=0.471;entryDx=0;entryDy=0;entryPerimeter=0;" parent="1" source="6GdseGKgYa6HGf_YkE8o-364" target="6GdseGKgYa6HGf_YkE8o-385" edge="1">
          <mxGeometry relative="1" as="geometry" />
        </mxCell>
        <mxCell id="6GdseGKgYa6HGf_YkE8o-388" value="Add Item" style="text;html=1;align=center;verticalAlign=middle;resizable=0;points=[];autosize=1;strokeColor=none;fillColor=none;rotation=45;" parent="1" vertex="1">
          <mxGeometry x="127.5" y="7115" width="70" height="30" as="geometry" />
        </mxCell>
        <mxCell id="6GdseGKgYa6HGf_YkE8o-393" value="" style="edgeStyle=orthogonalEdgeStyle;rounded=0;orthogonalLoop=1;jettySize=auto;html=1;fillColor=#fff2cc;strokeColor=#d6b656;" parent="1" source="6GdseGKgYa6HGf_YkE8o-389" target="6GdseGKgYa6HGf_YkE8o-392" edge="1">
          <mxGeometry relative="1" as="geometry">
            <Array as="points">
              <mxPoint x="575" y="7350" />
            </Array>
          </mxGeometry>
        </mxCell>
        <mxCell id="6GdseGKgYa6HGf_YkE8o-405" style="rounded=0;orthogonalLoop=1;jettySize=auto;html=1;" parent="1" source="6GdseGKgYa6HGf_YkE8o-389" target="6GdseGKgYa6HGf_YkE8o-371" edge="1">
          <mxGeometry relative="1" as="geometry" />
        </mxCell>
        <mxCell id="6GdseGKgYa6HGf_YkE8o-389" value="&lt;span style=&quot;text-align: left;&quot;&gt;Notifies Item Owner&lt;/span&gt;" style="ellipse;shape=umlControl;whiteSpace=wrap;html=1;" parent="1" vertex="1">
          <mxGeometry x="550" y="7190" width="70" height="80" as="geometry" />
        </mxCell>
        <mxCell id="6GdseGKgYa6HGf_YkE8o-394" style="edgeStyle=orthogonalEdgeStyle;rounded=0;orthogonalLoop=1;jettySize=auto;html=1;exitX=0;exitY=0.5;exitDx=0;exitDy=0;" parent="1" source="6GdseGKgYa6HGf_YkE8o-392" edge="1">
          <mxGeometry relative="1" as="geometry">
            <mxPoint x="335" y="7350.076923076922" as="targetPoint" />
          </mxGeometry>
        </mxCell>
        <mxCell id="6GdseGKgYa6HGf_YkE8o-392" value="ΠΑΡΑΔΟΧΗ" style="whiteSpace=wrap;html=1;fillColor=#fff2cc;strokeColor=#d6b656;" parent="1" vertex="1">
          <mxGeometry x="387.5" y="7320" width="120" height="60" as="geometry" />
        </mxCell>
        <mxCell id="6GdseGKgYa6HGf_YkE8o-399" style="rounded=0;orthogonalLoop=1;jettySize=auto;html=1;" parent="1" source="6GdseGKgYa6HGf_YkE8o-395" target="6GdseGKgYa6HGf_YkE8o-396" edge="1">
          <mxGeometry relative="1" as="geometry" />
        </mxCell>
        <mxCell id="6GdseGKgYa6HGf_YkE8o-395" value="Show" style="ellipse;shape=umlControl;whiteSpace=wrap;html=1;" parent="1" vertex="1">
          <mxGeometry x="267.5" y="7310" width="70" height="80" as="geometry" />
        </mxCell>
        <mxCell id="6GdseGKgYa6HGf_YkE8o-401" value="" style="rounded=0;orthogonalLoop=1;jettySize=auto;html=1;" parent="1" source="6GdseGKgYa6HGf_YkE8o-396" target="6GdseGKgYa6HGf_YkE8o-400" edge="1">
          <mxGeometry relative="1" as="geometry" />
        </mxCell>
        <mxCell id="6GdseGKgYa6HGf_YkE8o-407" value="" style="rounded=0;orthogonalLoop=1;jettySize=auto;html=1;fillColor=#f8cecc;strokeColor=#b85450;" parent="1" source="6GdseGKgYa6HGf_YkE8o-396" target="6GdseGKgYa6HGf_YkE8o-406" edge="1">
          <mxGeometry relative="1" as="geometry">
            <Array as="points">
              <mxPoint x="295" y="7550" />
            </Array>
          </mxGeometry>
        </mxCell>
        <mxCell id="6GdseGKgYa6HGf_YkE8o-396" value="Verify pickup&amp;nbsp; business screen" style="shape=umlBoundary;whiteSpace=wrap;html=1;" parent="1" vertex="1">
          <mxGeometry x="115" y="7370" width="100" height="80" as="geometry" />
        </mxCell>
        <mxCell id="6GdseGKgYa6HGf_YkE8o-397" style="rounded=0;orthogonalLoop=1;jettySize=auto;html=1;exitX=0.5;exitY=0.5;exitDx=0;exitDy=0;exitPerimeter=0;entryX=0.532;entryY=0.036;entryDx=0;entryDy=0;entryPerimeter=0;" parent="1" source="6GdseGKgYa6HGf_YkE8o-364" target="6GdseGKgYa6HGf_YkE8o-396" edge="1">
          <mxGeometry relative="1" as="geometry" />
        </mxCell>
        <mxCell id="6GdseGKgYa6HGf_YkE8o-398" value="Verifies" style="text;html=1;align=center;verticalAlign=middle;resizable=0;points=[];autosize=1;strokeColor=none;fillColor=none;rotation=60;" parent="1" vertex="1">
          <mxGeometry x="122.5" y="7225" width="60" height="30" as="geometry" />
        </mxCell>
        <mxCell id="6GdseGKgYa6HGf_YkE8o-403" value="" style="edgeStyle=orthogonalEdgeStyle;rounded=0;orthogonalLoop=1;jettySize=auto;html=1;" parent="1" source="6GdseGKgYa6HGf_YkE8o-400" target="6GdseGKgYa6HGf_YkE8o-402" edge="1">
          <mxGeometry relative="1" as="geometry" />
        </mxCell>
        <mxCell id="6GdseGKgYa6HGf_YkE8o-400" value="Show" style="ellipse;shape=umlControl;whiteSpace=wrap;html=1;" parent="1" vertex="1">
          <mxGeometry x="252.5" y="7400" width="70" height="80" as="geometry" />
        </mxCell>
        <mxCell id="6GdseGKgYa6HGf_YkE8o-402" value="Popup&lt;div&gt;&quot;Succesfull transaction&quot;&lt;/div&gt;" style="shape=umlBoundary;whiteSpace=wrap;html=1;" parent="1" vertex="1">
          <mxGeometry x="355" y="7400" width="100" height="80" as="geometry" />
        </mxCell>
        <mxCell id="6GdseGKgYa6HGf_YkE8o-408" style="rounded=0;orthogonalLoop=1;jettySize=auto;html=1;entryX=1;entryY=0.5;entryDx=0;entryDy=0;fillColor=#f8cecc;strokeColor=#b85450;" parent="1" source="6GdseGKgYa6HGf_YkE8o-406" target="6GdseGKgYa6HGf_YkE8o-371" edge="1">
          <mxGeometry relative="1" as="geometry">
            <Array as="points">
              <mxPoint x="685" y="7150" />
            </Array>
          </mxGeometry>
        </mxCell>
        <mxCell id="6GdseGKgYa6HGf_YkE8o-406" value="Create Report, add to Report List" style="ellipse;shape=umlControl;whiteSpace=wrap;html=1;fillColor=#f8cecc;strokeColor=#b85450;" parent="1" vertex="1">
          <mxGeometry x="570" y="7430" width="70" height="80" as="geometry" />
        </mxCell>
        <mxCell id="6GdseGKgYa6HGf_YkE8o-409" value="&lt;span style=&quot;color: rgb(255, 0, 0); font-family: Helvetica; font-size: 12px; font-style: normal; font-variant-ligatures: normal; font-variant-caps: normal; font-weight: 400; letter-spacing: normal; orphans: 2; text-align: center; text-indent: 0px; text-transform: none; widows: 2; word-spacing: 0px; -webkit-text-stroke-width: 0px; white-space: nowrap; text-decoration-thickness: initial; text-decoration-style: initial; text-decoration-color: initial; float: none; display: inline !important;&quot;&gt;Doesnt verify Pick-up&lt;/span&gt;" style="text;whiteSpace=wrap;html=1;" parent="1" vertex="1">
          <mxGeometry x="380" y="7520" width="150" height="40" as="geometry" />
        </mxCell>
        <mxCell id="Nijg4oGjdMnezJTjfP8a-1" style="rounded=0;orthogonalLoop=1;jettySize=auto;html=1;exitX=0;exitY=1;exitDx=0;exitDy=0;exitPerimeter=0;fillColor=#f8cecc;strokeColor=#b85450;entryX=-0.024;entryY=0.322;entryDx=0;entryDy=0;entryPerimeter=0;" edge="1" parent="1" source="6GdseGKgYa6HGf_YkE8o-224" target="6GdseGKgYa6HGf_YkE8o-274">
          <mxGeometry relative="1" as="geometry">
            <Array as="points">
              <mxPoint x="70" y="4040" />
            </Array>
            <mxPoint x="85" y="3638" as="sourcePoint" />
            <mxPoint x="190" y="4140" as="targetPoint" />
          </mxGeometry>
        </mxCell>
        <mxCell id="Nijg4oGjdMnezJTjfP8a-2" value="Fill data" style="text;html=1;align=center;verticalAlign=middle;resizable=0;points=[];autosize=1;strokeColor=none;fillColor=none;fontColor=#FF0000;" vertex="1" parent="1">
          <mxGeometry x="15" y="2888" width="70" height="30" as="geometry" />
        </mxCell>
        <mxCell id="Nijg4oGjdMnezJTjfP8a-4" value="Fill data" style="text;html=1;align=center;verticalAlign=middle;resizable=0;points=[];autosize=1;strokeColor=none;fillColor=none;fontColor=#FF0000;" vertex="1" parent="1">
          <mxGeometry x="57.5" y="4018" width="70" height="30" as="geometry" />
        </mxCell>
        <mxCell id="Nijg4oGjdMnezJTjfP8a-6" value="" style="edgeStyle=none;rounded=0;orthogonalLoop=1;jettySize=auto;html=1;exitX=0.913;exitY=0.322;exitDx=0;exitDy=0;exitPerimeter=0;entryX=0.5;entryY=1;entryDx=0;entryDy=0;fillColor=#f8cecc;strokeColor=#b85450;" edge="1" parent="1" source="qrhTBZqcDBaqj9OsFunk-99" target="qrhTBZqcDBaqj9OsFunk-62">
          <mxGeometry relative="1" as="geometry">
            <mxPoint x="492.5" y="8030" as="targetPoint" />
            <mxPoint x="413" y="8030" as="sourcePoint" />
          </mxGeometry>
        </mxCell>
      </root>
    </mxGraphModel>
  </diagram>
</mxfile>
